<?xml version="1.0" encoding="UTF-8" standalone="no"?>
<svg
   xmlns:dc="http://purl.org/dc/elements/1.1/"
   xmlns:cc="http://creativecommons.org/ns#"
   xmlns:rdf="http://www.w3.org/1999/02/22-rdf-syntax-ns#"
   xmlns:svg="http://www.w3.org/2000/svg"
   xmlns="http://www.w3.org/2000/svg"
   xmlns:xlink="http://www.w3.org/1999/xlink"
   xmlns:sodipodi="http://sodipodi.sourceforge.net/DTD/sodipodi-0.dtd"
   xmlns:inkscape="http://www.inkscape.org/namespaces/inkscape"
   width="512.000000pt"
   height="512.000000pt"
   viewBox="0 0 512.000000 512.000000"
   version="1.1"
   id="svg306"
   sodipodi:docname="favicon.svg"
   inkscape:version="1.0.2 (e86c870879, 2021-01-15, custom)">
  <metadata
     id="metadata312">
    <rdf:RDF>
      <cc:Work
         rdf:about="">
        <dc:format>image/svg+xml</dc:format>
        <dc:type
           rdf:resource="http://purl.org/dc/dcmitype/StillImage" />
        <dc:title></dc:title>
      </cc:Work>
    </rdf:RDF>
  </metadata>
  <defs
     id="defs310">
    <linearGradient
       inkscape:collect="always"
       id="linearGradient1265">
      <stop
         style="stop-color:#000000;stop-opacity:1;"
         offset="0"
         id="stop1261" />
      <stop
         style="stop-color:#000000;stop-opacity:0;"
         offset="1"
         id="stop1263" />
    </linearGradient>
    <linearGradient
       inkscape:collect="always"
       xlink:href="#linearGradient1265"
       id="linearGradient1267"
       x1="97.696263"
       y1="1997.3882"
       x2="5021.3806"
       y2="1997.3882"
       gradientUnits="userSpaceOnUse" />
    <linearGradient
       inkscape:collect="always"
       xlink:href="#linearGradient1265"
       id="linearGradient1269"
       x1="1310.6302"
       y1="2657.5129"
       x2="4527.4274"
       y2="2657.5129"
       gradientUnits="userSpaceOnUse" />
    <linearGradient
       inkscape:collect="always"
       xlink:href="#linearGradient1265"
       id="linearGradient1271"
       x1="593.61859"
       y1="2204.4329"
       x2="4519.4192"
       y2="2204.4329"
       gradientUnits="userSpaceOnUse" />
    <linearGradient
       inkscape:collect="always"
       xlink:href="#linearGradient1265"
       id="linearGradient1273"
       x1="697.44334"
       y1="2618.9022"
       x2="5019.8059"
       y2="2618.9022"
       gradientUnits="userSpaceOnUse" />
    <linearGradient
       inkscape:collect="always"
       xlink:href="#linearGradient1265"
       id="linearGradient1275"
       x1="751.76342"
       y1="1598.9615"
       x2="4369.1052"
       y2="1598.9615"
       gradientUnits="userSpaceOnUse" />
    <linearGradient
       inkscape:collect="always"
       xlink:href="#linearGradient1265"
       id="linearGradient1277"
       x1="1362.6602"
       y1="2063.9125"
       x2="4432.4145"
       y2="2063.9125"
       gradientUnits="userSpaceOnUse" />
    <linearGradient
       inkscape:collect="always"
       xlink:href="#linearGradient1265"
       id="linearGradient1279"
       x1="1336.1422"
       y1="2057.8891"
       x2="4275.884"
       y2="2057.8891"
       gradientUnits="userSpaceOnUse" />
    <linearGradient
       inkscape:collect="always"
       xlink:href="#linearGradient1265"
       id="linearGradient1281"
       x1="102.18868"
       y1="2896.4933"
       x2="2719.8269"
       y2="2896.4933"
       gradientUnits="userSpaceOnUse" />
    <linearGradient
       inkscape:collect="always"
       xlink:href="#linearGradient1265"
       id="linearGradient1283"
       x1="1379.9105"
       y1="2162.182"
       x2="3839.3751"
       y2="2162.182"
       gradientUnits="userSpaceOnUse" />
    <linearGradient
       inkscape:collect="always"
       xlink:href="#linearGradient1265"
       id="linearGradient1285"
       x1="2240.581"
       y1="2333.1398"
       x2="3341.9737"
       y2="2333.1398"
       gradientUnits="userSpaceOnUse" />
    <linearGradient
       inkscape:collect="always"
       xlink:href="#linearGradient1265"
       id="linearGradient1287"
       x1="2020.8765"
       y1="2298.0265"
       x2="3329.2382"
       y2="2298.0265"
       gradientUnits="userSpaceOnUse" />
    <linearGradient
       inkscape:collect="always"
       xlink:href="#linearGradient1265"
       id="linearGradient1289"
       x1="330.63155"
       y1="1922.8527"
       x2="4787.7731"
       y2="1922.8527"
       gradientUnits="userSpaceOnUse" />
    <linearGradient
       inkscape:collect="always"
       xlink:href="#linearGradient1265"
       id="linearGradient1291"
       x1="2284.647"
       y1="2273.7899"
       x2="3838.3951"
       y2="2273.7899"
       gradientUnits="userSpaceOnUse" />
    <linearGradient
       inkscape:collect="always"
       xlink:href="#linearGradient1265"
       id="linearGradient1293"
       x1="754.56821"
       y1="724.69533"
       x2="4369.4406"
       y2="724.69533"
       gradientUnits="userSpaceOnUse" />
  </defs>
  <sodipodi:namedview
     pagecolor="#ffffff"
     bordercolor="#666666"
     borderopacity="1"
     objecttolerance="10"
     gridtolerance="10"
     guidetolerance="10"
     inkscape:pageopacity="0"
     inkscape:pageshadow="2"
     inkscape:window-width="1366"
     inkscape:window-height="705"
     id="namedview308"
     showgrid="false"
     inkscape:zoom="0.39404297"
     inkscape:cx="-25.697928"
     inkscape:cy="361.32377"
     inkscape:window-x="-8"
     inkscape:window-y="-8"
     inkscape:window-maximized="1"
     inkscape:current-layer="svg306" />
  <g
     transform="translate(0.000000,512.000000) scale(0.100000,-0.100000)"
     fill="#fefefe"
     stroke="none"
     id="g6"
     style="stroke:#000000;stroke-opacity:1;stroke-width:37.49999888;stroke-miterlimit:4;stroke-dasharray:none" />
  <g
     transform="translate(0.000000,512.000000) scale(0.100000,-0.100000)"
     fill="#994234"
     stroke="none"
     id="g44"
     style="stroke:url(#linearGradient1267);stroke-opacity:1;stroke-width:18.74999944;stroke-miterlimit:4;stroke-dasharray:4.68749986, 4.68749985999999996;stroke-dashoffset:0">
    <path
       d="M583 3913 c-3 -10 -21 -38 -38 -63 -824 -1157 -446 -2817 805 -3533 214 -123 639 -282 640 -239 1 40 -78 226 -100 235 -150 60 -231 130 -272 236 -13 34 -29 61 -35 61 -17 0 -16 -11 6 -71 23 -59 22 -59 -108 40 -680 514 -903 1451 -526 2203 45 89 61 24 -156 633 -176 492 -199 545 -216 498z"
       id="path8"
       style="stroke:url(#linearGradient1267);stroke-opacity:1;stroke-width:18.74999944;stroke-miterlimit:4;stroke-dasharray:4.68749986, 4.68749985999999996;stroke-dashoffset:0" />
    <path
       d="M4421 3694 c-84 -235 -84 -235 -52 -302 96 -199 13 -438 -182 -522 -62 -27 -65 -31 -40 -60 9 -10 37 -65 61 -122 365 -856 -8 -1861 -849 -2285 -52 -26 -103 -46 -114 -45 -18 1 -116 -239 -115 -285 0 -40 438 127 647 247 1234 709 1611 2316 821 3495 -30 44 -57 88 -61 98 -16 43 -36 6 -116 -219z"
       id="path10"
       style="stroke:url(#linearGradient1267);stroke-opacity:1;stroke-width:18.74999944;stroke-miterlimit:4;stroke-dasharray:4.68749986, 4.68749985999999996;stroke-dashoffset:0" />
    <path
       d="M4046 2658 c-9 -34 -8 -38 9 -38 8 0 15 3 15 8 0 4 3 17 6 30 5 16 2 22 -9 22 -8 0 -17 -10 -21 -22z"
       id="path12"
       style="stroke:url(#linearGradient1267);stroke-opacity:1;stroke-width:18.74999944;stroke-miterlimit:4;stroke-dasharray:4.68749986, 4.68749985999999996;stroke-dashoffset:0" />
    <path
       d="M3996 2518 c-9 -34 -8 -38 9 -38 8 0 15 3 15 8 0 4 3 17 6 30 5 16 2 22 -9 22 -8 0 -17 -10 -21 -22z"
       id="path14"
       style="stroke:url(#linearGradient1267);stroke-opacity:1;stroke-width:18.74999944;stroke-miterlimit:4;stroke-dasharray:4.68749986, 4.68749985999999996;stroke-dashoffset:0" />
    <path
       d="M1104 2488 c3 -13 6 -26 6 -30 0 -5 7 -8 15 -8 17 0 18 4 9 38 -4 12 -13 22 -21 22 -11 0 -14 -6 -9 -22z"
       id="path16"
       style="stroke:url(#linearGradient1267);stroke-opacity:1;stroke-width:18.74999944;stroke-miterlimit:4;stroke-dasharray:4.68749986, 4.68749985999999996;stroke-dashoffset:0" />
    <path
       d="M3946 2378 c-9 -34 -8 -38 9 -38 8 0 15 3 15 8 0 4 3 17 6 30 5 16 2 22 -9 22 -8 0 -17 -10 -21 -22z"
       id="path18"
       style="stroke:url(#linearGradient1267);stroke-opacity:1;stroke-width:18.74999944;stroke-miterlimit:4;stroke-dasharray:4.68749986, 4.68749985999999996;stroke-dashoffset:0" />
    <path
       d="M3856 2128 c-9 -34 -8 -38 9 -38 8 0 15 3 15 8 0 4 3 17 6 30 5 16 2 22 -9 22 -8 0 -17 -10 -21 -22z"
       id="path20"
       style="stroke:url(#linearGradient1267);stroke-opacity:1;stroke-width:18.74999944;stroke-miterlimit:4;stroke-dasharray:4.68749986, 4.68749985999999996;stroke-dashoffset:0" />
    <path
       d="M3806 1988 c-9 -34 -8 -38 9 -38 8 0 15 3 15 8 0 4 3 17 6 30 5 16 2 22 -9 22 -8 0 -17 -10 -21 -22z"
       id="path22"
       style="stroke:url(#linearGradient1267);stroke-opacity:1;stroke-width:18.74999944;stroke-miterlimit:4;stroke-dasharray:4.68749986, 4.68749985999999996;stroke-dashoffset:0" />
    <path
       d="M1294 1958 c3 -13 6 -26 6 -30 0 -5 7 -8 15 -8 17 0 18 4 9 38 -4 12 -13 22 -21 22 -11 0 -14 -6 -9 -22z"
       id="path24"
       style="stroke:url(#linearGradient1267);stroke-opacity:1;stroke-width:18.74999944;stroke-miterlimit:4;stroke-dasharray:4.68749986, 4.68749985999999996;stroke-dashoffset:0" />
    <path
       d="M3790 1895 c0 -16 6 -25 15 -25 9 0 15 9 15 25 0 16 -6 25 -15 25 -9 0 -15 -9 -15 -25z"
       id="path26"
       style="stroke:url(#linearGradient1267);stroke-opacity:1;stroke-width:18.74999944;stroke-miterlimit:4;stroke-dasharray:4.68749986, 4.68749985999999996;stroke-dashoffset:0" />
    <path
       d="M3790 1745 c0 -16 6 -25 15 -25 9 0 15 9 15 25 0 16 -6 25 -15 25 -9 0 -15 -9 -15 -25z"
       id="path28"
       style="stroke:url(#linearGradient1267);stroke-opacity:1;stroke-width:18.74999944;stroke-miterlimit:4;stroke-dasharray:4.68749986, 4.68749985999999996;stroke-dashoffset:0" />
    <path
       d="M3780 1698 c0 -20 -64 -153 -77 -161 -18 -11 -16 -37 3 -37 9 0 18 9 21 20 3 11 9 20 13 20 8 0 55 102 65 143 6 21 4 27 -9 27 -9 0 -16 -5 -16 -12z"
       id="path30"
       style="stroke:url(#linearGradient1267);stroke-opacity:1;stroke-width:18.74999944;stroke-miterlimit:4;stroke-dasharray:4.68749986, 4.68749985999999996;stroke-dashoffset:0" />
    <path
       d="M1484 1428 c3 -13 6 -26 6 -30 0 -5 7 -8 15 -8 17 0 18 4 9 38 -4 12 -13 22 -21 22 -11 0 -14 -6 -9 -22z"
       id="path32"
       style="stroke:url(#linearGradient1267);stroke-opacity:1;stroke-width:18.74999944;stroke-miterlimit:4;stroke-dasharray:4.68749986, 4.68749985999999996;stroke-dashoffset:0" />
    <path
       d="M3566 1318 c-9 -34 -8 -38 9 -38 8 0 15 3 15 8 0 4 3 17 6 30 5 16 2 22 -9 22 -8 0 -17 -10 -21 -22z"
       id="path34"
       style="stroke:url(#linearGradient1267);stroke-opacity:1;stroke-width:18.74999944;stroke-miterlimit:4;stroke-dasharray:4.68749986, 4.68749985999999996;stroke-dashoffset:0" />
    <path
       d="M1650 955 c0 -8 -4 -15 -10 -15 -5 0 -10 -7 -10 -15 0 -8 -4 -15 -9 -15 -9 0 -51 -100 -51 -120 0 -32 29 0 49 55 14 36 29 65 33 65 4 0 8 7 8 15 0 8 5 15 10 15 6 0 10 7 10 15 0 8 -7 15 -15 15 -8 0 -15 -7 -15 -15z"
       id="path36"
       style="stroke:url(#linearGradient1267);stroke-opacity:1;stroke-width:18.74999944;stroke-miterlimit:4;stroke-dasharray:4.68749986, 4.68749985999999996;stroke-dashoffset:0" />
    <path
       d="M3366 758 c-9 -34 -8 -38 9 -38 8 0 15 3 15 8 0 4 3 17 6 30 5 16 2 22 -9 22 -8 0 -17 -10 -21 -22z"
       id="path38"
       style="stroke:url(#linearGradient1267);stroke-opacity:1;stroke-width:18.74999944;stroke-miterlimit:4;stroke-dasharray:4.68749986, 4.68749985999999996;stroke-dashoffset:0" />
    <path
       d="M1560 735 c0 -16 6 -25 15 -25 9 0 15 9 15 25 0 16 -6 25 -15 25 -9 0 -15 -9 -15 -25z"
       id="path40"
       style="stroke:url(#linearGradient1267);stroke-opacity:1;stroke-width:18.74999944;stroke-miterlimit:4;stroke-dasharray:4.68749986, 4.68749985999999996;stroke-dashoffset:0" />
    <path
       d="M1560 655 c0 -16 6 -25 15 -25 9 0 15 9 15 25 0 16 -6 25 -15 25 -9 0 -15 -9 -15 -25z"
       id="path42"
       style="stroke:url(#linearGradient1267);stroke-opacity:1;stroke-width:18.74999944;stroke-miterlimit:4;stroke-dasharray:4.68749986, 4.68749985999999996;stroke-dashoffset:0" />
  </g>
  <g
     transform="translate(0.000000,512.000000) scale(0.100000,-0.100000)"
     fill="#fecf0d"
     stroke="none"
     id="g48"
     style="stroke:url(#linearGradient1269);stroke-opacity:1;stroke-width:18.74999944;stroke-miterlimit:4;stroke-dasharray:4.68749986, 4.68749985999999996;stroke-dashoffset:0">
    <path
       d="M2240 4393 c-366 -27 -920 -141 -920 -190 0 -20 154 -460 165 -471 2 -3 36 12 74 32 396 208 773 -310 453 -622 -46 -44 -150 -102 -185 -102 -47 0 -37 -28 112 -318 109 -210 99 -203 195 -122 80 68 80 69 1 120 -94 59 -105 110 -36 159 201 144 475 43 537 -198 41 -164 -26 -240 -149 -166 -88 53 -84 56 -126 -111 -21 -78 -75 -100 -147 -60 -91 51 -87 29 28 -153 164 -261 192 -298 235 -304 71 -12 128 -92 118 -164 -7 -48 95 -174 330 -408 243 -244 539 -463 524 -388 -1 4 5 25 14 45 10 21 19 45 20 55 2 10 10 32 16 48 14 31 40 102 41 110 0 3 7 20 15 40 8 19 17 45 19 57 3 13 5 24 7 26 1 1 2 5 4 10 1 4 9 24 18 44 30 67 17 74 -54 33 -377 -217 -837 152 -709 567 114 368 591 470 840 180 42 -49 100 -158 100 -186 0 -20 34 -18 36 2 1 6 3 14 4 17 1 3 3 8 5 13 1 4 9 24 18 44 10 21 19 48 21 60 3 13 5 24 7 26 1 1 2 5 4 10 1 4 9 24 18 44 10 21 19 45 21 55 1 10 10 35 20 55 9 21 18 48 20 60 3 13 5 24 7 26 1 1 2 5 4 10 1 4 9 24 18 44 10 21 19 48 21 60 3 13 5 24 7 26 1 1 2 5 4 10 1 4 9 24 18 44 10 21 19 48 21 60 3 13 5 24 7 26 1 1 2 5 4 10 1 4 9 24 18 44 10 21 18 46 20 57 2 11 6 24 10 27 29 29 6 43 -70 43 -435 -1 -566 561 -175 747 141 67 308 35 434 -85 23 -21 41 -31 47 -26 9 11 173 466 169 470 -25 22 -305 146 -468 207 -518 194 -1237 294 -1810 251z m-365 -215 c77 -35 58 -168 -24 -168 -102 0 -130 132 -36 171 27 11 30 11 60 -3z m1307 -44 c37 -34 25 -109 -21 -134 -78 -41 -164 55 -110 123 37 48 85 52 131 11z m-729 -62 c23 -20 22 -54 -3 -94 -40 -66 -27 -113 55 -193 91 -88 107 -209 42 -307 -67 -99 -180 -39 -118 63 41 67 30 107 -52 189 -94 94 -110 212 -41 314 38 55 74 64 117 28z m1340 -103 c50 -54 22 -122 -73 -171 -54 -29 -54 -29 -67 -4 -70 134 44 279 140 175z m-943 11 c55 -55 -24 -136 -82 -83 -25 23 -23 68 4 87 30 21 54 20 78 -4z m1335 -175 c14 -13 25 -31 25 -40 0 -9 -11 -27 -25 -40 -13 -14 -31 -25 -40 -25 -9 0 -27 11 -40 25 -14 13 -25 31 -25 40 0 9 11 27 25 40 13 14 31 25 40 25 9 0 27 -11 40 -25z m-970 -36 c109 -30 135 -110 49 -151 -55 -27 -55 -39 1 -99 67 -71 61 -91 -42 -143 -85 -42 -115 -30 -128 54 -13 91 -18 94 -86 60 -122 -63 -131 130 -10 231 65 56 134 71 216 48z m-654 -530 c48 -48 -14 -133 -68 -92 -50 36 -31 113 27 113 11 0 29 -9 41 -21z m292 -129 c33 -26 41 -63 22 -100 -30 -58 -90 -67 -136 -21 -75 75 30 187 114 121z m473 -221 c137 -97 135 -87 36 -225 -95 -131 -86 -130 -224 -30 -129 92 -127 84 -37 211 107 150 83 145 225 44z m455 -288 c65 -65 0 -175 -82 -140 -87 35 -66 169 26 169 16 0 38 -12 56 -29z m-1096 -348 c50 -50 9 -143 -63 -143 -89 0 -112 130 -30 165 38 15 60 10 93 -22z"
       id="path46"
       style="stroke:url(#linearGradient1269);stroke-opacity:1;stroke-width:18.74999944;stroke-miterlimit:4;stroke-dasharray:4.68749986, 4.68749985999999996;stroke-dashoffset:0" />
  </g>
  <g
     transform="translate(0.000000,512.000000) scale(0.100000,-0.100000)"
     fill="#feaf10"
     stroke="none"
     id="g104"
     style="stroke:url(#linearGradient1271);stroke-opacity:1;stroke-width:18.74999944;stroke-miterlimit:4;stroke-dasharray:4.68749986, 4.68749985999999996;stroke-dashoffset:0">
    <path
       d="M2450 4400 c0 -6 43 -10 110 -10 67 0 110 4 110 10 0 6 -43 10 -110 10 -67 0 -110 -4 -110 -10z"
       id="path50"
       style="stroke:url(#linearGradient1271);stroke-opacity:1;stroke-width:18.74999944;stroke-miterlimit:4;stroke-dasharray:4.68749986, 4.68749985999999996;stroke-dashoffset:0" />
    <path
       d="M2240 4390 c0 -5 13 -10 29 -10 17 0 33 5 36 10 4 6 -8 10 -29 10 -20 0 -36 -4 -36 -10z"
       id="path52"
       style="stroke:url(#linearGradient1271);stroke-opacity:1;stroke-width:18.74999944;stroke-miterlimit:4;stroke-dasharray:4.68749986, 4.68749985999999996;stroke-dashoffset:0" />
    <path
       d="M2815 4390 c3 -5 19 -10 36 -10 16 0 29 5 29 10 0 6 -16 10 -36 10 -21 0 -33 -4 -29 -10z"
       id="path54"
       style="stroke:url(#linearGradient1271);stroke-opacity:1;stroke-width:18.74999944;stroke-miterlimit:4;stroke-dasharray:4.68749986, 4.68749985999999996;stroke-dashoffset:0" />
    <path
       d="M1415 4256 c-244 -71 -770 -278 -812 -320 -2 -2 79 -235 180 -517 101 -283 195 -549 207 -591 13 -43 26 -78 30 -78 4 0 7 -6 6 -12 -1 -15 34 -121 43 -128 3 -3 6 -9 6 -15 1 -22 29 -95 36 -95 5 0 6 -7 3 -15 -4 -8 -1 -15 5 -15 6 0 10 -3 9 -7 -4 -13 24 -103 32 -103 4 0 7 -6 6 -12 -1 -15 34 -121 43 -128 3 -3 6 -9 6 -15 0 -15 37 -119 44 -125 3 -3 6 -9 6 -15 1 -22 29 -95 36 -95 5 0 6 -7 3 -15 -4 -8 -1 -15 5 -15 6 0 10 -3 9 -7 -4 -13 24 -103 32 -103 4 0 7 -6 6 -12 -1 -15 34 -121 43 -128 3 -3 6 -9 6 -15 0 -15 37 -119 44 -125 3 -3 6 -9 6 -15 1 -22 29 -95 36 -95 5 0 6 -7 3 -15 -4 -8 -1 -15 6 -15 6 0 9 -4 6 -9 -5 -8 22 -90 34 -101 3 -3 5 -9 5 -15 0 -15 37 -119 44 -125 3 -3 6 -9 6 -15 1 -23 39 -125 47 -125 5 0 6 -4 3 -10 -28 -45 28 -57 78 -16 388 313 875 -224 522 -575 -77 -78 -216 -129 -305 -114 -22 4 -40 5 -40 3 0 -3 18 -56 41 -119 22 -63 40 -116 39 -119 -1 -3 46 -15 104 -27 289 -58 635 -59 941 -2 110 20 110 20 149 132 21 62 42 121 46 132 4 11 8 24 8 29 0 5 5 12 10 15 9 6 47 107 47 126 0 6 3 12 6 15 9 7 44 113 43 128 -1 6 2 12 6 12 8 0 36 90 32 103 -1 4 3 7 9 7 6 0 9 7 5 15 -3 8 -2 15 3 15 9 0 37 89 33 103 -1 4 3 7 8 7 6 0 10 12 10 27 0 14 -3 23 -6 20 -8 -8 -149 88 -264 180 -113 90 -363 341 -480 482 -94 113 -94 113 -109 90 -40 -63 -169 -149 -223 -149 -27 0 -62 125 -56 201 6 83 70 159 134 159 22 0 20 6 -34 83 -99 139 -244 376 -238 386 4 6 -18 26 -48 45 -67 43 -81 66 -67 109 6 17 8 33 3 36 -23 16 -246 457 -238 470 3 5 -34 10 -82 13 -338 16 -504 411 -275 655 40 43 40 43 -43 270 -103 282 -103 254 6 283 50 12 93 27 96 31 8 13 -13 10 -101 -15z m-261 -457 c24 -44 9 -82 -42 -112 -66 -39 -147 36 -118 108 29 72 121 75 160 4z m-116 -276 c31 -28 35 -56 11 -86 -47 -61 -138 -4 -103 65 21 41 59 49 92 21z m310 -638 c51 -43 48 -99 -7 -142 -57 -44 -153 30 -129 100 23 64 87 84 136 42z m376 -136 c39 -31 33 -76 -14 -106 -73 -46 -72 -44 -66 -156 9 -145 -50 -242 -160 -263 -100 -19 -112 86 -15 138 40 22 55 59 41 107 -32 117 18 233 125 282 51 24 57 23 89 -2z m206 -599 c46 -24 45 -86 0 -110 -68 -37 -130 70 -63 109 23 13 40 14 63 1z m-191 -261 c48 -45 47 -97 -5 -138 -46 -36 -112 -14 -134 45 -19 49 30 114 85 114 18 0 41 -9 54 -21z m299 -351 c49 -107 52 -99 -56 -149 -105 -48 -104 -49 -152 57 -51 110 -55 98 52 148 112 53 105 56 156 -56z m759 -239 c113 -42 134 -105 51 -149 -59 -31 -59 -41 -3 -101 67 -71 61 -91 -42 -143 -85 -42 -115 -30 -128 54 -13 91 -15 92 -90 60 -109 -47 -130 110 -28 215 64 66 164 93 240 64z m337 -570 c42 -49 29 -107 -31 -138 -47 -24 -123 29 -123 86 0 73 106 109 154 52z m-508 -160 c10 -11 23 -35 29 -52 10 -31 13 -32 75 -38 116 -10 200 -85 200 -179 0 -90 -103 -94 -133 -5 -14 40 -14 40 -78 46 -117 10 -199 82 -199 174 0 65 65 99 106 54z m-144 -326 c45 -52 2 -128 -62 -108 -64 20 -48 125 20 125 15 0 34 -8 42 -17z"
       id="path56"
       style="stroke:url(#linearGradient1271);stroke-opacity:1;stroke-width:18.74999944;stroke-miterlimit:4;stroke-dasharray:4.68749986, 4.68749985999999996;stroke-dashoffset:0" />
    <path
       d="M3646 4261 c5 -5 45 -19 89 -31 43 -12 85 -24 92 -27 7 -3 13 -1 13 5 0 5 -42 21 -93 36 -101 28 -116 31 -101 17z"
       id="path58"
       style="stroke:url(#linearGradient1271);stroke-opacity:1;stroke-width:18.74999944;stroke-miterlimit:4;stroke-dasharray:4.68749986, 4.68749985999999996;stroke-dashoffset:0" />
    <path
       d="M3856 4201 c7 -7 99 -41 111 -41 22 0 -9 20 -50 33 -60 19 -75 21 -61 8z"
       id="path60"
       style="stroke:url(#linearGradient1271);stroke-opacity:1;stroke-width:18.74999944;stroke-miterlimit:4;stroke-dasharray:4.68749986, 4.68749985999999996;stroke-dashoffset:0" />
    <path
       d="M1810 4193 c-57 -21 -84 -91 -54 -141 34 -59 108 -70 155 -23 73 73 -5 199 -101 164z"
       id="path62"
       style="stroke:url(#linearGradient1271);stroke-opacity:1;stroke-width:18.74999944;stroke-miterlimit:4;stroke-dasharray:4.68749986, 4.68749985999999996;stroke-dashoffset:0" />
    <path
       d="M3084 4170 c-100 -41 -71 -190 37 -190 66 0 113 64 92 126 -16 49 -84 83 -129 64z"
       id="path64"
       style="stroke:url(#linearGradient1271);stroke-opacity:1;stroke-width:18.74999944;stroke-miterlimit:4;stroke-dasharray:4.68749986, 4.68749985999999996;stroke-dashoffset:0" />
    <path
       d="M3995 4153 c6 -5 39 -20 75 -33 36 -12 105 -40 154 -61 78 -34 128 -45 86 -19 -53 33 -338 135 -315 113z"
       id="path66"
       style="stroke:url(#linearGradient1271);stroke-opacity:1;stroke-width:18.74999944;stroke-miterlimit:4;stroke-dasharray:4.68749986, 4.68749985999999996;stroke-dashoffset:0" />
    <path
       d="M4340 4015 c0 -9 162 -86 168 -81 7 8 6 9 -75 50 -69 34 -93 42 -93 31z"
       id="path68"
       style="stroke:url(#linearGradient1271);stroke-opacity:1;stroke-width:18.74999944;stroke-miterlimit:4;stroke-dasharray:4.68749986, 4.68749985999999996;stroke-dashoffset:0" />
    <path
       d="M2761 3992 c-30 -23 -31 -76 -3 -104 45 -46 122 -15 122 49 0 63 -70 96 -119 55z"
       id="path70"
       style="stroke:url(#linearGradient1271);stroke-opacity:1;stroke-width:18.74999944;stroke-miterlimit:4;stroke-dasharray:4.68749986, 4.68749985999999996;stroke-dashoffset:0" />
    <path
       d="M4095 3815 c-14 -13 -25 -36 -25 -50 0 -14 11 -37 25 -50 13 -14 36 -25 50 -25 14 0 37 11 50 25 14 13 25 36 25 50 0 14 -11 37 -25 50 -13 14 -36 25 -50 25 -14 0 -37 -11 -50 -25z"
       id="path72"
       style="stroke:url(#linearGradient1271);stroke-opacity:1;stroke-width:18.74999944;stroke-miterlimit:4;stroke-dasharray:4.68749986, 4.68749985999999996;stroke-dashoffset:0" />
    <path
       d="M2080 3623 c0 -17 36 -93 43 -93 10 0 1 33 -20 73 -13 26 -23 35 -23 20z"
       id="path74"
       style="stroke:url(#linearGradient1271);stroke-opacity:1;stroke-width:18.74999944;stroke-miterlimit:4;stroke-dasharray:4.68749986, 4.68749985999999996;stroke-dashoffset:0" />
    <path
       d="M4200 3570 c0 -5 7 -10 15 -10 8 0 15 -4 15 -10 0 -5 5 -10 11 -10 7 0 17 -7 24 -16 6 -9 18 -15 25 -12 9 3 -4 16 -32 36 -50 34 -58 37 -58 22z"
       id="path76"
       style="stroke:url(#linearGradient1271);stroke-opacity:1;stroke-width:18.74999944;stroke-miterlimit:4;stroke-dasharray:4.68749986, 4.68749985999999996;stroke-dashoffset:0" />
    <path
       d="M2470 3250 c-65 -65 22 -166 94 -109 52 41 23 129 -44 129 -17 0 -39 -9 -50 -20z"
       id="path78"
       style="stroke:url(#linearGradient1271);stroke-opacity:1;stroke-width:18.74999944;stroke-miterlimit:4;stroke-dasharray:4.68749986, 4.68749985999999996;stroke-dashoffset:0" />
    <path
       d="M2015 3150 c-10 -11 -15 -23 -12 -27 8 -7 47 25 47 39 0 14 -16 9 -35 -12z"
       id="path80"
       style="stroke:url(#linearGradient1271);stroke-opacity:1;stroke-width:18.74999944;stroke-miterlimit:4;stroke-dasharray:4.68749986, 4.68749985999999996;stroke-dashoffset:0" />
    <path
       d="M2773 3143 c-35 -7 -73 -59 -73 -100 0 -80 109 -125 165 -69 73 73 10 188 -92 169z"
       id="path82"
       style="stroke:url(#linearGradient1271);stroke-opacity:1;stroke-width:18.74999944;stroke-miterlimit:4;stroke-dasharray:4.68749986, 4.68749985999999996;stroke-dashoffset:0" />
    <path
       d="M3210 2970 c0 -5 7 -10 15 -10 8 0 15 -4 15 -10 0 -5 6 -10 14 -10 8 0 16 -5 18 -11 2 -7 10 -10 17 -8 8 3 -3 16 -28 32 -45 30 -51 32 -51 17z"
       id="path84"
       style="stroke:url(#linearGradient1271);stroke-opacity:1;stroke-width:18.74999944;stroke-miterlimit:4;stroke-dasharray:4.68749986, 4.68749985999999996;stroke-dashoffset:0" />
    <path
       d="M3380 2850 c0 -5 5 -10 11 -10 7 0 20 -10 30 -22 11 -11 22 -18 27 -14 4 4 -6 19 -23 32 -32 26 -45 30 -45 14z"
       id="path86"
       style="stroke:url(#linearGradient1271);stroke-opacity:1;stroke-width:18.74999944;stroke-miterlimit:4;stroke-dasharray:4.68749986, 4.68749985999999996;stroke-dashoffset:0" />
    <path
       d="M3659 2611 c-75 -76 4 -201 102 -161 97 40 68 190 -36 190 -27 0 -44 -8 -66 -29z"
       id="path88"
       style="stroke:url(#linearGradient1271);stroke-opacity:1;stroke-width:18.74999944;stroke-miterlimit:4;stroke-dasharray:4.68749986, 4.68749985999999996;stroke-dashoffset:0" />
    <path
       d="M3320 2605 c0 -8 -4 -15 -10 -15 -5 0 -10 -7 -10 -15 0 -8 -7 -15 -15 -15 -8 0 -15 -4 -15 -10 0 -20 19 -9 44 23 28 37 32 47 16 47 -5 0 -10 -7 -10 -15z"
       id="path90"
       style="stroke:url(#linearGradient1271);stroke-opacity:1;stroke-width:18.74999944;stroke-miterlimit:4;stroke-dasharray:4.68749986, 4.68749985999999996;stroke-dashoffset:0" />
    <path
       d="M2580 2282 c-90 -45 -59 -182 42 -182 111 0 136 151 31 191 -32 12 -32 12 -73 -9z"
       id="path92"
       style="stroke:url(#linearGradient1271);stroke-opacity:1;stroke-width:18.74999944;stroke-miterlimit:4;stroke-dasharray:4.68749986, 4.68749985999999996;stroke-dashoffset:0" />
    <path
       d="M3490 2282 c0 -5 19 -17 43 -28 23 -10 45 -22 48 -27 4 -5 13 -7 20 -5 8 3 -9 18 -41 36 -58 33 -70 37 -70 24z"
       id="path94"
       style="stroke:url(#linearGradient1271);stroke-opacity:1;stroke-width:18.74999944;stroke-miterlimit:4;stroke-dasharray:4.68749986, 4.68749985999999996;stroke-dashoffset:0" />
    <path
       d="M3620 2199 c0 -6 9 -13 20 -16 11 -3 20 -11 20 -18 0 -16 28 -40 37 -31 7 7 -56 76 -69 76 -4 0 -8 -5 -8 -11z"
       id="path96"
       style="stroke:url(#linearGradient1271);stroke-opacity:1;stroke-width:18.74999944;stroke-miterlimit:4;stroke-dasharray:4.68749986, 4.68749985999999996;stroke-dashoffset:0" />
    <path
       d="M2840 1635 c0 -14 32 -66 37 -61 8 7 -17 66 -28 66 -5 0 -9 -2 -9 -5z"
       id="path98"
       style="stroke:url(#linearGradient1271);stroke-opacity:1;stroke-width:18.74999944;stroke-miterlimit:4;stroke-dasharray:4.68749986, 4.68749985999999996;stroke-dashoffset:0" />
    <path
       d="M2930 1492 c0 -13 49 -56 56 -49 4 3 -4 18 -17 32 -24 25 -39 32 -39 17z"
       id="path100"
       style="stroke:url(#linearGradient1271);stroke-opacity:1;stroke-width:18.74999944;stroke-miterlimit:4;stroke-dasharray:4.68749986, 4.68749985999999996;stroke-dashoffset:0" />
    <path
       d="M3590 1420 c0 -5 -7 -10 -15 -10 -8 0 -15 -4 -15 -10 0 -13 17 -13 25 1 4 6 13 8 21 5 8 -3 14 1 14 9 0 8 -7 15 -15 15 -8 0 -15 -4 -15 -10z"
       id="path102"
       style="stroke:url(#linearGradient1271);stroke-opacity:1;stroke-width:18.74999944;stroke-miterlimit:4;stroke-dasharray:4.68749986, 4.68749985999999996;stroke-dashoffset:0" />
  </g>
  <g
     transform="translate(0.000000,512.000000) scale(0.100000,-0.100000)"
     fill="#ef8318"
     stroke="none"
     id="g154"
     style="stroke:url(#linearGradient1273);stroke-opacity:1;stroke-width:18.74999944;stroke-miterlimit:4;stroke-dasharray:4.68749986, 4.68749985999999996;stroke-dashoffset:0">
    <path
       d="M2220 5114 c-571 -49 -1090 -160 -1194 -255 -220 -201 -112 -598 177 -647 41 -7 41 -7 -36 -31 -42 -14 -77 -28 -77 -33 0 -13 10 -11 161 41 727 249 1614 273 2409 65 288 -75 765 -260 850 -328 25 -21 94 -36 163 -36 299 0 443 350 249 605 -170 224 -1066 516 -1857 606 -96 10 -752 21 -845 13z"
       id="path106"
       style="stroke:url(#linearGradient1273);stroke-opacity:1;stroke-width:18.74999944;stroke-miterlimit:4;stroke-dasharray:4.68749986, 4.68749985999999996;stroke-dashoffset:0" />
    <path
       d="M1003 4122 c-24 -9 -43 -20 -43 -24 0 -12 14 -10 64 12 74 31 56 42 -21 12z"
       id="path108"
       style="stroke:url(#linearGradient1273);stroke-opacity:1;stroke-width:18.74999944;stroke-miterlimit:4;stroke-dasharray:4.68749986, 4.68749985999999996;stroke-dashoffset:0" />
    <path
       d="M868 4068 c-27 -11 -48 -25 -48 -30 0 -5 4 -8 8 -6 4 2 31 12 60 22 29 11 52 24 52 28 0 12 -20 8 -72 -14z"
       id="path110"
       style="stroke:url(#linearGradient1273);stroke-opacity:1;stroke-width:18.74999944;stroke-miterlimit:4;stroke-dasharray:4.68749986, 4.68749985999999996;stroke-dashoffset:0" />
    <path
       d="M743 4013 c-27 -14 -51 -43 -25 -31 4 2 24 10 45 18 20 8 37 18 37 22 0 12 -21 9 -57 -9z"
       id="path112"
       style="stroke:url(#linearGradient1273);stroke-opacity:1;stroke-width:18.74999944;stroke-miterlimit:4;stroke-dasharray:4.68749986, 4.68749985999999996;stroke-dashoffset:0" />
    <path
       d="M1032 3855 c-71 -31 -76 -135 -8 -176 41 -25 66 -24 107 4 104 70 17 222 -99 172z"
       id="path114"
       style="stroke:url(#linearGradient1273);stroke-opacity:1;stroke-width:18.74999944;stroke-miterlimit:4;stroke-dasharray:4.68749986, 4.68749985999999996;stroke-dashoffset:0" />
    <path
       d="M1407 3650 c-19 -28 -21 -40 -7 -40 6 0 10 6 10 14 0 8 5 16 12 18 6 2 9 10 6 18 -3 10 -9 7 -21 -10z"
       id="path116"
       style="stroke:url(#linearGradient1273);stroke-opacity:1;stroke-width:18.74999944;stroke-miterlimit:4;stroke-dasharray:4.68749986, 4.68749985999999996;stroke-dashoffset:0" />
    <path
       d="M4170 3581 c0 -11 59 -36 66 -28 3 3 -8 13 -25 21 -35 18 -41 19 -41 7z"
       id="path118"
       style="stroke:url(#linearGradient1273);stroke-opacity:1;stroke-width:18.74999944;stroke-miterlimit:4;stroke-dasharray:4.68749986, 4.68749985999999996;stroke-dashoffset:0" />
    <path
       d="M962 3543 c-21 -8 -43 -61 -36 -88 14 -58 97 -75 134 -28 50 64 -20 148 -98 116z"
       id="path120"
       style="stroke:url(#linearGradient1273);stroke-opacity:1;stroke-width:18.74999944;stroke-miterlimit:4;stroke-dasharray:4.68749986, 4.68749985999999996;stroke-dashoffset:0" />
    <path
       d="M3132 2911 c-18 -25 -19 -31 -7 -31 8 0 15 6 15 14 0 8 5 16 12 18 6 2 9 10 7 17 -3 7 -13 0 -27 -18z"
       id="path122"
       style="stroke:url(#linearGradient1273);stroke-opacity:1;stroke-width:18.74999944;stroke-miterlimit:4;stroke-dasharray:4.68749986, 4.68749985999999996;stroke-dashoffset:0" />
    <path
       d="M1237 2900 c-78 -61 -37 -181 62 -180 40 1 59 12 85 52 56 85 -67 191 -147 128z"
       id="path124"
       style="stroke:url(#linearGradient1273);stroke-opacity:1;stroke-width:18.74999944;stroke-miterlimit:4;stroke-dasharray:4.68749986, 4.68749985999999996;stroke-dashoffset:0" />
    <path
       d="M3082 2841 c-18 -25 -19 -31 -7 -31 8 0 15 6 15 14 0 8 5 16 12 18 6 2 9 10 7 17 -3 7 -13 0 -27 -18z"
       id="path126"
       style="stroke:url(#linearGradient1273);stroke-opacity:1;stroke-width:18.74999944;stroke-miterlimit:4;stroke-dasharray:4.68749986, 4.68749985999999996;stroke-dashoffset:0" />
    <path
       d="M2950 2175 c-20 -21 -28 -35 -19 -35 18 0 62 46 57 60 -2 6 -19 -5 -38 -25z"
       id="path128"
       style="stroke:url(#linearGradient1273);stroke-opacity:1;stroke-width:18.74999944;stroke-miterlimit:4;stroke-dasharray:4.68749986, 4.68749985999999996;stroke-dashoffset:0" />
    <path
       d="M1853 2155 c-29 -20 -37 -59 -19 -94 35 -67 127 -50 142 26 12 62 -68 106 -123 68z"
       id="path130"
       style="stroke:url(#linearGradient1273);stroke-opacity:1;stroke-width:18.74999944;stroke-miterlimit:4;stroke-dasharray:4.68749986, 4.68749985999999996;stroke-dashoffset:0" />
    <path
       d="M1621 1899 c-50 -47 -50 -111 1 -154 76 -64 194 15 159 107 -17 44 -50 68 -96 68 -28 0 -48 -7 -64 -21z"
       id="path132"
       style="stroke:url(#linearGradient1273);stroke-opacity:1;stroke-width:18.74999944;stroke-miterlimit:4;stroke-dasharray:4.68749986, 4.68749985999999996;stroke-dashoffset:0" />
    <path
       d="M1937 1634 c-16 -9 -26 -18 -24 -21 8 -7 77 19 77 29 0 12 -22 9 -53 -8z"
       id="path134"
       style="stroke:url(#linearGradient1273);stroke-opacity:1;stroke-width:18.74999944;stroke-miterlimit:4;stroke-dasharray:4.68749986, 4.68749985999999996;stroke-dashoffset:0" />
    <path
       d="M2030 1550 c0 -16 23 -60 32 -60 11 0 10 7 -7 40 -16 30 -25 38 -25 20z"
       id="path136"
       style="stroke:url(#linearGradient1273);stroke-opacity:1;stroke-width:18.74999944;stroke-miterlimit:4;stroke-dasharray:4.68749986, 4.68749985999999996;stroke-dashoffset:0" />
    <path
       d="M2066 1448 c-9 -36 -7 -41 9 -28 16 13 21 50 6 50 -5 0 -11 -10 -15 -22z"
       id="path138"
       style="stroke:url(#linearGradient1273);stroke-opacity:1;stroke-width:18.74999944;stroke-miterlimit:4;stroke-dasharray:4.68749986, 4.68749985999999996;stroke-dashoffset:0" />
    <path
       d="M1963 1388 c-21 -10 -32 -28 -18 -28 10 0 65 30 65 35 0 8 -23 4 -47 -7z"
       id="path140"
       style="stroke:url(#linearGradient1273);stroke-opacity:1;stroke-width:18.74999944;stroke-miterlimit:4;stroke-dasharray:4.68749986, 4.68749985999999996;stroke-dashoffset:0" />
    <path
       d="M1778 1050 c-42 -22 -57 -40 -34 -40 9 0 16 4 16 8 0 4 16 14 35 21 19 7 35 17 35 22 0 13 -10 11 -52 -11z"
       id="path142"
       style="stroke:url(#linearGradient1273);stroke-opacity:1;stroke-width:18.74999944;stroke-miterlimit:4;stroke-dasharray:4.68749986, 4.68749985999999996;stroke-dashoffset:0" />
    <path
       d="M3034 765 c-66 -28 -84 -100 -38 -154 61 -73 173 -34 174 61 0 71 -72 121 -136 93z"
       id="path144"
       style="stroke:url(#linearGradient1273);stroke-opacity:1;stroke-width:18.74999944;stroke-miterlimit:4;stroke-dasharray:4.68749986, 4.68749985999999996;stroke-dashoffset:0" />
    <path
       d="M2360 695 c0 -30 5 -55 10 -55 6 0 10 25 10 55 0 30 -4 55 -10 55 -5 0 -10 -25 -10 -55z"
       id="path146"
       style="stroke:url(#linearGradient1273);stroke-opacity:1;stroke-width:18.74999944;stroke-miterlimit:4;stroke-dasharray:4.68749986, 4.68749985999999996;stroke-dashoffset:0" />
    <path
       d="M2300 486 c0 -8 -5 -16 -11 -18 -7 -2 -10 -10 -7 -18 3 -9 12 -3 27 18 18 26 19 32 7 32 -9 0 -16 -6 -16 -14z"
       id="path148"
       style="stroke:url(#linearGradient1273);stroke-opacity:1;stroke-width:18.74999944;stroke-miterlimit:4;stroke-dasharray:4.68749986, 4.68749985999999996;stroke-dashoffset:0" />
    <path
       d="M2200 380 c0 -5 -7 -10 -15 -10 -8 0 -15 -4 -15 -10 0 -16 16 -12 41 10 20 16 21 19 7 20 -10 0 -18 -4 -18 -10z"
       id="path150"
       style="stroke:url(#linearGradient1273);stroke-opacity:1;stroke-width:18.74999944;stroke-miterlimit:4;stroke-dasharray:4.68749986, 4.68749985999999996;stroke-dashoffset:0" />
    <path
       d="M2388 253 c-55 -63 -4 -149 77 -129 80 20 59 146 -25 146 -23 0 -43 -7 -52 -17z"
       id="path152"
       style="stroke:url(#linearGradient1273);stroke-opacity:1;stroke-width:18.74999944;stroke-miterlimit:4;stroke-dasharray:4.68749986, 4.68749985999999996;stroke-dashoffset:0" />
  </g>
  <g
     transform="translate(0.000000,512.000000) scale(0.100000,-0.100000)"
     fill="#82362b"
     stroke="none"
     id="g160"
     style="stroke:url(#linearGradient1275);stroke-opacity:1;stroke-width:18.74999944;stroke-miterlimit:4;stroke-dasharray:4.68749986, 4.68749985999999996;stroke-dashoffset:0">
    <path
       d="M946 2794 c-366 -741 -176 -1641 459 -2172 95 -80 253 -188 261 -179 9 8 -27 57 -37 51 -5 -3 -6 3 -2 12 4 12 3 15 -5 10 -8 -5 -10 -1 -5 10 4 11 3 15 -4 11 -7 -5 -9 1 -5 15 3 13 1 19 -5 15 -7 -5 -9 1 -5 15 3 12 1 19 -5 15 -5 -4 -8 6 -5 25 3 17 1 28 -5 25 -5 -3 -9 18 -9 48 0 30 4 51 9 48 6 -3 8 8 5 25 -3 19 0 29 5 25 6 -4 8 3 5 15 -4 14 -2 20 5 15 6 -4 8 2 5 15 -4 14 -2 20 5 15 7 -4 8 0 4 11 -5 11 -3 15 5 10 8 -5 9 -2 5 9 -4 10 -2 16 6 14 7 -1 11 6 11 15 -1 10 3 16 9 15 17 -3 17 45 1 70 -8 13 -12 23 -10 23 6 0 -31 110 -43 124 -4 6 -11 25 -14 43 -4 18 -14 49 -23 70 -9 21 -19 46 -20 56 -2 10 -11 34 -21 55 -9 20 -17 40 -18 45 -2 4 -3 8 -4 10 -2 1 -4 12 -7 25 -2 12 -11 38 -19 57 -8 20 -14 36 -14 38 -1 13 -44 123 -52 133 -6 8 -9 14 -6 14 6 0 -27 103 -40 123 -4 6 -8 14 -8 17 -2 24 -29 100 -36 100 -5 0 -8 3 -8 8 1 4 1 9 -1 12 -1 3 -3 15 -6 28 -2 12 -11 38 -19 57 -8 20 -14 36 -14 38 -1 13 -44 123 -52 133 -6 8 -9 14 -6 14 6 0 -27 103 -40 123 -4 6 -8 14 -8 17 -2 24 -29 100 -36 100 -5 0 -8 3 -8 8 1 4 1 9 -1 12 -1 3 -3 15 -6 28 -2 12 -11 39 -20 60 -8 20 -15 39 -16 42 -2 14 -38 112 -45 123 -4 6 -8 17 -9 24 -3 16 -35 113 -38 113 -1 0 -19 -34 -40 -76z"
       id="path156"
       style="stroke:url(#linearGradient1275);stroke-opacity:1;stroke-width:18.74999944;stroke-miterlimit:4;stroke-dasharray:4.68749986, 4.68749985999999996;stroke-dashoffset:0" />
    <path
       d="M4112 2828 c-3 -32 -7 -53 -12 -58 -12 -11 -39 -93 -34 -101 3 -5 0 -9 -6 -9 -7 0 -10 -7 -6 -15 3 -8 2 -15 -3 -15 -9 0 -36 -77 -34 -97 0 -7 -4 -13 -9 -13 -6 0 -8 -7 -4 -15 3 -8 2 -15 -3 -15 -9 0 -36 -77 -34 -97 0 -7 -4 -13 -9 -13 -6 0 -8 -7 -4 -15 3 -8 2 -15 -3 -15 -7 0 -35 -73 -36 -95 0 -5 -2 -12 -5 -15 -12 -11 -39 -93 -34 -101 3 -5 0 -9 -6 -9 -7 0 -10 -7 -6 -15 3 -8 2 -15 -3 -15 -9 0 -36 -77 -34 -97 0 -7 -4 -13 -9 -13 -6 0 -8 -6 -5 -14 3 -8 -1 -17 -9 -20 -8 -3 -14 -17 -14 -31 0 -15 3 -24 8 -22 4 3 7 -35 7 -83 0 -49 -4 -86 -9 -83 -5 3 -7 -6 -4 -20 3 -16 1 -24 -5 -20 -6 4 -8 -2 -5 -15 4 -14 2 -20 -5 -15 -6 4 -8 -2 -5 -15 4 -14 2 -20 -5 -15 -7 4 -8 0 -4 -11 4 -9 3 -15 -2 -12 -11 7 -23 -22 -14 -36 4 -7 1 -8 -7 -3 -10 6 -12 4 -7 -8 4 -10 2 -16 -6 -14 -7 1 -12 -7 -12 -18 0 -11 -5 -19 -10 -18 -16 3 -46 -29 -41 -43 3 -8 0 -11 -8 -8 -23 9 -85 -114 -70 -138 3 -5 0 -8 -6 -8 -7 0 -10 -7 -6 -15 3 -8 2 -15 -3 -15 -7 0 -35 -73 -36 -95 0 -5 -2 -12 -5 -15 -12 -11 -50 -122 -44 -131 3 -5 1 -9 -4 -9 -8 0 -36 -71 -37 -95 0 -5 -3 -13 -7 -16 -5 -3 -9 -17 -10 -32 -1 -15 -5 -27 -9 -27 -5 0 -28 -66 -35 -102 -1 -5 -3 -11 -4 -15 -1 -5 -2 -11 -1 -16 0 -4 -3 -7 -8 -7 -8 0 -32 -70 -32 -95 -1 -5 -5 -15 -10 -21 -12 -15 -49 -124 -42 -124 3 0 0 -6 -6 -14 -14 -16 -52 -126 -44 -126 3 0 0 -7 -7 -15 -37 -44 282 131 401 220 667 500 910 1387 587 2143 -53 124 -101 182 -106 130z"
       id="path158"
       style="stroke:url(#linearGradient1275);stroke-opacity:1;stroke-width:18.74999944;stroke-miterlimit:4;stroke-dasharray:4.68749986, 4.68749985999999996;stroke-dashoffset:0" />
  </g>
  <g
     transform="translate(0.000000,512.000000) scale(0.100000,-0.100000)"
     fill="#fd3644"
     stroke="none"
     id="g182"
     style="stroke:url(#linearGradient1277);stroke-opacity:1;stroke-width:18.74999944;stroke-miterlimit:4;stroke-dasharray:4.68749986, 4.68749985999999996;stroke-dashoffset:0">
    <path
       d="M1760 3798 c-129 -49 -227 -192 -238 -346 -5 -74 -5 -74 24 -71 51 4 63 0 78 -28 18 -37 5 -71 -34 -86 -61 -23 24 -148 140 -207 22 -11 40 -25 40 -31 0 -19 128 16 185 51 244 151 240 560 -8 685 -25 13 -132 57 -132 54 0 0 -25 -10 -55 -21z m11 -129 c45 -24 40 -86 -9 -109 -56 -25 -104 50 -61 96 25 26 40 29 70 13z m173 -300 c43 -34 21 -109 -32 -109 -27 0 -62 37 -62 65 0 21 40 65 60 65 4 0 19 -9 34 -21z"
       id="path162"
       style="stroke:url(#linearGradient1277);stroke-opacity:1;stroke-width:18.74999944;stroke-miterlimit:4;stroke-dasharray:4.68749986, 4.68749985999999996;stroke-dashoffset:0" />
    <path
       d="M4050 3613 c0 -5 -29 -28 -64 -50 -108 -69 -172 -179 -183 -315 -6 -68 -6 -68 36 -68 45 0 81 -26 81 -58 0 -23 -40 -62 -63 -62 -68 0 64 -158 175 -210 145 -69 354 97 387 306 30 196 -111 417 -289 449 -14 2 -37 7 -52 11 -16 3 -28 2 -28 -3z m15 -158 c14 -13 25 -31 25 -40 0 -9 -11 -27 -25 -40 -13 -14 -31 -25 -40 -25 -9 0 -27 11 -40 25 -14 13 -25 31 -25 40 0 9 11 27 25 40 13 14 31 25 40 25 9 0 27 -11 40 -25z m161 -283 c45 -30 28 -102 -25 -110 -27 -4 -71 33 -71 60 0 40 63 73 96 50z"
       id="path164"
       style="stroke:url(#linearGradient1277);stroke-opacity:1;stroke-width:18.74999944;stroke-miterlimit:4;stroke-dasharray:4.68749986, 4.68749985999999996;stroke-dashoffset:0" />
    <path
       d="M1375 3263 c4 -10 10 -26 12 -35 6 -19 23 -25 23 -8 0 5 -5 21 -12 35 -12 28 -34 35 -23 8z"
       id="path166"
       style="stroke:url(#linearGradient1277);stroke-opacity:1;stroke-width:18.74999944;stroke-miterlimit:4;stroke-dasharray:4.68749986, 4.68749985999999996;stroke-dashoffset:0" />
    <path
       d="M1461 3134 c13 -14 25 -20 27 -14 5 15 -17 40 -36 40 -12 0 -10 -6 9 -26z"
       id="path168"
       style="stroke:url(#linearGradient1277);stroke-opacity:1;stroke-width:18.74999944;stroke-miterlimit:4;stroke-dasharray:4.68749986, 4.68749985999999996;stroke-dashoffset:0" />
    <path
       d="M3170 2960 c-11 -11 -20 -23 -20 -27 0 -5 -11 -21 -25 -37 -14 -16 -25 -32 -25 -36 0 -3 -9 -16 -20 -27 -66 -72 -74 -118 -24 -153 19 -14 50 -36 69 -50 102 -75 118 -85 131 -84 8 1 20 2 28 3 8 0 23 16 34 34 12 17 34 50 51 72 85 115 97 158 49 183 -13 7 -41 26 -63 42 -134 100 -155 110 -185 80z"
       id="path170"
       style="stroke:url(#linearGradient1277);stroke-opacity:1;stroke-width:18.74999944;stroke-miterlimit:4;stroke-dasharray:4.68749986, 4.68749985999999996;stroke-dashoffset:0" />
    <path
       d="M3360 2311 c0 -6 -27 -24 -61 -42 -158 -85 -259 -255 -259 -440 0 -76 0 -77 29 -82 59 -12 80 -68 41 -107 -72 -72 169 -309 308 -303 41 1 121 32 152 59 8 7 21 14 29 16 99 22 221 293 207 456 -21 225 -242 452 -440 452 -3 0 -6 -4 -6 -9z m-9 -172 c48 -48 -14 -133 -68 -92 -50 36 -31 113 27 113 11 0 29 -9 41 -21z m233 -410 c50 -40 9 -124 -51 -103 -55 19 -61 87 -9 112 29 15 30 15 60 -9z"
       id="path172"
       style="stroke:url(#linearGradient1277);stroke-opacity:1;stroke-width:18.74999944;stroke-miterlimit:4;stroke-dasharray:4.68749986, 4.68749985999999996;stroke-dashoffset:0" />
    <path
       d="M2873 2068 c-25 -32 -34 -58 -20 -58 8 0 20 14 27 30 14 33 9 49 -7 28z"
       id="path174"
       style="stroke:url(#linearGradient1277);stroke-opacity:1;stroke-width:18.74999944;stroke-miterlimit:4;stroke-dasharray:4.68749986, 4.68749985999999996;stroke-dashoffset:0" />
    <path
       d="M1940 1635 c-14 -7 -55 -27 -92 -45 -73 -35 -79 -46 -54 -97 8 -15 27 -54 41 -85 33 -72 55 -80 117 -45 24 14 55 27 69 31 63 14 75 49 42 117 -12 24 -29 63 -39 87 -9 23 -20 42 -23 43 -3 0 -13 2 -21 3 -8 2 -26 -3 -40 -9z"
       id="path176"
       style="stroke:url(#linearGradient1277);stroke-opacity:1;stroke-width:18.74999944;stroke-miterlimit:4;stroke-dasharray:4.68749986, 4.68749985999999996;stroke-dashoffset:0" />
    <path
       d="M3134 1355 c22 -17 46 -20 46 -6 0 5 -10 11 -22 15 -37 9 -44 6 -24 -9z"
       id="path178"
       style="stroke:url(#linearGradient1277);stroke-opacity:1;stroke-width:18.74999944;stroke-miterlimit:4;stroke-dasharray:4.68749986, 4.68749985999999996;stroke-dashoffset:0" />
    <path
       d="M1970 1059 c-138 -75 -220 -214 -220 -370 0 -39 0 -39 38 -33 77 12 110 -76 42 -111 -37 -19 -38 -41 -2 -91 85 -117 199 -171 287 -134 11 4 27 11 35 14 32 13 84 52 114 85 12 13 27 29 34 37 6 7 12 17 12 23 0 6 4 11 9 11 33 0 68 209 48 290 -38 156 -126 250 -276 299 -49 16 -60 14 -121 -20z m50 -129 c25 -25 25 -41 -1 -74 -27 -34 -64 -32 -92 5 -43 59 41 121 93 69z m173 -302 c37 -50 -19 -107 -78 -80 -36 17 -43 57 -14 88 30 32 65 28 92 -8z"
       id="path180"
       style="stroke:url(#linearGradient1277);stroke-opacity:1;stroke-width:18.74999944;stroke-miterlimit:4;stroke-dasharray:4.68749986, 4.68749985999999996;stroke-dashoffset:0" />
  </g>
  <g
     transform="translate(0.000000,512.000000) scale(0.100000,-0.100000)"
     fill="#ea2a3d"
     stroke="none"
     id="g208"
     style="stroke:url(#linearGradient1279);stroke-opacity:1;stroke-width:18.74999944;stroke-miterlimit:4;stroke-dasharray:4.68749986, 4.68749985999999996;stroke-dashoffset:0">
    <path
       d="M1628 3803 c-13 -7 -30 -12 -37 -13 -16 0 -91 -48 -103 -65 -4 -5 -8 -6 -8 -1 0 5 -9 1 -20 -9 -11 -10 -20 -22 -20 -28 0 -5 -8 -17 -17 -26 -23 -21 -43 -56 -43 -75 0 -8 -5 -16 -10 -18 -6 -2 -12 -15 -14 -29 -1 -13 -5 -29 -8 -34 -5 -11 -2 -143 5 -185 2 -14 13 -40 25 -59 12 -19 19 -38 16 -42 -5 -9 132 -150 144 -147 10 2 46 -14 53 -24 3 -5 19 -11 35 -13 16 -2 29 -5 29 -6 0 -1 37 -3 83 -4 96 -2 100 2 28 33 -117 51 -221 175 -166 198 84 36 40 161 -49 139 -24 -6 -24 -6 -19 57 13 144 115 290 233 333 28 10 55 22 60 27 16 14 -171 6 -197 -9z"
       id="path184"
       style="stroke:url(#linearGradient1279);stroke-opacity:1;stroke-width:18.74999944;stroke-miterlimit:4;stroke-dasharray:4.68749986, 4.68749985999999996;stroke-dashoffset:0" />
    <path
       d="M1692 3667 c-31 -33 -29 -80 4 -106 42 -33 94 -20 114 28 30 74 -64 136 -118 78z"
       id="path186"
       style="stroke:url(#linearGradient1279);stroke-opacity:1;stroke-width:18.74999944;stroke-miterlimit:4;stroke-dasharray:4.68749986, 4.68749985999999996;stroke-dashoffset:0" />
    <path
       d="M3897 3595 c-133 -44 -225 -143 -261 -280 -44 -165 40 -363 186 -440 16 -8 42 -22 59 -31 35 -18 219 -33 219 -18 0 5 -26 20 -58 34 -89 38 -228 190 -174 190 10 0 28 10 40 23 51 55 3 134 -72 120 -29 -6 -29 -6 -23 54 17 164 143 325 274 349 53 10 21 22 -57 22 -42 0 -92 -9 -133 -23z"
       id="path188"
       style="stroke:url(#linearGradient1279);stroke-opacity:1;stroke-width:18.74999944;stroke-miterlimit:4;stroke-dasharray:4.68749986, 4.68749985999999996;stroke-dashoffset:0" />
    <path
       d="M3975 3465 c-14 -13 -25 -36 -25 -50 0 -14 11 -37 25 -50 13 -14 36 -25 50 -25 14 0 37 11 50 25 14 13 25 36 25 50 0 14 -11 37 -25 50 -13 14 -36 25 -50 25 -14 0 -37 -11 -50 -25z"
       id="path190"
       style="stroke:url(#linearGradient1279);stroke-opacity:1;stroke-width:18.74999944;stroke-miterlimit:4;stroke-dasharray:4.68749986, 4.68749985999999996;stroke-dashoffset:0" />
    <path
       d="M1866 3379 c-52 -41 -21 -129 46 -129 67 0 94 81 42 128 -31 27 -54 28 -88 1z"
       id="path192"
       style="stroke:url(#linearGradient1279);stroke-opacity:1;stroke-width:18.74999944;stroke-miterlimit:4;stroke-dasharray:4.68749986, 4.68749985999999996;stroke-dashoffset:0" />
    <path
       d="M4165 3188 c-50 -27 -60 -80 -22 -116 61 -58 150 6 116 82 -9 18 -59 50 -73 46 -1 0 -10 -6 -21 -12z"
       id="path194"
       style="stroke:url(#linearGradient1279);stroke-opacity:1;stroke-width:18.74999944;stroke-miterlimit:4;stroke-dasharray:4.68749986, 4.68749985999999996;stroke-dashoffset:0" />
    <path
       d="M3195 2312 c-11 -2 -24 -8 -29 -13 -6 -5 -20 -9 -33 -9 -13 0 -23 -5 -23 -11 0 -5 -4 -8 -9 -4 -5 3 -12 1 -16 -5 -3 -5 -21 -17 -40 -26 -19 -9 -35 -20 -35 -25 0 -5 -4 -9 -10 -9 -9 0 -80 -66 -80 -75 0 -3 -9 -14 -20 -25 -11 -11 -20 -27 -20 -35 0 -8 -5 -15 -11 -15 -5 0 -7 -4 -4 -10 3 -5 1 -10 -5 -10 -6 0 -8 -4 -5 -10 3 -5 2 -10 -3 -10 -8 0 -15 -19 -29 -85 -11 -50 -11 -187 1 -236 19 -82 80 -185 139 -238 10 -9 32 -28 48 -42 31 -28 107 -64 147 -70 4 0 12 -5 19 -11 16 -13 186 -20 215 -9 22 9 22 9 3 16 -134 48 -349 251 -287 272 67 24 31 143 -43 143 -41 0 -11 194 46 299 58 110 222 241 303 241 16 0 18 2 7 9 -15 9 -188 12 -226 3z"
       id="path196"
       style="stroke:url(#linearGradient1279);stroke-opacity:1;stroke-width:18.74999944;stroke-miterlimit:4;stroke-dasharray:4.68749986, 4.68749985999999996;stroke-dashoffset:0" />
    <path
       d="M3260 2150 c-43 -43 -9 -130 50 -130 10 0 29 9 44 21 52 41 23 129 -44 129 -17 0 -39 -9 -50 -20z"
       id="path198"
       style="stroke:url(#linearGradient1279);stroke-opacity:1;stroke-width:18.74999944;stroke-miterlimit:4;stroke-dasharray:4.68749986, 4.68749985999999996;stroke-dashoffset:0" />
    <path
       d="M3513 1748 c-48 -23 -51 -103 -4 -127 78 -42 154 64 85 118 -29 23 -48 25 -81 9z"
       id="path200"
       style="stroke:url(#linearGradient1279);stroke-opacity:1;stroke-width:18.74999944;stroke-miterlimit:4;stroke-dasharray:4.68749986, 4.68749985999999996;stroke-dashoffset:0" />
    <path
       d="M1875 1086 c-22 -5 -42 -13 -45 -16 -3 -3 -21 -12 -40 -20 -38 -16 -51 -24 -85 -57 -12 -13 -27 -23 -34 -23 -6 0 -10 -3 -9 -7 1 -5 -10 -28 -24 -53 -156 -262 18 -608 307 -613 123 -2 127 1 58 32 -107 50 -219 172 -178 195 85 50 64 155 -29 144 -33 -4 -36 -2 -36 23 0 148 88 287 229 363 35 18 59 36 55 39 -15 8 -127 4 -169 -7z"
       id="path202"
       style="stroke:url(#linearGradient1279);stroke-opacity:1;stroke-width:18.74999944;stroke-miterlimit:4;stroke-dasharray:4.68749986, 4.68749985999999996;stroke-dashoffset:0" />
    <path
       d="M1944 958 c-69 -33 -45 -138 31 -138 39 0 75 37 75 76 0 24 -31 64 -49 64 -5 0 -15 2 -23 4 -7 3 -23 0 -34 -6z"
       id="path204"
       style="stroke:url(#linearGradient1279);stroke-opacity:1;stroke-width:18.74999944;stroke-miterlimit:4;stroke-dasharray:4.68749986, 4.68749985999999996;stroke-dashoffset:0" />
    <path
       d="M2092 647 c-53 -56 3 -144 74 -117 55 21 69 69 33 114 -27 34 -77 36 -107 3z"
       id="path206"
       style="stroke:url(#linearGradient1279);stroke-opacity:1;stroke-width:18.74999944;stroke-miterlimit:4;stroke-dasharray:4.68749986, 4.68749985999999996;stroke-dashoffset:0" />
  </g>
  <g
     transform="translate(0.000000,512.000000) scale(0.100000,-0.100000)"
     fill="#da722b"
     stroke="none"
     id="g218"
     style="stroke:url(#linearGradient1281);stroke-opacity:1;stroke-width:18.74999944;stroke-miterlimit:4;stroke-dasharray:4.68749986, 4.68749985999999996;stroke-dashoffset:0">
    <path
       d="M940 4861 c-653 -219 -817 -339 -828 -606 -13 -315 266 -458 572 -292 49 27 97 50 107 52 10 2 29 11 43 20 14 9 31 18 38 19 7 1 23 8 36 14 12 7 22 10 22 7 0 -3 10 0 23 7 12 7 24 13 27 13 3 0 16 7 30 15 14 7 26 13 27 12 3 -2 23 4 51 15 9 3 20 7 25 8 4 2 9 4 12 5 3 1 10 4 15 5 6 1 12 4 15 5 3 1 10 4 15 5 6 1 12 4 15 5 3 1 10 4 15 5 6 1 12 4 15 5 3 1 10 4 15 5 6 1 12 4 15 5 3 1 9 3 14 4 27 3 18 16 -15 21 -356 59 -444 484 -144 687 36 25 32 23 -160 -41z"
       id="path210"
       style="stroke:url(#linearGradient1281);stroke-opacity:1;stroke-width:18.74999944;stroke-miterlimit:4;stroke-dasharray:4.68749986, 4.68749985999999996;stroke-dashoffset:0" />
    <path
       d="M2040 2451 c16 -31 70 -66 70 -47 0 9 -5 16 -11 16 -6 0 -17 6 -25 14 -8 8 -14 19 -14 25 0 6 -7 11 -15 11 -12 0 -13 -4 -5 -19z"
       id="path212"
       style="stroke:url(#linearGradient1281);stroke-opacity:1;stroke-width:18.74999944;stroke-miterlimit:4;stroke-dasharray:4.68749986, 4.68749985999999996;stroke-dashoffset:0" />
    <path
       d="M2480 1077 c0 -18 7 -42 16 -53 15 -18 15 -18 10 6 -3 14 -6 37 -6 53 0 15 -4 27 -10 27 -5 0 -10 -15 -10 -33z"
       id="path214"
       style="stroke:url(#linearGradient1281);stroke-opacity:1;stroke-width:18.74999944;stroke-miterlimit:4;stroke-dasharray:4.68749986, 4.68749985999999996;stroke-dashoffset:0" />
    <path
       d="M2670 917 c0 -8 9 -22 20 -32 24 -21 28 -1 6 28 -16 20 -26 22 -26 4z"
       id="path216"
       style="stroke:url(#linearGradient1281);stroke-opacity:1;stroke-width:18.74999944;stroke-miterlimit:4;stroke-dasharray:4.68749986, 4.68749985999999996;stroke-dashoffset:0" />
  </g>
  <g
     transform="translate(0.000000,512.000000) scale(0.100000,-0.100000)"
     fill="#159e96"
     stroke="none"
     id="g230"
     style="stroke:url(#linearGradient1283);stroke-opacity:1;stroke-width:18.74999944;stroke-miterlimit:4;stroke-dasharray:4.68749986, 4.68749985999999996;stroke-dashoffset:0">
    <path
       d="M2374 4100 c-116 -48 -120 -266 -7 -380 82 -82 90 -107 53 -168 -61 -100 34 -190 115 -109 91 91 82 252 -20 352 -81 80 -92 112 -55 173 49 79 -7 165 -86 132z"
       id="path220"
       style="stroke:url(#linearGradient1283);stroke-opacity:1;stroke-width:18.74999944;stroke-miterlimit:4;stroke-dasharray:4.68749986, 4.68749985999999996;stroke-dashoffset:0" />
    <path
       d="M3674 4002 c-55 -35 -70 -134 -33 -215 31 -68 189 41 189 130 0 74 -92 124 -156 85z"
       id="path222"
       style="stroke:url(#linearGradient1283);stroke-opacity:1;stroke-width:18.74999944;stroke-miterlimit:4;stroke-dasharray:4.68749986, 4.68749985999999996;stroke-dashoffset:0" />
    <path
       d="M1625 2761 c-107 -49 -161 -176 -126 -296 11 -41 -2 -72 -40 -93 -126 -67 -67 -203 64 -149 102 43 142 121 133 259 -8 107 -8 106 64 151 101 65 16 179 -95 128z"
       id="path224"
       style="stroke:url(#linearGradient1283);stroke-opacity:1;stroke-width:18.74999944;stroke-miterlimit:4;stroke-dasharray:4.68749986, 4.68749985999999996;stroke-dashoffset:0" />
    <path
       d="M2371 1878 c-83 -57 -105 -166 -59 -298 26 -75 33 -77 125 -35 104 47 156 103 169 182 19 124 -133 222 -235 151z"
       id="path226"
       style="stroke:url(#linearGradient1283);stroke-opacity:1;stroke-width:18.74999944;stroke-miterlimit:4;stroke-dasharray:4.68749986, 4.68749985999999996;stroke-dashoffset:0" />
    <path
       d="M2537 588 c-19 -15 -38 -62 -33 -80 3 -7 7 -25 10 -40 16 -71 98 -129 195 -137 64 -6 64 -6 78 -46 33 -99 153 -86 153 15 0 104 -79 178 -200 189 -62 6 -65 7 -75 38 -22 65 -83 95 -128 61z"
       id="path228"
       style="stroke:url(#linearGradient1283);stroke-opacity:1;stroke-width:18.74999944;stroke-miterlimit:4;stroke-dasharray:4.68749986, 4.68749985999999996;stroke-dashoffset:0" />
  </g>
  <g
     transform="translate(0.000000,512.000000) scale(0.100000,-0.100000)"
     fill="#bf7e51"
     stroke="none"
     id="g244"
     style="stroke:url(#linearGradient1285);stroke-opacity:1;stroke-width:18.74999944;stroke-miterlimit:4;stroke-dasharray:4.68749986, 4.68749985999999996;stroke-dashoffset:0">
    <path
       d="M3062 3777 c-48 -15 -125 -86 -94 -87 12 0 22 -4 22 -10 0 -51 179 -183 272 -200 68 -13 68 -10 13 49 -27 28 -46 53 -44 55 2 2 23 13 46 25 152 77 -37 225 -215 168z"
       id="path232"
       style="stroke:url(#linearGradient1285);stroke-opacity:1;stroke-width:18.74999944;stroke-miterlimit:4;stroke-dasharray:4.68749986, 4.68749985999999996;stroke-dashoffset:0" />
    <path
       d="M2291 2947 c-64 -78 -51 -348 24 -497 26 -51 17 -110 -15 -110 -6 0 -10 -6 -10 -14 0 -18 33 -10 55 14 9 9 26 56 39 104 29 108 23 104 92 61 225 -135 256 235 33 388 -77 52 -195 81 -218 54z"
       id="path234"
       style="stroke:url(#linearGradient1285);stroke-opacity:1;stroke-width:18.74999944;stroke-miterlimit:4;stroke-dasharray:4.68749986, 4.68749985999999996;stroke-dashoffset:0" />
    <path
       d="M2625 1300 c-94 -45 -88 -80 34 -193 111 -103 295 -143 191 -42 -49 48 -50 46 5 73 95 46 73 126 -48 171 -45 17 -137 13 -182 -9z"
       id="path236"
       style="stroke:url(#linearGradient1285);stroke-opacity:1;stroke-width:18.74999944;stroke-miterlimit:4;stroke-dasharray:4.68749986, 4.68749985999999996;stroke-dashoffset:0" />
    <path
       d="M2501 1179 c-13 -38 -14 -49 -3 -49 7 0 32 57 32 73 0 20 -19 3 -29 -24z"
       id="path238"
       style="stroke:url(#linearGradient1285);stroke-opacity:1;stroke-width:18.74999944;stroke-miterlimit:4;stroke-dasharray:4.68749986, 4.68749985999999996;stroke-dashoffset:0" />
    <path
       d="M2613 1043 c-7 -2 -13 -11 -13 -19 0 -11 5 -11 25 -2 39 18 28 38 -12 21z"
       id="path240"
       style="stroke:url(#linearGradient1285);stroke-opacity:1;stroke-width:18.74999944;stroke-miterlimit:4;stroke-dasharray:4.68749986, 4.68749985999999996;stroke-dashoffset:0" />
    <path
       d="M2783 908 c-13 -6 -23 -17 -23 -24 0 -11 8 -10 35 3 35 17 47 34 23 32 -7 0 -23 -5 -35 -11z"
       id="path242"
       style="stroke:url(#linearGradient1285);stroke-opacity:1;stroke-width:18.74999944;stroke-miterlimit:4;stroke-dasharray:4.68749986, 4.68749985999999996;stroke-dashoffset:0" />
  </g>
  <g
     transform="translate(0.000000,512.000000) scale(0.100000,-0.100000)"
     fill="#a86639"
     stroke="none"
     id="g252"
     style="stroke:url(#linearGradient1287);stroke-opacity:1;stroke-width:18.74999944;stroke-miterlimit:4;stroke-dasharray:4.68749986, 4.68749985999999996;stroke-dashoffset:0">
    <path
       d="M2964 3707 c-110 -116 -67 -290 56 -227 54 28 58 24 66 -58 10 -98 113 -105 217 -14 18 16 24 72 6 72 -5 0 -8 4 -5 8 3 5 -8 6 -24 4 -42 -6 -137 41 -193 96 -56 54 -109 127 -100 136 4 3 4 6 2 6 -2 0 -13 -10 -25 -23z"
       id="path246"
       style="stroke:url(#linearGradient1287);stroke-opacity:1;stroke-width:18.74999944;stroke-miterlimit:4;stroke-dasharray:4.68749986, 4.68749985999999996;stroke-dashoffset:0" />
    <path
       d="M2228 2950 c-46 -9 -118 -40 -118 -52 0 -4 -6 -8 -13 -8 -15 0 -44 -28 -48 -45 -1 -5 -4 -15 -6 -22 -14 -36 98 -155 129 -137 3 2 8 -1 10 -7 4 -11 -68 -89 -81 -89 -4 0 -20 -13 -36 -30 -16 -16 -25 -30 -20 -30 5 0 4 -5 -3 -12 -15 -15 -16 -58 -1 -58 5 0 8 -4 5 -8 -6 -9 29 -42 44 -42 6 0 10 -4 10 -9 0 -5 10 -13 22 -17 12 -3 30 -15 41 -25 11 -10 24 -16 29 -13 4 3 8 1 8 -4 0 -12 46 -32 75 -32 14 0 25 4 25 9 0 5 8 8 17 7 10 0 18 6 18 14 1 8 5 27 9 41 6 20 1 40 -18 78 -79 155 -89 406 -19 483 18 20 -5 23 -79 8z"
       id="path248"
       style="stroke:url(#linearGradient1287);stroke-opacity:1;stroke-width:18.74999944;stroke-miterlimit:4;stroke-dasharray:4.68749986, 4.68749985999999996;stroke-dashoffset:0" />
    <path
       d="M2534 1233 c-10 -16 -17 -31 -16 -35 1 -5 -3 -8 -9 -8 -5 0 -8 -4 -4 -9 3 -5 1 -12 -5 -16 -6 -4 -8 -10 -5 -15 3 -5 1 -11 -4 -14 -17 -11 -4 -97 18 -122 24 -27 38 -29 65 -9 10 8 23 12 27 9 5 -3 9 0 9 6 0 6 5 8 10 5 6 -3 10 -2 10 3 0 16 26 9 27 -7 1 -19 10 -80 15 -100 8 -37 98 -72 98 -39 0 5 5 6 10 3 6 -3 10 -1 10 5 0 6 5 8 10 5 6 -3 10 -1 10 4 0 6 3 10 8 10 30 -5 78 36 76 66 -2 49 -4 52 -27 48 -68 -13 -225 94 -283 194 -31 51 -27 50 -50 16z"
       id="path250"
       style="stroke:url(#linearGradient1287);stroke-opacity:1;stroke-width:18.74999944;stroke-miterlimit:4;stroke-dasharray:4.68749986, 4.68749985999999996;stroke-dashoffset:0" />
  </g>
  <g
     transform="translate(0.000000,512.000000) scale(0.100000,-0.100000)"
     fill="#f59b18"
     stroke="none"
     id="g254" />
  <g
     transform="translate(0.000000,512.000000) scale(0.100000,-0.100000)"
     fill="#d89b30"
     stroke="none"
     id="g256" />
  <g
     transform="translate(0.000000,512.000000) scale(0.100000,-0.100000)"
     fill="#f1dbcb"
     stroke="none"
     id="g270"
     style="stroke:url(#linearGradient1289);stroke-opacity:1;stroke-width:18.74999944;stroke-miterlimit:4;stroke-dasharray:4.68749986, 4.68749985999999996;stroke-dashoffset:0">
    <path
       d="M369 3559 c-16 -34 -29 -63 -27 -65 2 -2 18 26 36 61 17 36 30 65 27 65 -3 0 -19 -27 -36 -61z"
       id="path258"
       style="stroke:url(#linearGradient1289);stroke-opacity:1;stroke-width:18.74999944;stroke-miterlimit:4;stroke-dasharray:4.68749986, 4.68749985999999996;stroke-dashoffset:0" />
    <path
       d="M4742 3555 c18 -35 34 -63 36 -61 4 5 -56 126 -63 126 -3 0 10 -29 27 -65z"
       id="path260"
       style="stroke:url(#linearGradient1289);stroke-opacity:1;stroke-width:18.74999944;stroke-miterlimit:4;stroke-dasharray:4.68749986, 4.68749985999999996;stroke-dashoffset:0" />
    <path
       d="M340 1406 c0 -11 50 -106 55 -106 3 0 -7 24 -21 53 -28 55 -34 65 -34 53z"
       id="path262"
       style="stroke:url(#linearGradient1289);stroke-opacity:1;stroke-width:18.74999944;stroke-miterlimit:4;stroke-dasharray:4.68749986, 4.68749985999999996;stroke-dashoffset:0" />
    <path
       d="M4747 1355 c-15 -30 -25 -55 -22 -55 7 0 57 101 53 106 -2 2 -16 -21 -31 -51z"
       id="path264"
       style="stroke:url(#linearGradient1289);stroke-opacity:1;stroke-width:18.74999944;stroke-miterlimit:4;stroke-dasharray:4.68749986, 4.68749985999999996;stroke-dashoffset:0" />
    <path
       d="M1410 285 c0 -7 101 -57 106 -53 2 2 -21 16 -51 31 -30 15 -55 25 -55 22z"
       id="path266"
       style="stroke:url(#linearGradient1289);stroke-opacity:1;stroke-width:18.74999944;stroke-miterlimit:4;stroke-dasharray:4.68749986, 4.68749985999999996;stroke-dashoffset:0" />
    <path
       d="M3650 260 c-30 -16 -51 -29 -47 -30 10 0 107 49 107 55 0 7 1 7 -60 -25z"
       id="path268"
       style="stroke:url(#linearGradient1289);stroke-opacity:1;stroke-width:18.74999944;stroke-miterlimit:4;stroke-dasharray:4.68749986, 4.68749985999999996;stroke-dashoffset:0" />
  </g>
  <g
     transform="translate(0.000000,512.000000) scale(0.100000,-0.100000)"
     fill="#fa5635"
     stroke="none"
     id="g272" />
  <g
     transform="translate(0.000000,512.000000) scale(0.100000,-0.100000)"
     fill="#deb7a5"
     stroke="none"
     id="g274" />
  <g
     transform="translate(0.000000,512.000000) scale(0.100000,-0.100000)"
     fill="#59a56f"
     stroke="none"
     id="g286"
     style="stroke:url(#linearGradient1291);stroke-opacity:1;stroke-width:18.74999944;stroke-miterlimit:4;stroke-dasharray:4.68749986, 4.68749985999999996;stroke-dashoffset:0">
    <path
       d="M3786 3987 c16 -14 30 -39 34 -63 7 -37 8 -37 9 -7 1 31 -39 93 -60 93 -6 0 2 -10 17 -23z"
       id="path276"
       style="stroke:url(#linearGradient1291);stroke-opacity:1;stroke-width:18.74999944;stroke-miterlimit:4;stroke-dasharray:4.68749986, 4.68749985999999996;stroke-dashoffset:0" />
    <path
       d="M3721 3794 c-24 -13 -46 -26 -50 -30 -10 -10 68 24 91 41 32 22 10 16 -41 -11z"
       id="path278"
       style="stroke:url(#linearGradient1291);stroke-opacity:1;stroke-width:18.74999944;stroke-miterlimit:4;stroke-dasharray:4.68749986, 4.68749985999999996;stroke-dashoffset:0" />
    <path
       d="M2338 1853 c-27 -29 -57 -90 -38 -78 6 3 10 13 10 20 0 8 14 30 31 50 37 41 34 47 -3 8z"
       id="path280"
       style="stroke:url(#linearGradient1291);stroke-opacity:1;stroke-width:18.74999944;stroke-miterlimit:4;stroke-dasharray:4.68749986, 4.68749985999999996;stroke-dashoffset:0" />
    <path
       d="M2558 1847 c17 -21 32 -44 32 -52 0 -7 4 -16 10 -20 30 -18 -21 69 -55 95 -11 8 -5 -2 13 -23z"
       id="path282"
       style="stroke:url(#linearGradient1291);stroke-opacity:1;stroke-width:18.74999944;stroke-miterlimit:4;stroke-dasharray:4.68749986, 4.68749985999999996;stroke-dashoffset:0" />
    <path
       d="M2585 593 c35 -5 65 -29 66 -52 0 -11 2 -12 6 -3 9 23 -37 62 -71 61 -31 -2 -31 -2 -1 -6z"
       id="path284"
       style="stroke:url(#linearGradient1291);stroke-opacity:1;stroke-width:18.74999944;stroke-miterlimit:4;stroke-dasharray:4.68749986, 4.68749985999999996;stroke-dashoffset:0" />
  </g>
  <g
     transform="translate(0.000000,512.000000) scale(0.100000,-0.100000)"
     fill="#f2af69"
     stroke="none"
     id="g288" />
  <g
     transform="translate(0.000000,512.000000) scale(0.100000,-0.100000)"
     fill="#ae6a5f"
     stroke="none"
     id="g294"
     style="stroke:url(#linearGradient1293);stroke-opacity:1;stroke-width:18.74999944;stroke-miterlimit:4;stroke-dasharray:4.68749986, 4.68749985999999996;stroke-dashoffset:0">
    <path
       d="M820 725 c35 -36 67 -65 69 -65 3 0 -24 29 -59 65 -35 36 -67 65 -69 65 -3 0 24 -29 59 -65z"
       id="path290"
       style="stroke:url(#linearGradient1293);stroke-opacity:1;stroke-width:18.74999944;stroke-miterlimit:4;stroke-dasharray:4.68749986, 4.68749985999999996;stroke-dashoffset:0" />
    <path
       d="M4290 723 c-65 -68 -65 -68 3 -3 37 35 67 66 67 67 0 8 -10 -2 -70 -64z"
       id="path292"
       style="stroke:url(#linearGradient1293);stroke-opacity:1;stroke-width:18.74999944;stroke-miterlimit:4;stroke-dasharray:4.68749986, 4.68749985999999996;stroke-dashoffset:0" />
  </g>
  <g
     transform="translate(0.000000,512.000000) scale(0.100000,-0.100000)"
     fill="#bf8a81"
     stroke="none"
     id="g296" />
  <g
     transform="translate(0.000000,512.000000) scale(0.100000,-0.100000)"
     fill="#a0b045"
     stroke="none"
     id="g298" />
  <g
     transform="translate(0.000000,512.000000) scale(0.100000,-0.100000)"
     fill="#e8b51e"
     stroke="none"
     id="g300" />
  <g
     transform="translate(0.000000,512.000000) scale(0.100000,-0.100000)"
     fill="#ab6225"
     stroke="none"
     id="g302" />
  <g
     transform="translate(0.000000,512.000000) scale(0.100000,-0.100000)"
     fill="#ebc41e"
     stroke="none"
     id="g304" />
</svg>
