<?xml version="1.0" encoding="UTF-8" standalone="no"?>
<svg
   xmlns:dc="http://purl.org/dc/elements/1.1/"
   xmlns:cc="http://creativecommons.org/ns#"
   xmlns:rdf="http://www.w3.org/1999/02/22-rdf-syntax-ns#"
   xmlns:svg="http://www.w3.org/2000/svg"
   xmlns="http://www.w3.org/2000/svg"
   xmlns:sodipodi="http://sodipodi.sourceforge.net/DTD/sodipodi-0.dtd"
   xmlns:inkscape="http://www.inkscape.org/namespaces/inkscape"
   width="492.89478"
   height="458.2117"
   version="1.1"
   id="svg92"
   sodipodi:docname="pizza.svg"
   inkscape:version="1.0.2 (e86c870879, 2021-01-15, custom)">
  <metadata
     id="metadata98">
    <rdf:RDF>
      <cc:Work
         rdf:about="">
        <dc:format>image/svg+xml</dc:format>
        <dc:type
           rdf:resource="http://purl.org/dc/dcmitype/StillImage" />
        <dc:title />
      </cc:Work>
    </rdf:RDF>
  </metadata>
  <defs
     id="defs96" />
  <sodipodi:namedview
     pagecolor="#ffffff"
     bordercolor="#666666"
     borderopacity="1"
     objecttolerance="10"
     gridtolerance="10"
     guidetolerance="10"
     inkscape:pageopacity="0"
     inkscape:pageshadow="2"
     inkscape:window-width="1366"
     inkscape:window-height="705"
     id="namedview94"
     showgrid="false"
     lock-margins="true"
     fit-margin-top="0"
     fit-margin-left="0"
     fit-margin-right="0"
     fit-margin-bottom="0"
     inkscape:pagecheckerboard="true"
     inkscape:zoom="0.74301455"
     inkscape:cx="293.91756"
     inkscape:cy="248.96246"
     inkscape:window-x="-8"
     inkscape:window-y="-8"
     inkscape:window-maximized="1"
     inkscape:current-layer="svg92"
     inkscape:document-rotation="0" />
  <path
     id="path4"
     style="fill:#fdbb29;stroke:none"
     d="M 224.77148 0.005859375 C 212.62055 -0.14126029 200.94581 2.3428532 190.73438 9.2089844 C 157.58937 31.495184 160.32537 87.306899 198.73438 103.00391 C 213.74437 109.13891 231.02638 116.72798 246.73438 120.45898 C 237.53438 70.905985 279.84438 37.132184 324.73438 31.458984 C 317.11638 24.066984 302.59136 21.01125 292.73438 17.40625 C 272.90512 10.153834 247.96872 0.28672419 224.77148 0.005859375 z M 217.25977 12.654297 C 222.56133 12.722304 228.05698 16.175888 224.41211 22.234375 C 220.28111 29.101075 208.82919 29.658284 203.86719 37.458984 C 201.60919 41.009484 201.80948 50.990094 197.52148 52.121094 C 189.34348 54.278194 191.88092 40.539384 192.66992 36.458984 C 194.64392 26.252084 203.81937 16.388503 213.73438 13.158203 C 214.82225 12.803753 216.03633 12.638603 217.25977 12.654297 z M 198.25977 64.5625 C 204.00107 64.701095 207.47819 73.726578 201.50781 77.275391 C 193.96481 81.759391 187.79681 69.568634 194.88281 65.490234 C 196.05578 64.815062 197.19656 64.536834 198.25977 64.5625 z M 204.73438 69.458984 L 205.73438 73.458984 L 204.73438 73.458984 L 204.73438 69.458984 z " />
  <path
     style="fill:#fee7b3;stroke:none"
     d="m 216.73505,11.458817 v 1 h 4 z"
     id="path6" />
  <path
     style="fill:#f9a213;stroke:none"
     d="m 245.73505,121.45882 c 12.626,2.251 25.8,11.62 37,17.691 22.995,12.466 45.547,26.039 67,41.029 13.949,9.747 27.814,22.717 43,30.28 -2.913,-8.016 -7.268,-15.25 -7.91,-24 -2.077,-28.335 19.691,-56.768 48.91,-58.91 15.444,-1.132 25.347,5.743 39,10.91 -5.77,-9.982 -15.879,-17.918 -24,-25.999 -24.328,-24.211003 -53.281,-44.421003 -83,-61.422303 -11.427,-6.537 -26.746,-17.8818 -40,-19.6443 -30.319,-4.0317 -65.313,23.6852 -75.796,50.0656 -5.296,13.327 -3.474,26.079003 -4.204,40.000003 z"
     id="path10" />
  <path
     style="fill:#fee09e;stroke:none"
     d="m 191.73505,36.458817 v 3 h 1 z"
     id="path12" />
  <path
     style="fill:#fee8b6;stroke:none"
     d="m 193.73505,52.458817 v 1 h 5 z"
     id="path14" />
  <path
     style="fill:#fedd93;stroke:none"
     d="m 190.73505,69.458817 v 4 h 1 z"
     id="path18" />
  <path
     style="fill:#ffa200;stroke:none"
     d="m 178.73505,87.458817 -6,9 v 1 c 16.508,16.371003 37.268,20.019003 58,28.850003 14.496,6.175 28.937,15.811 44,20.15 -1.244,-14.253 -10.076,-17.73 -22,-23.208 -17.566,-8.071 -36.409,-12.931 -54,-20.669 -7.95,-3.497003 -13.074,-10.244003 -20,-15.123003 z"
     id="path22" />
  <path
     style="fill:#f9ea76;stroke:none"
     d="m 108.73505,152.45882 c 7.39,3.461 15.665,6.787 18.991,15 1.823,4.504 -1.873,15.868 2.331,18.297 8.136,4.702 22.6,3.706 31.678,3.703 37.458,-0.014 77.552,-17.471 85,-57 -17.343,-5.904 -37.693,-12.223 -54,-20.377 -5.503,-2.751 -14.188,-13.398003 -20,-13.417003 -5.326,-0.017 -13.097,9.612003 -17,12.874003 -14.922,12.473 -35.649,25.138 -47,40.92 z"
     id="path24" />
  <path
     style="fill:#fee5ae;stroke:none"
     d="m 429.73505,127.92282 c -19.771,3.493 -36.179,17.408 -42.481,36.536 -7.14,21.671 -1.84,44.106 23.481,46.826 5.731,0.616 12.307,0.631 18,-0.265 16.982,-2.673 32.226,-13.958 39.51,-29.561 5.268,-11.284 10.124,-35.014 -0.02,-45.211 -5.112,-5.14 -14.579,-7.271 -21.49,-8.35 -5.376,-0.84 -11.635,-0.923 -17,0.025 z"
     id="path26" />
  <path
     style="fill:#4aab69;stroke:none"
     d="m 172.73505,132.97682 c -10.234,2.183 -23.416,14.051 -11.811,23.693 8.272,6.873 22.646,7.44 32.811,5.271 10.905,-2.326 23.1,-14.363 10.956,-23.924 -7.917,-6.233 -22.414,-7.076 -31.956,-5.04 z"
     id="path28" />
  <path
     style="fill:#f9db54;stroke:none"
     d="m 246.73505,133.45882 c -3.379,10.681 -5.517,19.257 -13.289,27.985 -24.078,27.043 -73.536,35.197 -106.711,23.015 -8.52,14.434 -30.909004,17.825 -46.000004,13.572 -5.0147,-1.414 -14.2871,-8.957 -19,-6.864 -4.1863,1.86 -12.4902,8.386 -12.6674,13.331 -0.1743,4.861 7.5959,16.846 0.5231,19.785 -6.2836,2.611 -8.2986,-10.038 -8.8557,-13.824 -10.3105,2.894 -18.5251,17.271 -23.7963,26 -17.29938,28.646 -23.04413,69.776 -9.2037,101 l 9.6034,-26 14.3966,-28 c -4.9799,-1.485 -9.5556,-4.751 -4.767,-9.786 5.2692,-5.541 10.381,-0.762 15.767,-3.861 9.6864,-5.572 15.6283,-15.071 27,-18.353 3.0498,-15.115 23.703,-20.601 37.000004,-19.96 6.707,0.324 15.242,2.692 21,6.174 3.712,2.244 6.521,5.945 11,6.638 8.048,1.245 18.12,-1.726 26,-3.339 19.851,-4.063 41.916,-7.882 60,-17.513 -2.34,-3.557 -5.188,-6.794 -6.291,-11 -8.801,-33.555 35.544,-31.516 55.291,-27 3.492,-10.714 9.304,-26.083 2.062,-36.787 -4.613,-6.82 -21.315,-12.981 -29.062,-15.213 z"
     id="path30" />
  <path
     style="fill:#ff9200;stroke:none"
     d="m 271.73505,133.45882 c 2.618,17.728 16.932,21.558 31,30 23.316,13.991 46.24,29.055 68,45.375 9.76,7.32 19.132,19.564 30,24.625 v 1 c -33.698,7.796 -67.176,21.392 -100,32.333 -13.463,4.488 -28.282,7.893 -30,24.667 l 179,-56 -15,-0.039 -21,-6.401 -22.171,-19.382 -80.829,-55.178 z"
     id="path32" />
  <path
     style="fill:#fed987;stroke:none"
     d="m 469.73505,137.45882 c 1.607,6.947 4.321,13.726 3.907,21 -1.486,26.07 -21.123,50.15 -47.907,52.829 -13.902,1.391 -23.423,-3.252 -36,-7.829 2.886,9.118 10.174,17.195 18,22.48 26.83,18.119 65.882,9.58 80.11,-20.48 9.744,-20.588 6.253,-58.439 -18.11,-68 z"
     id="path34" />
  <path
     style="fill:#f9ea76;stroke:none"
     d="m 166.73505,146.45882 c 4.717,9.016 28.177,8.96 33,0 -10.235,-5.393 -22.875,-5.755 -33,0 z"
     id="path36" />
  <path
     style="fill:#8bc26e;stroke:none"
     d="m 155.73505,144.45882 v 5 h 1 z"
     id="path38" />
  <path
     style="fill:#aecf70;stroke:none"
     d="m 209.73505,145.45882 v 4 h 1 z"
     id="path40" />
  <path
     style="fill:#f9d129;stroke:none"
     d="m 276.73505,148.45882 1.826,20 -4.826,18 c 14.797,7.042 18.594,27.145 3.999,36.895 -15.038,10.047 -37.458,9.457 -51.999,-0.895 h -1 c -8.134,5.559 -18.611,8.013 -28,10.709 -19.162,5.501 -40.006,11.289 -60,11.291 13.499,37.039 -49.049304,49.764 -64.910504,21.999 -2.5975,-4.547 -2.0895,-9.963 -2.0895,-14.999 -12.4484,2.22 -20.2477,13.13 -30,20 1.5794,2.392 4.8602,5.689 2.534,8.57 -2.8783,3.565 -8.5784,2.413 -11.7485,5.744 -10.7479,11.293 -16.8361,31.986 -20.9252,46.686 -2.8259,10.159 3.5594,20.531 7.0895,30 7.7238,20.717 17.33,41.52 22.6752,63 1.8865,7.581 -0.6249,26.628 5.6034,31.396 3.6878,2.823 9.2578,1.032 10.4537,-3.44 2.3665,-8.849 0.3179,-20.8 0.3179,-29.956 0,-35.464 7.9364,-74.897 39,-96.791 13.696004,-9.653 30.158004,-14.157 46.000004,-18.929 11.017,-3.319 22.32,-9.114 34,-9.261 43.451,-0.548 40,54.327 40,83.981 0,7.643 -4.455,37.312 7,37.312 10.944,0 7,-23.279 7,-30.312 v -74 c 0,-7.191 -1.953,-21.127 6.104,-25.168 6.597,-3.309 8.837,8.073 8.892,12.168 0.193,14.205 -1.176,28.85 0.063,42.999 0.426,4.869 4.762,9.435 9.882,6.807 6.663,-3.421 4.059,-16.616 4.059,-22.806 0,-18.451 -2.6,-40.217 8.927,-56 8.709,-11.923 23.806,-14.578 37.073,-19 28.558,-9.519 57.679,-21.217 87,-28 -4.93,-10.542 -19.746,-18.228 -29,-24.86 -26.337,-18.872 -54.975,-40.573 -85,-53.14 z"
     id="path42" />
  <path
     style="fill:#ff6965;stroke:none"
     d="m 126.73505,176.45882 h 1 v 5 c 4.534,-10.804 -2.146,-21.705 -12,-26.334 -14.998,-7.046 -48.252404,-9.128 -55.851904,10.334 -3.9048,10 5.3917,18.853 13.8519,22.37 14.7565,6.136 45.782004,6.448 53.000004,-11.37 z"
     id="path44" />
  <path
     style="fill:#93c56f;stroke:none"
     d="m 178.73505,152.45882 v 1 h 9 z"
     id="path46" />
  <path
     style="fill:#b3d071;stroke:none"
     d="m 177.73505,162.45882 v 1 h 9 z"
     id="path48" />
  <path
     style="fill:#ff4a45;stroke:none"
     d="m 58.735046,173.45882 c 0.0038,34.299 68.905004,35.99 69.000004,3 h -1 c -15.576,25.772 -52.701804,15.185 -68.000004,-3 z"
     id="path50" />
  <path
     style="fill:#ff6965;stroke:none"
     d="m 242.73505,181.92382 c -12.585,2.265 -34.2,14.369 -21.467,29.361 8.769,10.325 26.804,12.928 39.467,10.555 4.429,-0.83 8.81,-2.454 13,-4.091 12.628,-4.934 18.011,-19.43 5.96,-28.501 -9.495,-7.148 -25.417,-9.402 -36.96,-7.324 z"
     id="path52" />
  <path
     style="fill:#4aab69;stroke:none"
     d="m 39.839946,193.24482 c -8.2951,3.032 0.8638,22.867 3.544,28.155 1.1701,2.309 3.4286,4.339 6.2068,3.397 3.0764,-1.043 3.1766,-4.654 2.8395,-7.338 -0.6863,-5.465 -4.2587,-27.259 -12.5903,-24.214 z"
     id="path54" />
  <path
     style="fill:#00ff00;stroke:none"
     d="m 46.735046,197.45882 1,1 z"
     id="path56" />
  <path
     style="fill:#bd5b31;stroke:none"
     d="m 157.73605,207.20482 c -14.498,5.379 0.041,15.527 9.94,11.36 9.311,-3.918 -3.289,-13.828 -9.94,-11.36 z"
     id="path58" />
  <path
     style="fill:#ff4a45;stroke:none"
     d="m 217.73505,206.45882 c 0.687,33.097 68.726,32.642 69,0 h -1 c -14.769,25.338 -51.377,17.077 -68,0 z"
     id="path60" />
  <path
     style="fill:#b44031;stroke:none"
     d="m 319.75005,214.31782 c -13.161,5.43 0.669,15.128 9.926,11.247 9.746,-4.085 -2.704,-14.227 -9.926,-11.247 z"
     id="path62" />
  <path
     style="fill:#da9942;stroke:none"
     d="m 156.73505,219.45882 v 1 h 7 z"
     id="path64" />
  <path
     style="fill:#f05d00;stroke:none"
     d="m 258.73505,295.45882 c 14.547,-3.365 13.221,-17.235 26,-23.031 36.288,-16.458 78.083,-25.631 116,-37.969 -12.322,-13.315 -29.998,-2.334 -45,2.667 -18.305,6.101 -36.698,11.899 -55,18 -9.097,3.032 -20.225,5.095 -27.985,10.946 -8.755,6.6 -13.792,18.639 -14.015,29.387 z"
     id="path66" />
  <path
     style="fill:#ff6965;stroke:none"
     d="m 96.735046,231.89782 c -13.332,2.082 -37.3275,14.625 -22.7863,30.468 9.0952,9.909 26.200304,11.676 38.786304,9.653 11.201,-1.8 33.558,-11.583 24.258,-26.559 -7.511,-12.095 -27.209,-15.6 -40.258004,-13.562 z"
     id="path68" />
  <path
     style="fill:#cbc73a;stroke:none"
     d="m 196.73505,253.45882 v 1 h 27 z"
     id="path70" />
  <path
     style="fill:#4aab69;stroke:none"
     d="m 195.05305,255.48682 c -2.931,1.959 -2.667,6.615 0.83,7.654 5.162,1.533 26.022,2.671 30.248,-0.71 3.063,-2.451 0.62,-6.81 -2.455,-7.654 -5.531,-1.519 -23.815,-2.505 -28.623,0.71 z"
     id="path72" />
  <path
     style="fill:#ff4a45;stroke:none"
     d="m 69.735046,256.45882 c 0.281,33.491 68.722004,33.103 69.000004,0 h -1 c -13.484,25.921 -52.463604,17.217 -68.000004,0 z"
     id="path74" />
  <path
     style="fill:#78b558;stroke:none"
     d="m 195.73505,263.45882 v 1 h 29 z"
     id="path76" />
  <path
     style="fill:#d38641;stroke:none"
     d="m 31.735046,269.45882 v 1 h 5 z"
     id="path78" />
  <path
     style="fill:#b44031;stroke:none"
     d="m 29.750446,271.20082 c -13.5008,5.318 1.3712,15.355 10.9252,10.605 9.3909,-4.669 -4.3192,-13.207 -10.9252,-10.605 z"
     id="path80" />
  <path
     style="fill:#f05d00;stroke:none"
     d="m 228.73505,304.45882 c 3.671,-0.542 11.624,-1.532 13.957,-4.728 2.623,-3.593 -1.912,-10.422 -5.957,-10.52 -6.665,-0.162 -7.9,10.553 -8,15.248 m -173.000004,131 c 13.3158,-0.395 10.9994,-11.927 11,-22 0.0015,-24.169 7.8244,-50.865 24.428,-68.91 14.599004,-15.867 35.858004,-20.865 55.572004,-27.254 8.5,-2.755 18.011,-7.295 27,-7.731 11.517,-0.558 18.121,6.353 30,3.895 -2.494,-8.861 -12.737,-12.64 -21,-14.334 -19.288,-3.954 -42.968,8.323 -61,14.334 -10.24,3.413 -20.239,7.46 -29.000004,13.924 -34.4086,25.389 -37,69.258 -37,108.076 z"
     id="path82" />
  <path
     style="fill:#4aab69;stroke:none"
     d="m 63.735046,299.97682 c -10.9624,2.321 -22.8305,10.514 -28.0802,20.482 -6.4816,12.306 2.8678,20.737 15.0802,18.535 11.2741,-2.032 23.4498,-10.042 28.4568,-20.535 5.6996,-11.945 -2.7948,-21.163 -15.4568,-18.482 z"
     id="path84" />
  <path
     style="fill:#f9d129;stroke:none"
     d="m 43.735046,329.45882 c 11.8648,-0.253 25.1358,-7.812 28,-20 -11.3029,0.101 -26.3581,7.716 -28,20 z"
     id="path86" />
  <path
     style="fill:#ff9200;stroke:none"
     d="m 66.735046,429.45882 h 1 c 5.8727,-25.385 15.2663,-58.853 35.004004,-76.829 23.374,-21.289 60.664,-26.627 89.996,-36.171 -12.737,-14.819 -36.262,-2.411 -51,2.117 -14.081,4.326 -28.808,8.367 -41,16.925 -30.369204,21.318 -34.000004,60.127 -34.000004,93.958 z"
     id="path88" />
  <path
     style="fill:#b0c143;stroke:none"
     d="m 32.735046,326.45882 v 5 h 1 z"
     id="path90" />
</svg>
