<?xml version="1.0" encoding="UTF-8" standalone="no"?>
<svg
   xmlns:dc="http://purl.org/dc/elements/1.1/"
   xmlns:cc="http://creativecommons.org/ns#"
   xmlns:rdf="http://www.w3.org/1999/02/22-rdf-syntax-ns#"
   xmlns:svg="http://www.w3.org/2000/svg"
   xmlns="http://www.w3.org/2000/svg"
   xmlns:sodipodi="http://sodipodi.sourceforge.net/DTD/sodipodi-0.dtd"
   xmlns:inkscape="http://www.inkscape.org/namespaces/inkscape"
   width="324.69699pt"
   height="517.00201pt"
   viewBox="0 0 324.69699 517.00202"
   version="1.1"
   id="svg2306"
   sodipodi:docname="pin.svg"
   inkscape:version="1.0.2 (e86c870879, 2021-01-15, custom)">
  <metadata
     id="metadata2312">
    <rdf:RDF>
      <cc:Work
         rdf:about="">
        <dc:format>image/svg+xml</dc:format>
        <dc:type
           rdf:resource="http://purl.org/dc/dcmitype/StillImage" />
        <dc:title></dc:title>
      </cc:Work>
    </rdf:RDF>
  </metadata>
  <defs
     id="defs2310" />
  <sodipodi:namedview
     pagecolor="#ffffff"
     bordercolor="#666666"
     borderopacity="1"
     objecttolerance="10"
     gridtolerance="10"
     guidetolerance="10"
     inkscape:pageopacity="0"
     inkscape:pageshadow="2"
     inkscape:window-width="1366"
     inkscape:window-height="705"
     id="namedview2308"
     showgrid="false"
     inkscape:zoom="0.27863046"
     inkscape:cx="105.87799"
     inkscape:cy="450.8152"
     inkscape:window-x="-8"
     inkscape:window-y="-8"
     inkscape:window-maximized="1"
     inkscape:current-layer="svg2306"
     lock-margins="true"
     fit-margin-top="0"
     fit-margin-left="0"
     fit-margin-right="0"
     fit-margin-bottom="0"
     inkscape:document-rotation="0" />
  <g
     id="g6837"
     transform="translate(-139.03015,-29.599044)"
     style="stroke:#000000;stroke-width:3.75;stroke-miterlimit:4;stroke-dasharray:7.5, 3.75, 1.875, 3.75;stroke-dashoffset:0;stroke-opacity:1;paint-order:markers stroke fill">
    <path
       id="path4754"
       style="opacity:1;fill:#e3e3e3;fill-opacity:1;fill-rule:evenodd;stroke:#000000;stroke-width:3.75;stroke-miterlimit:4;stroke-dasharray:7.5, 3.75, 1.875, 3.75;stroke-dashoffset:0;stroke-opacity:1;paint-order:markers stroke fill"
       d="m 396.70072,507.22639 c 0,20.71068 -41.97331,37.5 -93.75002,37.5 -51.77669,0 -93.75,-16.78932 -93.75,-37.5 0,-19.86873 38.63001,-36.12845 87.48616,-37.41762 2.0703,-0.0546 4.15897,-0.0824 6.26384,-0.0824 51.77671,0 93.75002,16.78932 93.75002,37.5 z"
       sodipodi:nodetypes="sssssss" />
    <g
       id="path6825"
       style="opacity:1;fill:#b3b3b3;fill-opacity:1;stroke:#000000;stroke-width:3.75;stroke-miterlimit:4;stroke-dasharray:7.5, 3.75, 1.875, 3.75;stroke-dashoffset:0;stroke-opacity:1;paint-order:markers stroke fill"
       transform="translate(253.62081,-63.76208)">
      <path
         style="color:#000000;font-style:normal;font-variant:normal;font-weight:normal;font-stretch:normal;font-size:medium;line-height:normal;font-family:sans-serif;font-variant-ligatures:normal;font-variant-position:normal;font-variant-caps:normal;font-variant-numeric:normal;font-variant-alternates:normal;font-variant-east-asian:normal;font-feature-settings:normal;font-variation-settings:normal;text-indent:0;text-align:start;text-decoration:none;text-decoration-line:none;text-decoration-style:solid;text-decoration-color:#000000;letter-spacing:normal;word-spacing:normal;text-transform:none;writing-mode:lr-tb;direction:ltr;text-orientation:mixed;dominant-baseline:auto;baseline-shift:baseline;text-anchor:start;white-space:normal;shape-padding:0;shape-margin:0;inline-size:0;clip-rule:nonzero;display:inline;overflow:visible;visibility:visible;isolation:auto;mix-blend-mode:normal;color-interpolation:sRGB;color-interpolation-filters:linearRGB;solid-color:#000000;solid-opacity:1;vector-effect:none;fill:#b3b3b3;fill-opacity:1;fill-rule:evenodd;stroke:#000000;stroke-width:3.75;stroke-linecap:butt;stroke-linejoin:miter;stroke-miterlimit:4;stroke-dasharray:7.5, 3.75, 1.875, 3.75;stroke-dashoffset:0;stroke-opacity:1;paint-order:markers stroke fill;color-rendering:auto;image-rendering:auto;shape-rendering:auto;text-rendering:auto;enable-background:accumulate;stop-color:#000000;stop-opacity:1"
         d="m -11.115389,564.53047 c -27.555165,30.2842 48.976485,40.21278 25.562448,40.21278 -23.4140358,0 -56.275322,-13.81058 -58.20882,-33.47848 -0.824653,-8.38853 8.557539,-18.95151 24.858981,-25.44048 8.838116,-3.51811 18.51100507,-6.79914 27.7463561,-8.46216 3.0062399,-0.54134 6.1050429,-1.15778 9.2407979,-1.58563 2.262673,-0.30873 4.584905,-0.43862 6.714367,-0.75349 3.199905,-0.47314 7.724439,-0.87358 10.105275,-0.90458 1.391537,0.43362 1.934607,0.19039 2.154702,0.84852 2.006962,6.00128 -41.0417075,21.72474 -48.174107,29.56352 z"
         id="path6831"
         sodipodi:nodetypes="ssssssscss" />
    </g>
  </g>
  <g
     transform="matrix(0.1,0,0,-0.1,-139.03015,498.57939)"
     fill="#fefefe"
     stroke="none"
     id="g8" />
  <g
     transform="matrix(0.1,0,0,-0.1,-139.03015,498.57939)"
     fill="#db5a64"
     stroke="none"
     id="g100" />
  <g
     transform="matrix(0.1,0,0,-0.1,-139.03015,498.57939)"
     fill="#3a484a"
     stroke="none"
     id="g120" />
  <g
     transform="matrix(0.1,0,0,-0.1,-139.03015,498.57939)"
     fill="#edb7bc"
     stroke="none"
     id="g1382" />
  <g
     transform="matrix(0.1,0,0,-0.1,-139.03015,498.57939)"
     fill="#e89ca3"
     stroke="none"
     id="g1406" />
  <g
     id="g6843"
     style="stroke:#000000;stroke-width:7.5;stroke-miterlimit:4;stroke-dasharray:180, 7.5;stroke-dashoffset:75;stroke-opacity:1;paint-order:markers stroke fill"
     transform="translate(3.7463057,3.7995124)">
    <g
       transform="matrix(0.1,0,0,-0.1,-95.5,512.00963)"
       fill="#c13247"
       stroke="none"
       id="g108"
       style="fill:#9c4221;fill-opacity:1;stroke:#000000;stroke-width:75;stroke-miterlimit:4;stroke-dasharray:1800, 75;stroke-dashoffset:750;stroke-opacity:1;paint-order:markers stroke fill">
      <path
         d="m 2387,5114 c -2,-2 -30,-7 -62,-10 -32,-3 -66,-9 -76,-14 -9,-5 -19,-7 -22,-4 -3,3 -11,2 -18,-2 -7,-4 -25,-9 -40,-11 -15,-1 -39,-8 -55,-14 -16,-7 -32,-13 -36,-14 -5,-2 -10,-4 -13,-5 -3,-1 -8,-3 -12,-4 -5,-1 -23,-6 -40,-10 -18,-4 -33,-12 -33,-18 0,-6 -3,-8 -6,-5 -4,3 -16,1 -28,-5 -11,-7 -24,-12 -27,-13 -16,-1 -109,-50 -109,-57 0,-5 -4,-6 -10,-3 -5,3 -10,1 -10,-5 0,-6 -4,-9 -8,-6 -5,3 -19,-4 -30,-15 -12,-11 -22,-17 -22,-14 0,12 -151,-99 -212,-155 -78,-72 -66,-61 -149,-149 -38,-41 -69,-78 -69,-82 0,-4 -11,-20 -25,-35 -14,-15 -25,-33 -25,-40 0,-8 -4,-14 -10,-14 -5,0 -10,-7 -10,-15 0,-8 -4,-15 -8,-15 -10,0 -68,-101 -64,-112 1,-5 -3,-8 -9,-8 -5,0 -7,-4 -4,-10 3,-5 1,-10 -5,-10 -6,0 -8,-4 -5,-10 3,-5 1,-10 -5,-10 -6,0 -8,-4 -5,-10 3,-5 2,-10 -3,-10 -9,0 -24,-40 -21,-56 0,-4 -4,-10 -10,-13 -12,-8 -84,-221 -76,-229 2,-3 1,-10 -4,-16 -5,-6 -12,-29 -15,-51 -3,-22 -10,-60 -15,-85 -12,-52 -26,-235 -26,-330 0,-67 10,-213 19,-285 3,-22 7,-62 11,-90 3,-27 8,-59 12,-70 4,-11 8,-27 9,-35 2,-8 5,-26 8,-40 3,-14 7,-39 10,-57 6,-37 24,-111 33,-133 3,-8 8,-24 10,-35 2,-11 6,-27 10,-35 3,-8 7,-18 8,-22 2,-5 3,-9 5,-10 1,-2 3,-11 5,-20 4,-23 36,-121 44,-133 3,-5 7,-18 8,-28 2,-10 8,-28 15,-40 7,-12 13,-30 15,-40 2,-10 11,-32 20,-50 9,-18 18,-34 18,-37 10,-40 19,-60 26,-60 5,0 8,-3 7,-7 -4,-14 26,-83 36,-83 5,0 7,-3 3,-6 -7,-7 90,-206 105,-215 5,-3 9,-9 9,-13 -2,-10 31,-70 41,-77 5,-3 10,-10 10,-15 1,-18 21,-54 30,-54 5,0 7,-4 4,-8 -3,-5 2,-18 12,-28 9,-11 26,-36 36,-57 11,-20 23,-37 28,-37 4,0 8,-5 8,-12 0,-16 141,-228 151,-228 5,0 9,-6 9,-14 0,-7 11,-24 24,-38 12,-14 26,-33 29,-42 4,-9 11,-16 17,-16 5,0 10,-7 10,-15 0,-9 7,-18 15,-21 8,-4 15,-13 15,-20 0,-8 7,-17 15,-20 8,-4 15,-12 15,-18 0,-7 16,-29 35,-50 19,-21 35,-42 35,-47 0,-5 9,-14 20,-21 11,-7 20,-18 20,-24 0,-6 11,-20 25,-32 14,-12 25,-27 25,-32 0,-12 208,-246 389,-437 l 126,-133 h 16 c 10,0 49,35 87,77 l 70,77 -116,125 c -416,454 -755,934 -967,1366 -151,309 -264,639 -320,935 -23,125 -45,341 -45,456 0,202 33,419 90,596 65,197 188,414 322,565 180,203 417,362 669,451 67,24 258,72 284,72 3,0 5,5 5,10 v 10 l -125,-1 c -68,-1 -126,-3 -128,-5 z"
         id="path106"
         style="fill:#9c4221;fill-opacity:1;stroke:#000000;stroke-width:75;stroke-miterlimit:4;stroke-dasharray:1800, 75;stroke-dashoffset:750;stroke-opacity:1;paint-order:markers stroke fill" />
    </g>
    <g
       transform="matrix(0.1,0,0,-0.1,-98.99951,511.90999)"
       fill="#7e4f54"
       stroke="none"
       id="g2198"
       style="fill:#dd6b20;fill-opacity:1;stroke:#000000;stroke-width:75;stroke-miterlimit:4;stroke-dasharray:1800, 75;stroke-dashoffset:750;stroke-opacity:1;paint-order:markers stroke fill">
      <path
         id="path2196"
         style="fill:#dd6b20;fill-opacity:1;stroke:#000000;stroke-width:75;stroke-miterlimit:4;stroke-dasharray:1800, 75;stroke-dashoffset:750;stroke-opacity:1;paint-order:markers stroke fill"
         d="m 4150,3270 c 0,-7 3,-10 7,-7 3,4 3,10 0,14 -4,3 -7,0 -7,-7 z m -1607,23 c 9,-2 25,-2 35,0 9,3 1,5 -18,5 -19,0 -27,-2 -17,-5 z m -438,167 c 3,-5 8,-10 11,-10 3,0 2,5 -1,10 -3,6 -8,10 -11,10 -3,0 -2,-4 1,-10 z m 2046,114 1,-19 5,13 c 3,7 2,16 -1,19 -3,4 -6,-2 -5,-13 z m -901,346 c 0,-7 3,-10 7,-7 3,4 3,10 0,14 -4,3 -7,0 -7,-7 z m -1390,0 c 0,-7 3,-10 7,-7 3,4 3,10 0,14 -4,3 -7,0 -7,-7 z m 0,150 c 0,-7 3,-10 7,-7 3,4 3,10 0,14 -4,3 -7,0 -7,-7 z m 1155,450 c 3,-5 8,-10 11,-10 3,0 2,5 -1,10 -3,6 -8,10 -11,10 -3,0 -2,-4 1,-10 z m -921,-2 -7,-11 11,7 c 7,4 12,9 12,12 0,8 -9,4 -16,-8 z m 1621,92 c 10,-11 20,-20 23,-20 3,0 -3,9 -13,20 -10,11 -20,20 -23,20 -3,0 3,-9 13,-20 z m -90,90 c 10,-11 20,-20 23,-20 3,0 -3,9 -13,20 -10,11 -20,20 -23,20 -3,0 3,-9 13,-20 z m -521,-3722 -7,-11 11,7 c 12,7 16,16 8,16 -3,0 -8,-5 -12,-12 z m 40,50 -7,-11 11,7 c 12,7 16,16 8,16 -3,0 -8,-5 -12,-12 z m 40,50 -7,-11 11,7 c 12,7 16,16 8,16 -3,0 -8,-5 -12,-12 z m 100,130 -7,-11 11,7 c 7,4 12,9 12,12 0,8 -9,4 -16,-8 z m 716,1322 c 0,-7 3,-10 7,-7 3,4 3,10 0,14 -4,3 -7,0 -7,-7 z m 40,130 c 0,-7 3,-10 7,-7 3,4 3,10 0,14 -4,3 -7,0 -7,-7 z m 20,70 c 0,-7 3,-10 7,-7 3,4 3,10 0,14 -4,3 -7,0 -7,-7 z m 10,40 c 0,-7 3,-10 7,-7 3,4 3,10 0,14 -4,3 -7,0 -7,-7 z m 10,40 c 0,-7 3,-10 7,-7 3,4 3,10 0,14 -4,3 -7,0 -7,-7 z m 20,90 c 0,-7 3,-10 7,-7 3,4 3,10 0,14 -4,3 -7,0 -7,-7 z m 10,50 c 0,-7 3,-10 7,-7 3,4 3,10 0,14 -4,3 -7,0 -7,-7 z m 10,60 c 0,-7 3,-10 7,-7 3,4 3,10 0,14 -4,3 -7,0 -7,-7 z m 10,60 c 0,-7 3,-10 7,-7 3,4 3,10 0,14 -4,3 -7,0 -7,-7 z m 11,74 1,-19 5,13 c 3,7 2,16 -1,19 -3,4 -6,-2 -5,-13 z m 11,106 c 0,-14 2,-19 5,-12 2,6 2,18 0,25 -3,6 -5,1 -5,-13 z m -1489,53 c 4,-3 10,-3 14,0 3,4 0,7 -7,7 -7,0 -10,-3 -7,-7 z m -220,0 c 4,-3 10,-3 14,0 3,4 0,7 -7,7 -7,0 -10,-3 -7,-7 z m 270,10 c 4,-3 10,-3 14,0 3,4 0,7 -7,7 -7,0 -10,-3 -7,-7 z m -320,0 c 4,-3 10,-3 14,0 3,4 0,7 -7,7 -7,0 -10,-3 -7,-7 z m 616,150 -14,-18 18,14 c 16,13 21,21 13,21 -2,0 -10,-8 -17,-17 z m -914,7 c 3,-5 8,-10 11,-10 3,0 2,5 -1,10 -3,6 -8,10 -11,10 -3,0 -2,-4 1,-10 z m 984,63 -14,-18 18,14 c 9,7 17,15 17,17 0,8 -8,3 -21,-13 z m -1059,13 c 0,-2 8,-10 18,-17 l 17,-14 -14,18 c -13,16 -21,21 -21,13 z m 2131,48 1,-19 5,13 c 3,7 2,16 -1,19 -3,4 -6,-2 -5,-13 z m -10,90 1,-19 5,13 c 3,7 2,16 -1,19 -3,4 -6,-2 -5,-13 z m -11,66 c 0,-7 3,-10 7,-7 3,4 3,10 0,14 -4,3 -7,0 -7,-7 z m -10,60 c 0,-7 3,-10 7,-7 3,4 3,10 0,14 -4,3 -7,0 -7,-7 z m -880,50 c 0,-7 3,-10 7,-7 3,4 3,10 0,14 -4,3 -7,0 -7,-7 z m -1370,0 c 0,-7 3,-10 7,-7 3,4 3,10 0,14 -4,3 -7,0 -7,-7 z m 1381,74 1,-19 5,13 c 3,7 2,16 -1,19 -3,4 -6,-2 -5,-13 z m -1390,0 1,-19 5,13 c 3,7 2,16 -1,19 -3,4 -6,-2 -5,-13 z m 2219,36 c 0,-7 3,-10 7,-7 3,4 3,10 0,14 -4,3 -7,0 -7,-7 z m -829,84 1,-19 5,13 c 3,7 2,16 -1,19 -3,4 -6,-2 -5,-13 z m -1390,0 1,-19 5,13 c 3,7 2,16 -1,19 -3,4 -6,-2 -5,-13 z m 1379,76 c 0,-7 3,-10 7,-7 3,4 3,10 0,14 -4,3 -7,0 -7,-7 z m -1370,0 c 0,-7 3,-10 7,-7 3,4 3,10 0,14 -4,3 -7,0 -7,-7 z m 1180,355 c 19,-19 36,-35 39,-35 3,0 -10,16 -29,35 -19,19 -36,35 -39,35 -3,0 10,-16 29,-35 z m -991,-2 -34,-38 38,34 c 34,33 42,41 34,41 -2,0 -19,-17 -38,-37 z m 1726,47 c 3,-5 8,-10 11,-10 3,0 2,5 -1,10 -3,6 -8,10 -11,10 -3,0 -2,-4 1,-10 z m -50,60 c 3,-5 8,-10 11,-10 3,0 2,5 -1,10 -3,6 -8,10 -11,10 -3,0 -2,-4 1,-10 z m -1082,93 c 4,-3 10,-3 14,0 3,4 0,7 -7,7 -7,0 -10,-3 -7,-7 z m -200,0 c 4,-3 10,-3 14,0 3,4 0,7 -7,7 -7,0 -10,-3 -7,-7 z m 1152,37 c 3,-5 8,-10 11,-10 3,0 2,5 -1,10 -3,6 -8,10 -11,10 -3,0 -2,-4 1,-10 z m -60,50 c 3,-5 8,-10 11,-10 3,0 2,5 -1,10 -3,6 -8,10 -11,10 -3,0 -2,-4 1,-10 z m -80,60 c 3,-5 8,-10 11,-10 3,0 2,5 -1,10 -3,6 -8,10 -11,10 -3,0 -2,-4 1,-10 z m -502,233 c 4,-3 10,-3 14,0 3,4 0,7 -7,7 -7,0 -10,-3 -7,-7 z m -40,10 c 4,-3 10,-3 14,0 3,4 0,7 -7,7 -7,0 -10,-3 -7,-7 z m -40,10 c 4,-3 10,-3 14,0 3,4 0,7 -7,7 -7,0 -10,-3 -7,-7 z m -50,10 c 4,-3 10,-3 14,0 3,4 0,7 -7,7 -7,0 -10,-3 -7,-7 z m -70,10 c 4,-3 10,-3 14,0 3,4 0,7 -7,7 -7,0 -10,-3 -7,-7 z m -82.0284,16.0186 c -2.5762,0.1113 -4.6015,0.1103 -5.9765,-0.015 -11,0 -68.9903,-11.0049 -129.9903,-25.0049 -141,-30 -264.0078,-73 -388.0078,-135 -250,-125 -455.997,-307.0039 -611.997,-539.0039 -230.0001,-343 -322,-767.995 -270,-1249.995 24,-226 63.0058,-400.9932 141.0058,-642.9932 115.0001,-352 284.9912,-694.0019 515.9912,-1042.002 185,-275.9999 394.0039,-542.00184 644.0039,-817.00186 69,-75.99997 131.0029,-138.00292 138.003,-138.00292 18,0 375.996,394.99417 375.996,413.99414 0,3.99998 45.0049,62.00104 100.0049,131.00104 252,316.9999 478.001,671.0018 626.0009,982.0019 156,326.9999 262.9932,657.0077 312.9932,958.0077 30,182 33.0029,223.9991 33.0029,408.9991 l -0.9961,170.9912 -16.0107,110.0097 c -40,272 -127.999,503.9922 -273.999,721.9922 -34,51 -106.9932,139.0029 -162.9932,198.0029 -252,264 -560.0029,426 -918.0029,480 -45.5,7 -90.9951,13.2393 -109.0283,14.0186 z M 2552.871,4685.9229 c 11.795,-0.1036 24.1338,-0.4229 37.1338,-0.9229 l 95.9912,-3.999 76.0108,-23.9942 c 159,-51 287.9883,-147.9999 377.9883,-284.9999 l 48.999,-75 28.0077,-81.0059 27.9933,-81.0058 V 3990.0049 3845 l -26.9971,-72.9931 c -40.0001,-110 -83.9942,-178.0079 -173.9942,-268.0079 l -80.0097,-81.0058 -94.9952,-45.9961 -93.999,-45.9961 -77.0068,-15.9961 c -98,-19 -177.9912,-19 -275.9912,0 l -77.0068,15.9961 -94.9952,45.9961 -94.9951,45.9961 -85.0049,86.001 -86.001,86.001 -41.997,85.0048 c -23,47.0001 -49.0078,116.9952 -58.0078,154.9952 L 1867.998,3905 l 4.9951,120 4.0137,120 28.9892,79.9952 c 73.0001,198.9999 232.0049,357.0097 430.0049,425.0097 77.875,27.125 134.3057,36.6426 216.8701,35.918 z"
         sodipodi:nodetypes="sccsccsccscsccccccsccssccssccscscsccccscsssssssssscccsccccsccccsccccscsccssccssccssccssccssccssccssccssccscccccsccsccscccscccscccscsccsscscscccsscscccsccccccccccsccssccssccssccsccccccccccsccsccccccccccsccssccsssssscccsccscsccscscccscccsccscsccscsccscscccscccscccscccscccscsccscccccsscccccccccsssccccccccccccccccccccccccccccs" />
    </g>
  </g>
</svg>
