<?xml version="1.0" encoding="UTF-8" standalone="no"?>
<svg
   xmlns:dc="http://purl.org/dc/elements/1.1/"
   xmlns:cc="http://creativecommons.org/ns#"
   xmlns:rdf="http://www.w3.org/1999/02/22-rdf-syntax-ns#"
   xmlns:svg="http://www.w3.org/2000/svg"
   xmlns="http://www.w3.org/2000/svg"
   xmlns:sodipodi="http://sodipodi.sourceforge.net/DTD/sodipodi-0.dtd"
   xmlns:inkscape="http://www.inkscape.org/namespaces/inkscape"
   width="259"
   height="55.845501"
   version="1.1"
   id="svg320"
   sodipodi:docname="AnyConv.com__para-svg.svg"
   inkscape:version="1.0.2 (e86c870879, 2021-01-15, custom)">
  <metadata
     id="metadata326">
    <rdf:RDF>
      <cc:Work
         rdf:about="">
        <dc:format>image/svg+xml</dc:format>
        <dc:type
           rdf:resource="http://purl.org/dc/dcmitype/StillImage" />
        <dc:title></dc:title>
      </cc:Work>
    </rdf:RDF>
  </metadata>
  <defs
     id="defs324" />
  <sodipodi:namedview
     pagecolor="#ffffff"
     bordercolor="#666666"
     borderopacity="1"
     objecttolerance="10"
     gridtolerance="10"
     guidetolerance="10"
     inkscape:pageopacity="0"
     inkscape:pageshadow="2"
     inkscape:window-width="1366"
     inkscape:window-height="705"
     id="namedview322"
     showgrid="false"
     inkscape:pagecheckerboard="true"
     lock-margins="true"
     fit-margin-top="0"
     fit-margin-left="0"
     fit-margin-right="0"
     fit-margin-bottom="0"
     inkscape:zoom="1.1009434"
     inkscape:cx="153.93944"
     inkscape:cy="15.77631"
     inkscape:window-x="-8"
     inkscape:window-y="-8"
     inkscape:window-maximized="1"
     inkscape:current-layer="svg320" />
  <path
     style="fill:#fdbb29;stroke:none"
     d="M 28,14.845501 C 29.0103,9.2710006 31.7131,5.9122306 37,3.8455006 33.1741,1.4266106 26.6092,-1.6265394 22.2284,1.0252806 14.5533,5.6712906 21.8696,14.160401 28,14.845501 Z"
     id="path4" />
  <path
     style="fill:#fdfdfd;stroke:none"
     d="m 23,1.8455006 -1,4 h 1 l 2,-4 z"
     id="path6" />
  <path
     style="fill:#f9a213;stroke:none"
     d="m 27,15.845501 17,10 c 0.1521,-6.2929 2.0958,-10.5143 9,-10 -8.5107,-11.5552504 -21.2547,-16.35763036 -26,0 z"
     id="path8" />
  <path
     style="fill:#f9ea76;stroke:none"
     d="m 19.0046,13.057701 c -7.2982,1.7994 -5.4874,11.6234 1.9993,9.8009 8.697,-2.1171 5.9927,-11.7713 -1.9993,-9.8009 z"
     id="path10" />
  <path
     style="fill:#fee5ae;stroke:none"
     d="m 44,25.845501 c 6.8295,-0.1652 9.119,-2.5947 11,-9 -8.0839,-3.3383 -10.9303,1.3035 -11,9 z"
     id="path12" />
  <path
     style="fill:#8cc26d;stroke:none"
     d="m 18,16.845501 v 2 h 6 v -2 z"
     id="path14" />
  <path
     style="fill:#f9db54;stroke:none"
     d="m 28,15.845501 c -3.5215,7.3688 -13.5855,9.4044 -21,7 l -1,5 H 5 l -1,-2 -4,15 h 1 l 2,-8 23,-5 c -0.3981,-4.5949 1.6377,-5.7187 6,-5 z"
     id="path16" />
  <path
     style="fill:#feb3b1;stroke:none"
     d="m 8,17.845501 v 1 h 5 z"
     id="path18" />
  <path
     style="fill:#fed987;stroke:none"
     d="m 54,17.845501 c -1.0609,5.2103 -3.7658,7.4154 -9,8 v 1 l 3,3 c 5.5963,-1.8033 10.2527,-6.3571 6,-12 z"
     id="path20" />
  <path
     style="fill:#dd6b20;stroke:none"
     d="m 86,28.845501 h -6 v 3 h 4 c -2.9118,17.9793 -17.0455,-10.9929 -4.0216,-9.7276 2.0614,0.2002 4.1651,1.8778 6.0216,2.7276 -0.8698,-5.4697 -6.9605,-9.3721 -11.6821,-4.6813 -2.9342,2.915 -2.4698,7.8862 -2.2778,11.6813 0.3042,6.0111 6.3134,14.1804 12.3565,7.4861 2.3613,-2.6158 1.603,-7.2416 1.6034,-10.4861 z"
     id="path22" />
  <path
     style="fill:#f2caaf;stroke:none"
     d="m 81.6667,18.178801 0.6666,0.3334 z"
     id="path24" />
  <path
     style="fill:#cf895a;stroke:none"
     d="m 108,17.845501 v 24 h 1 z"
     id="path26" />
  <path
     style="fill:#9d4c16;stroke:none"
     d="m 109,17.845501 v 24 h 2 v -11 c 5.796,0.9434 7.203,5.6833 8,11 h 4 c -2.778,-13.3164 3.662,-23.9981 -14,-24 z"
     id="path28" />
  <path
     style="fill:#ff6965;stroke:none"
     d="m 7,18.845501 c 1.6083,10.078 13.0476,0.1546 0,0 z"
     id="path30" />
  <path
     style="fill:#f9d129;stroke:none"
     d="m 32,18.845501 c 0.1918,10.2138 -7.2073,9.816 -16,11 -2.1822,3.9419 -4.8674,4.1498 -8,1 -9.8688,8.0602 -3.90153,14.674 -3,25 h 1 c 0.0183,-6.6315 0.79293,-12.896 7.0401,-16.6327 2.8153,-1.684 7.4905,-3.4572 9.7809,-0.0486 2.0483,3.0482 1.179,8.1917 1.179,11.6813 h 2 v -14 h 2 v 6 h 1 c 0.2198,-10.2653 6.0272,-12.4528 15,-15 v -2 z"
     id="path32" />
  <path
     style="fill:#6e6a66;stroke:none"
     d="m 160,18.845501 v 1 h 3 v 4 h 1 v -5 z"
     id="path34" />
  <path
     style="fill:#8c8987;stroke:none"
     d="m 251,18.845501 v 1 h 4 z"
     id="path36" />
  <path
     style="fill:#dad8d6;stroke:none"
     d="m 159,19.845501 v 4 h 1 z"
     id="path38" />
  <path
     style="fill:#433830;stroke:none"
     d="m 160,19.845501 v 4 h 1 z"
     id="path40" />
  <path
     style="fill:#120901;stroke:none"
     d="m 161,19.845501 -3,4 v 3 h 3 c 0,5.5893 -2.011,13.8299 5,15 l -3,-15 h 4 v -3 h -4 v -4 z"
     id="path42" />
  <path
     style="fill:#4f4b47;stroke:none"
     d="m 251,19.845501 v 4 h 1 z"
     id="path44" />
  <path
     style="fill:#0c0600;stroke:none"
     d="m 252,19.845501 -3,4 v 3 h 3 v 14 l 5,1 -3,-15 h 4 v -3 h -4 v -4 z"
     id="path46" />
  <path
     style="fill:#4f4b47;stroke:none"
     d="m 254,19.845501 v 4 h 1 z"
     id="path48" />
  <path
     style="fill:#fdfdfd;stroke:none"
     d="m 112,20.845501 v 7 c 8.055,-0.2645 7.964,-6.5588 0,-7 z"
     id="path50" />
  <path
     style="fill:#ff6965;stroke:none"
     d="m 26.6219,22.887901 c -3.302,2.4901 1.9043,6.2892 4.5779,3.9298 2.8422,-2.508 -2.0772,-5.8155 -4.5779,-3.9298 z"
     id="path52" />
  <path
     style="fill:#e6935d;stroke:none"
     d="m 86,21.845501 -2,1 h -1 l 4,3 z"
     id="path54" />
  <path
     style="fill:#f5dbc9;stroke:none"
     d="m 71,22.845501 v 14 h 1 z"
     id="path56" />
  <path
     style="fill:#eaa579;stroke:none"
     d="m 75,22.845501 v 14 h 1 z"
     id="path58" />
  <path
     style="fill:#c99f83;stroke:none"
     d="m 119,22.845501 v 3 h 1 z"
     id="path60" />
  <path
     style="fill:#e3d2c6;stroke:none"
     d="m 123,22.845501 v 4 h 1 z"
     id="path62" />
  <path
     style="fill:#8cc898;stroke:none"
     d="m 4,23.845501 1,4 h 1 z"
     id="path64" />
  <path
     style="fill:#dd6b20;stroke:none"
     d="m 94.1481,24.877101 c -6.9418,3.9959 -2.8353,21.3424 6.5729,15.6497 6.991,-4.2296 2.678,-20.9746 -6.5729,-15.6497 z"
     id="path66" />
  <path
     style="fill:#7e3d11;stroke:none"
     d="m 139,36.845501 c -4.303,0.78 -7.449,1.8488 -9,-3 h 9 c -0.026,-7.4003 -10.092,-15.2386 -11.852,-4.9059 -1.418,8.3258 7.97,19.2314 11.852,7.9059 z"
     id="path68" />
  <path
     style="fill:#321906;stroke:none"
     d="m 152,34.845501 c -2.263,3.8561 -5.032,2.6255 -9,2 4.132,8.1918 15.969,2.723 10.396,-3.3009 -1.804,-1.9493 -4.997,-2.7659 -7.396,-3.6991 v -2 l 9,1 c -3.884,-11.3325 -18.918,3.1066 -3,6 z"
     id="path70" />
  <path
     style="fill:#cfc9c5;stroke:none"
     d="m 151.667,24.178801 0.666,0.3334 z"
     id="path72" />
  <path
     style="fill:#c9c5c2;stroke:none"
     d="m 157,23.845501 v 3 h 1 z"
     id="path74" />
  <path
     style="fill:#0c0600;stroke:none"
     d="m 171,28.845501 c 3.947,-0.7155 6.697,-1.7988 9,2 -12.827,0.1161 -11.288,13.5418 0,9 l 3,2 c 0,-4.249 1.268,-11.0181 -1.028,-14.7716 -3.103,-5.0723 -9.456,-3.0287 -10.972,1.7716 z"
     id="path76" />
  <path
     style="fill:#c4c3c2;stroke:none"
     d="m 186,23.845501 v 14 h 1 z"
     id="path78" />
  <path
     style="fill:#0c0600;stroke:none"
     d="m 187,23.845501 c 0,7.6153 -1.321,20.6671 10,16 l 3,2 v -18 h -3 c 0,15.3746 -7,15.3746 -7,0 z"
     id="path80" />
  <path
     style="fill:#6d6966;stroke:none"
     d="m 190,23.845501 v 13 h 1 l -1,-13 m 6,0 v 13 h 1 z"
     id="path82" />
  <path
     style="fill:#c4c3c2;stroke:none"
     d="m 200,23.845501 v 18 h 1 z"
     id="path84" />
  <path
     style="fill:#6d6966;stroke:none"
     d="m 204,23.845501 v 18 h 1 z"
     id="path86" />
  <path
     style="fill:#0c0600;stroke:none"
     d="m 205,23.845501 v 18 h 3 l 5,-18 -4,2 z"
     id="path88" />
  <path
     style="fill:#7e7b78;stroke:none"
     d="m 213,23.845501 v 3 h 1 z"
     id="path90" />
  <path
     style="fill:#4b4743;stroke:none"
     d="m 219.667,24.178801 0.666,0.3334 z"
     id="path92" />
  <path
     style="fill:#0c0600;stroke:none"
     d="m 216,28.845501 c 4.323,-0.4758 6.877,-1.4677 10,2 -4.452,0.0157 -16.047,4.6927 -7.682,9.9545 2.536,1.5952 6.734,0.357 9.682,1.0455 0,-4.2675 1.226,-10.7936 -0.603,-14.7215 -2.586,-5.5507 -9.378,-2.029 -11.397,1.7215 z"
     id="path94" />
  <path
     style="fill:#66625f;stroke:none"
     d="m 224,23.845501 1,1 z"
     id="path96" />
  <path
     style="fill:#c4c3c2;stroke:none"
     d="m 232,23.845501 v 18 h 1 z"
     id="path98" />
  <path
     style="fill:#0c0600;stroke:none"
     d="m 233,23.845501 v 18 h 3 c 0,-15.3746 7,-15.3746 7,0 h 3 c 0,-8.0276 1.563,-20.0805 -10,-16 z"
     id="path100" />
  <path
     style="fill:#494541;stroke:none"
     d="m 236,23.845501 v 2 h 2 z"
     id="path102" />
  <path
     style="fill:#48433f;stroke:none"
     d="m 238.667,24.178801 0.666,0.3334 z"
     id="path104" />
  <path
     style="fill:#c4c3c2;stroke:none"
     d="m 258,23.845501 v 3 h 1 z"
     id="path106" />
  <path
     style="fill:#cd7c39;stroke:none"
     d="m 17,24.845501 v 2 h 2 v -2 z"
     id="path108" />
  <path
     style="fill:#b1a196;stroke:none"
     d="m 144,24.845501 1,1 z"
     id="path110" />
  <path
     style="fill:#84766b;stroke:none"
     d="m 153,24.845501 1,1 z"
     id="path112" />
  <path
     style="fill:#a3a19f;stroke:none"
     d="m 217,24.845501 1,1 z"
     id="path114" />
  <path
     style="fill:#85827f;stroke:none"
     d="m 244,24.845501 1,1 z"
     id="path116" />
  <path
     style="fill:#db912c;stroke:none"
     d="m 36,25.845501 v 2 h 2 v -2 z"
     id="path118" />
  <path
     style="fill:#ff9200;stroke:none"
     d="m 44,25.845501 c -1.3897,2.3162 -3.1277,2.3745 0,3 v 1 l -13,4 v 1 l 17,-5 z"
     id="path120" />
  <path
     style="fill:#b98a6b;stroke:none"
     d="m 122.333,26.512201 0.334,0.6666 z"
     id="path122" />
  <path
     style="fill:#6e4e37;stroke:none"
     d="m 143,25.845501 v 5 h 1 z"
     id="path124" />
  <path
     style="fill:#a8a6a4;stroke:none"
     d="m 216,25.845501 1,1 z"
     id="path126" />
  <path
     style="fill:#635f5c;stroke:none"
     d="m 245.333,26.512201 0.334,0.6666 z"
     id="path128" />
  <path
     style="fill:#fdfdfd;stroke:none"
     d="m 96.5448,28.021401 c -2.6885,1.7016 -1.7168,11.9439 1.9102,9.6482 2.689,-1.7016 1.717,-11.9439 -1.9102,-9.6482 z"
     id="path130" />
  <path
     style="fill:#c9b4a6;stroke:none"
     d="m 132.667,27.178801 0.666,0.3334 z"
     id="path132" />
  <path
     style="fill:#c3bab4;stroke:none"
     d="m 148,26.845501 v 1 h 3 z"
     id="path134" />
  <path
     style="fill:#a79f99;stroke:none"
     d="m 155,26.845501 v 3 h 1 z"
     id="path136" />
  <path
     style="fill:#dad8d6;stroke:none"
     d="m 158,26.845501 1,12 h 1 z"
     id="path138" />
  <path
     style="fill:#423830;stroke:none"
     d="m 160,26.845501 v 13 h 1 z"
     id="path140" />
  <path
     style="fill:#6e6a66;stroke:none"
     d="m 163,26.845501 v 11 h 1 z"
     id="path142" />
  <path
     style="fill:#c0bebd;stroke:none"
     d="m 164,26.845501 v 1 h 3 z"
     id="path144" />
  <path
     style="fill:#4f4b47;stroke:none"
     d="m 170.333,27.512201 0.334,0.6666 z"
     id="path146" />
  <path
     style="fill:#b2b0af;stroke:none"
     d="m 175,26.845501 v 1 h 3 z"
     id="path148" />
  <path
     style="fill:#acaaa9;stroke:none"
     d="m 210,26.845501 v 1 h 3 z"
     id="path150" />
  <path
     style="fill:#c4c3c2;stroke:none"
     d="m 215.333,27.512201 0.334,0.6666 z"
     id="path152" />
  <path
     style="fill:#b2b0af;stroke:none"
     d="m 221,26.845501 v 1 h 3 z"
     id="path154" />
  <path
     style="fill:#38332f;stroke:none"
     d="m 228,26.845501 v 15 h 1 z"
     id="path156" />
  <path
     style="fill:#afadac;stroke:none"
     d="m 238,26.845501 v 1 h 3 z"
     id="path158" />
  <path
     style="fill:#b3b1b0;stroke:none"
     d="m 249.667,27.178801 0.666,0.3334 z"
     id="path160" />
  <path
     style="fill:#4f4b47;stroke:none"
     d="m 251,26.845501 v 13 h 1 l -1,-13 m 3,0 v 11 h 1 z"
     id="path162" />
  <path
     style="fill:#ff6965;stroke:none"
     d="m 10.3326,28.927301 c -3.63404,2.0859 0.3072,5.7005 3.3348,4.2963 3.5752,-1.6582 -0.3026,-6.0368 -3.3348,-4.2963 z"
     id="path164" />
  <path
     style="fill:#edb590;stroke:none"
     d="m 90,27.845501 v 8 h 1 z"
     id="path166" />
  <path
     style="fill:#a67554;stroke:none"
     d="m 126,27.845501 v 10 h 1 z"
     id="path168" />
  <path
     style="fill:#fdfdfd;stroke:none"
     d="m 130,27.845501 v 4 h 6 v -4 z"
     id="path170" />
  <path
     style="fill:#8d6850;stroke:none"
     d="m 139,27.845501 v 6 h -9 v 1 h 10 z"
     id="path172" />
  <path
     style="fill:#a08f82;stroke:none"
     d="m 146.333,28.512201 0.334,0.6666 z"
     id="path174" />
  <path
     style="fill:#868381;stroke:none"
     d="m 179,27.845501 v 3 h 1 z"
     id="path176" />
  <path
     style="fill:#a7a5a3;stroke:none"
     d="m 183,27.845501 v 14 h 1 z"
     id="path178" />
  <path
     style="fill:#c4c3c2;stroke:none"
     d="m 246,27.845501 v 14 h 1 z"
     id="path180" />
  <path
     style="fill:#f16f1d;stroke:none"
     d="m 30,34.845501 14,-5 c -5.0571,-2.0618 -11.3533,0.3487 -14,5 z"
     id="path182" />
  <path
     style="fill:#eaa579;stroke:none"
     d="m 79,28.845501 v 3 h 1 z"
     id="path184" />
  <path
     style="fill:#e6945e;stroke:none"
     d="m 86,28.845501 v 9 h 1 z"
     id="path186" />
  <path
     style="fill:#f5dbc9;stroke:none"
     d="m 94,28.845501 v 8 h 1 z"
     id="path188" />
  <path
     style="fill:#efc8ae;stroke:none"
     d="m 100,28.845501 v 8 h 1 z"
     id="path190" />
  <path
     style="fill:#ebc5ad;stroke:none"
     d="m 104,28.845501 v 8 h 1 z"
     id="path192" />
  <path
     style="fill:#685649;stroke:none"
     d="m 152,28.845501 v 1 h 3 z"
     id="path194" />
  <path
     style="fill:#c4c3c2;stroke:none"
     d="m 208,28.845501 v 13 h 1 z"
     id="path196" />
  <path
     style="fill:#403b37;stroke:none"
     d="m 225.333,29.512201 0.334,0.6666 z"
     id="path198" />
  <path
     style="fill:#d7d6d6;stroke:none"
     d="m 229,28.845501 v 13 h 1 z"
     id="path200" />
  <path
     style="fill:#6d6966;stroke:none"
     d="m 236,28.845501 v 13 h 1 l -1,-13 m 6,0 v 13 h 1 z"
     id="path202" />
  <path
     style="fill:#c0bebd;stroke:none"
     d="m 174,29.845501 v 1 h 5 l -5,-1 m 46,0 v 1 h 5 z"
     id="path204" />
  <path
     style="fill:#4aab69;stroke:none"
     d="m 22,30.845501 v 1 h 4 z"
     id="path206" />
  <path
     style="fill:#c17644;stroke:none"
     d="m 111,30.845501 v 11 h 1 z"
     id="path208" />
  <path
     style="fill:#c59779;stroke:none"
     d="m 119.333,31.512201 0.334,0.6666 z"
     id="path210" />
  <path
     style="fill:#74716e;stroke:none"
     d="m 172,30.845501 1,1 z"
     id="path212" />
  <path
     style="fill:#e6945e;stroke:none"
     d="m 83,31.845501 v 5 h 1 z"
     id="path214" />
  <path
     style="fill:#b4a398;stroke:none"
     d="m 144,31.845501 1,1 z"
     id="path216" />
  <path
     style="fill:#a8a6a4;stroke:none"
     d="m 216,31.845501 1,1 z"
     id="path218" />
  <path
     style="fill:#d48d6d;stroke:none"
     d="m 3,32.845501 v 2 h 2 v -2 z"
     id="path220" />
  <path
     style="fill:#e1c7b6;stroke:none"
     d="m 116.333,33.512201 0.334,0.6666 z"
     id="path222" />
  <path
     style="fill:#a29185;stroke:none"
     d="m 146,32.845501 1,1 z"
     id="path224" />
  <path
     style="fill:#a7a5a3;stroke:none"
     d="m 169,33.845501 v 5 h 1 z"
     id="path226" />
  <path
     style="fill:#8f8c8a;stroke:none"
     d="m 174,33.845501 1,1 z"
     id="path228" />
  <path
     style="fill:#fdfdfd;stroke:none"
     d="m 174,37.845501 h 5 v -4 z"
     id="path230" />
  <path
     style="fill:#868381;stroke:none"
     d="m 179,33.845501 v 3 h 1 z"
     id="path232" />
  <path
     style="fill:#6d6966;stroke:none"
     d="m 215,33.845501 v 5 h 1 z"
     id="path234" />
  <path
     style="fill:#fdfdfd;stroke:none"
     d="m 219,37.845501 c 3.41,-0.2626 4.901,-0.6787 6,-4 -3.41,0.2626 -4.901,0.6787 -6,4 z"
     id="path236" />
  <path
     style="fill:#4f4b47;stroke:none"
     d="m 225,33.845501 v 3 h 1 z"
     id="path238" />
  <path
     style="fill:#fed59e;stroke:none"
     d="m 30.6667,35.178801 0.6666,0.3334 z"
     id="path240" />
  <path
     style="fill:#d0a88d;stroke:none"
     d="m 117.333,35.512201 0.334,0.6666 z"
     id="path242" />
  <path
     style="fill:#76685f;stroke:none"
     d="m 155,34.845501 v 4 h 1 z"
     id="path244" />
  <path
     style="fill:#a4a2a0;stroke:none"
     d="m 173,34.845501 v 3 h 1 z"
     id="path246" />
  <path
     style="fill:#e9a173;stroke:none"
     d="m 72.3333,36.512201 0.3334,0.6666 z"
     id="path248" />
  <path
     style="fill:#be9072;stroke:none"
     d="m 121.333,36.512201 0.334,0.6666 z"
     id="path250" />
  <path
     style="fill:#d0c2b8;stroke:none"
     d="m 136.667,36.178801 0.666,0.3334 z"
     id="path252" />
  <path
     style="fill:#7c604c;stroke:none"
     d="m 143,35.845501 v 1 h 3 z"
     id="path254" />
  <path
     style="fill:#55ad64;stroke:none"
     d="m 4,40.845501 5,-4 z"
     id="path256" />
  <path
     style="fill:#ff9200;stroke:none"
     d="m 7,49.845501 h 1 c 3.855,-6.4507 7.8639,-9.5662 15,-12 -8.5487,-3.5524 -15.7578,3.8435 -16,12 z"
     id="path258" />
  <path
     style="fill:#e6b493;stroke:none"
     d="m 103.333,37.512201 0.334,0.6666 z"
     id="path260" />
  <path
     style="fill:#d2c5bd;stroke:none"
     d="m 139.333,37.512201 0.334,0.6666 z"
     id="path262" />
  <path
     style="fill:#917c6e;stroke:none"
     d="m 146,36.845501 1,1 z"
     id="path264" />
  <path
     style="fill:#504c48;stroke:none"
     d="m 187,36.845501 v 3 h 1 z"
     id="path266" />
  <path
     style="fill:#93908e;stroke:none"
     d="m 224,36.845501 1,1 z"
     id="path268" />
  <path
     style="fill:#d8ca34;stroke:none"
     d="m 5,39.845501 3,-2 z"
     id="path270" />
  <path
     style="fill:#d8b8a3;stroke:none"
     d="m 118.333,38.512201 0.334,0.6666 z"
     id="path272" />
  <path
     style="fill:#d2c2b6;stroke:none"
     d="m 132,37.845501 v 1 h 3 z"
     id="path274" />
  <path
     style="fill:#c3bab4;stroke:none"
     d="m 148,37.845501 v 1 h 3 z"
     id="path276" />
  <path
     style="fill:#a8a6a4;stroke:none"
     d="m 175,37.845501 v 1 h 3 z"
     id="path278" />
  <path
     style="fill:#afadac;stroke:none"
     d="m 192,37.845501 v 1 h 3 z"
     id="path280" />
  <path
     style="fill:#b2b0af;stroke:none"
     d="m 220,37.845501 v 1 h 3 z"
     id="path282" />
  <path
     style="fill:#c7c6c5;stroke:none"
     d="m 256.667,38.178801 0.666,0.3334 z"
     id="path284" />
  <path
     style="fill:#fece8e;stroke:none"
     d="m 18.6667,39.178801 0.6666,0.3334 z"
     id="path286" />
  <path
     style="fill:#ac9a8d;stroke:none"
     d="m 143,38.845501 1,1 z"
     id="path288" />
  <path
     style="fill:#6d6966;stroke:none"
     d="m 166,38.845501 v 3 h 1 z"
     id="path290" />
  <path
     style="fill:#4f4b47;stroke:none"
     d="m 257,38.845501 v 3 h 1 z"
     id="path292" />
  <path
     style="fill:#ab907d;stroke:none"
     d="m 137,39.845501 1,1 z"
     id="path294" />
  <path
     style="fill:#a69386;stroke:none"
     d="m 144,39.845501 1,1 z"
     id="path296" />
  <path
     style="fill:#5e5a57;stroke:none"
     d="m 178,39.845501 2,2 v -2 z"
     id="path298" />
  <path
     style="fill:#74716e;stroke:none"
     d="m 188,39.845501 1,1 z"
     id="path300" />
  <path
     style="fill:#494541;stroke:none"
     d="m 195,39.845501 2,2 v -2 z"
     id="path302" />
  <path
     style="fill:#a8a6a4;stroke:none"
     d="m 216,39.845501 1,1 z"
     id="path304" />
  <path
     style="fill:#403b37;stroke:none"
     d="m 224,39.845501 2,2 v -2 z"
     id="path306" />
  <path
     style="fill:#f2cbb1;stroke:none"
     d="m 81.6667,41.178801 0.6666,0.3334 z"
     id="path308" />
  <path
     style="fill:#48433f;stroke:none"
     d="m 172.667,41.178801 0.666,0.3334 z"
     id="path310" />
  <path
     style="fill:#999795;stroke:none"
     d="m 177,40.845501 1,1 z"
     id="path312" />
  <path
     style="fill:#413c38;stroke:none"
     d="m 253.667,41.178801 0.666,0.3334 z"
     id="path314" />
  <path
     style="fill:#f9a24e;stroke:none"
     d="m 6,46.845501 2,6 z"
     id="path316" />
  <path
     style="fill:#fbe792;stroke:none"
     d="m 6.33333,53.512201 0.33334,0.6666 z"
     id="path318" />
</svg>
