<?xml version="1.0" encoding="UTF-8" standalone="no"?>
<svg
   xmlns:dc="http://purl.org/dc/elements/1.1/"
   xmlns:cc="http://creativecommons.org/ns#"
   xmlns:rdf="http://www.w3.org/1999/02/22-rdf-syntax-ns#"
   xmlns:svg="http://www.w3.org/2000/svg"
   xmlns="http://www.w3.org/2000/svg"
   xmlns:sodipodi="http://sodipodi.sourceforge.net/DTD/sodipodi-0.dtd"
   xmlns:inkscape="http://www.inkscape.org/namespaces/inkscape"
   width="495.91516"
   height="497.94305"
   version="1.1"
   id="svg48"
   sodipodi:docname="delivery-world.svg"
   inkscape:version="1.0.2 (e86c870879, 2021-01-15, custom)">
  <metadata
     id="metadata54">
    <rdf:RDF>
      <cc:Work
         rdf:about="">
        <dc:format>image/svg+xml</dc:format>
        <dc:type
           rdf:resource="http://purl.org/dc/dcmitype/StillImage" />
        <dc:title></dc:title>
      </cc:Work>
    </rdf:RDF>
  </metadata>
  <defs
     id="defs52" />
  <sodipodi:namedview
     pagecolor="#ffffff"
     bordercolor="#666666"
     borderopacity="1"
     objecttolerance="10"
     gridtolerance="10"
     guidetolerance="10"
     inkscape:pageopacity="0"
     inkscape:pageshadow="2"
     inkscape:window-width="1366"
     inkscape:window-height="705"
     id="namedview50"
     showgrid="false"
     inkscape:pagecheckerboard="true"
     lock-margins="true"
     fit-margin-top="0"
     fit-margin-left="0"
     fit-margin-right="0"
     fit-margin-bottom="0"
     inkscape:zoom="1.0507812"
     inkscape:cx="248.28779"
     inkscape:cy="248.52293"
     inkscape:window-x="-8"
     inkscape:window-y="-8"
     inkscape:window-maximized="1"
     inkscape:current-layer="svg48" />
  <path
     style="fill:#f97878;stroke:none"
     d="m 104.28779,205.84223 c 9.12,-13.153 16.093,-28.693 23.247,-43 19.84,-39.68 48.653,-88.995599 19.548,-130.999999 -16.144,-23.2987998 -57.060004,-41.9599 -84.625204,-25.7214998 -15.9594,9.4015998 -23.2542,36.5785998 -22.0803,53.7214998 2.6498,38.694 28.1692,79.625999 46.2191,112.999999 5.8234,10.768 13.503404,21.495 17.691404,33 z"
     id="path4" />
  <path
     style="fill:#a7d0e1;stroke:none"
     d="m 142.28779,24.842231 c 6.365,15.056 16.624,25.7132 18,43 13.033,5.0492 20.355,20.5216 12.786,32.999999 -3.135,5.17 -8.067,9.567 -13.786,11.612 -3.358,1.201 -8.296,0.617 -10.586,3.706 -3.616,4.874 -5.189,12.164 -7.723,17.682 -5.717,12.455 -11.661,24.817 -17.949,37 -10.371,20.093 -27.388004,41.398 -33.742004,63 h -2 l -6,-13 h -2 l -6,12 h -2 l -38,-71 h -1 c -1.6988,17.044 -6.7236,33.668 -7.9105,51 -2.5877,37.789 5.4923,78.44 20.7724,113 4.7238,10.684 10.2807,21.022 16.341,31 2.3289,3.834 4.9488,9.678 8.9815,11.972 4.6249,2.632 12.9446,0.976 17.8156,-0.211 25.639004,-6.252 20.241004,-27.387 24.681004,-46.761 3.881,-16.936 20.513,-32.206 38.319,-31.981 5.785,0.072 11.711,1.547 17,3.857 28.816,12.581 24,44.454 24,70.124 0,9.825 -1.386,20.867 5.34,28.985 14.242,17.188 63.702,-0.496 58.45,36.015 -4.974,34.58 -48.139,8.086 -59.79,33 52.542,23.261 126.227,13.877 177,-9.309 13.925,-6.359 27.324,-13.776 40,-22.362 6.251,-4.233 12.567,-11.694 20,-13.329 l 28,-39 h -56 c -8.422,0 -18.882,1.649 -27,-0.8 -13.917,-4.198 -19.434,-18.09 -17,-31.2 l -8,-10 h -2 c -10.311,14.319 -18.153,-5.229 -24.667,-15 -12.905,-19.358 -29.885,-42.78 -17.021,-66 18.499,-33.389 79.598,-27.568 89.761,10 7.032,25.997 -20.798,47.487 -29.073,69 14.712,-5.263 29.418,-4 45,-4 h 69 c 11.016,-48.052 17.124,-93.225 4.873,-142 -3.83,-15.25 -7.372,-43.842 -26.873,-41.895 -12.559,1.254 -14,12.832 -14,22.895 0,15.969 0.634,34.038 -18,40.084 -3.762,1.221 -8.209,1.259 -12,0.116 -30.341,-9.152 -7.403,-40.44 -21.394,-57.107 -12.001,-14.295 -33.937,0.188 -47.266,-16.097 -10.537,-12.873 -3.507,-31.296 11.66,-36.862999 7.921,-2.907 18.663,-1.133 27,-1.133 h 56 c -10.123,-22.7128 -39.564,-43.4014 -60,-56.4128 -71.908,-45.7841298 -164.523,-53.29936 -242,-16.5872 z"
     id="path6" />
  <path
     style="fill:#ed5d5d;stroke:none"
     d="m 59.287786,6.8422312 c -9.1961,5.3673998 -17.5386,10.0579998 -24.9097,17.9999998 -31.1822996,33.5972 -14.8718,75.125 1.6011,110.999999 15.2175,33.141 32.2622,65.88 51.3086,97 h 2 c 4.268,-6.974 14.852004,-19.625 14.512004,-28 -0.459,-11.331 -14.161504,-26.892 -19.264304,-37 -15.8568,-31.411 -35.7822,-64.089 -42.8758,-98.999999 -2.9561,-14.5485 -0.7171,-28.7695 5.8982,-42 2.8237,-5.6474 11.8794,-14.037 11.7299,-19.9999998 z"
     id="path8" />
  <path
     style="fill:#fcc2c2;stroke:none"
     d="m 110.28779,14.842231 v 1 h 4 z"
     id="path10" />
  <path
     style="fill:#ffffff;stroke:none"
     d="m 108.34679,16.870031 c -13.412004,7.3214 15.458,29.3595 23.727,24.5146 13.993,-8.1985 -13.577,-30.0559 -23.727,-24.5146 z"
     id="path12" />
  <path
     style="fill:#f8c460;stroke:none"
     d="m 80.287786,34.309831 c -49.8714,9.4085 -35.5663,87.678399 14,78.917399 6.497004,-1.148 12.595004,-3.296 18.000004,-7.174 34.259,-24.574399 8.385,-79.362199 -32.000004,-71.743399 m 80.000004,33.5324 -10,45.999999 c 25.269,-0.212 38.457,-39.234399 10,-45.999999 m 314,77.999999 c -5.201,-12.492 -12.344,-24.95 -20.144,-36 -2.62,-3.712 -5.514,-9.633 -9.946,-11.396999 -7.212,-2.869 -19.187,-0.603 -26.91,-0.603 -16.869,0 -39.842,-4.0736 -56,0.8 -11.805,3.560999 -19.043,16.301999 -16.62,28.199999 6.293,30.903 41.279,7.539 53.611,28.004 10.3,17.093 -8.878,45.784 19.009,54.196 3.4,1.026 7.496,1.1 11,0.59 35.49,-5.159 5.821,-50.223 30,-62.333 4.727,-2.368 10.871,-1.457 16,-1.457 z"
     id="path14" />
  <path
     style="fill:#80bbce;stroke:none"
     d="m 31.287786,127.84223 c -30.0893196,57.187 -39.5866586,121.967 -23.6257996,185 3.6014996,14.223 8.8207996,27.564 14.6257996,41 1.8888,4.372 4.2072,12.304 8.3904,14.972 3.0399,1.939 8.1717,1.028 11.6096,1.028 h 28 c -23.4651,-42.148 -43.7945,-82.531 -45.9606,-132 -0.6768,-15.456 -0.2099,-31.727 2.2854,-47 1.5549,-9.517 5.1857,-19.442 5.6752,-29 h 1 c 7.1559,24.84 25.9033,48.272 38,71 h 2 l 5.8171,-14 -14.5085,-27 -22.0617,-43 z"
     id="path16" />
  <path
     style="fill:#f8c460;stroke:none"
     d="m 186.28779,170.37423 c -19.625,4.676 -23.437,29.95 -8.985,42.139 13.892,11.716 32.296,0.08 43.852,18.329 11.807,18.648 -10.608,60.812 22.133,66.671 3.156,0.564 6.856,0.59 10,-0.051 33.608,-6.844 9.059,-49.712 23.532,-68.619 13.784,-18.006 43.996,-3.107 50.855,-29.001 3.483,-13.146 -5.31,-26.493 -18.387,-29.33 -23.633,-5.127 -52.803,-0.67 -77,-0.67 -14.353,0 -32.03,-2.796 -46,0.532 z"
     id="path18" />
  <path
     style="fill:#cd9ba4;stroke:none"
     d="m 87.954486,233.17523 0.6666,0.334 z"
     id="path20" />
  <path
     style="fill:#80bbce;stroke:none"
     d="m 352.28779,335.84223 v -1 c -18.082,-22.801 -46.001,-59.617 -21.816,-86.999 5.401,-6.114 11.946,-8.991 18.816,-13.001 -19.808,-8.312 -43.543,15.438 -44.91,34 -1.355,18.403 11.176,36.392 20.91,51 3.218,4.829 12.666,23.792 19,23.793 3.308,0.001 6.208,-5.536 8,-7.793 z"
     id="path22" />
  <path
     style="fill:#f97878;stroke:none"
     d="m 336.28779,240.84223 c 0.624,11.9 2.435,20.869 7,32 h 1 c 0.549,-3.033 1.434,-5.522 3.394,-7.985 17.402,-21.86 43.165,16.111 16.606,24.042 -3.754,1.121 -7.237,0.639 -11,-0.057 3.585,7.669 10.495,21.384 19.015,24.296 3.99,1.364 7.959,-0.346 11.985,-0.296 7.604,-13.015 17.042,-28.296 15.91,-44 -1.619,-22.458 -24.797,-37.122 -45.91,-34.826 -6.54,0.711 -12.052,4.349 -18,6.826 z"
     id="path24" />
  <path
     style="fill:#ed5d5d;stroke:none"
     d="m 383.28779,311.84223 c -13.655,4.327 -19.6,-6.456 -26.186,-16.999 -9.85,-15.768 -23.577,-32.732 -19.814,-53.001 -34.41,16.057 -8.488,59.76 5,80 3.594,5.393 10.538,19.847 17.076,21.654 3.65,1.01 6.53,-4.289 8.294,-6.654 5.483,-7.349 13.504,-15.953 15.63,-25 z"
     id="path26" />
  <path
     style="fill:#f8c460;stroke:none"
     d="m 355.28779,258.49523 c -19.911,6.213 -9.892,36.377 10,30.404 20.016,-6.01 9.531,-36.499 -10,-30.404 z"
     id="path28" />
  <path
     style="fill:#bc8f98;stroke:none"
     d="m 320.62079,278.50923 0.334,0.666 z"
     id="path30" />
  <path
     style="fill:#f8c460;stroke:none"
     d="m 70.287786,369.84223 c 25.822,41.466 77.918004,80.876 126.000004,92 14.731,-20.854 55.276,-0.951 59.79,-32 5.547,-38.156 -43.169,-19.298 -58.45,-38.004 -6.689,-8.189 -5.34,-19.12 -5.34,-28.996 0,-26.991 4.667,-60.99 -28,-70.961 -5.779,-1.763 -11.974,-2.521 -18,-1.865 -16.12,1.752 -30.564,16.089 -33.532,31.826 -2.027,10.744 0.683,20.798 -4.792,31 -7.846,14.621 -22.619104,17 -37.676004,17 m 413.000004,-40 h -53 -34 c -8.541,0 -17.345,-1.116 -24.961,3.515 -13.711,8.336 -14.3,27.901 -2.999,38.3 7.61,7.001 16.335,6.185 25.96,6.185 h 45 c 5.87,0 17.819,2.26 22.61,-1.603 2.873,-2.318 4.16,-6.719 6.027,-9.821 6.367,-10.579 13.259,-24.349 15.363,-36.576 z"
     id="path32" />
  <path
     style="fill:#d68f96;stroke:none"
     d="m 361.28779,343.84223 -2,1 v 1 z"
     id="path34" />
  <path
     style="fill:#dbb6b6;stroke:none"
     d="m 477.62079,344.50923 0.334,0.666 z"
     id="path36" />
  <path
     style="fill:#d1d1b9;stroke:none"
     d="m 466.62079,367.50923 0.334,0.666 z"
     id="path38" />
  <path
     style="fill:#eaac47;stroke:none"
     d="m 31.287786,369.84223 c 4.5633,15.513 18.4975,30.949 28.8696,43 32.0015,37.182 82.229404,72.28 132.130404,79 l 3,-30 c -26.598,-11.79 -51.742,-22.295 -75,-40.424 -11.705,-9.125 -22.901004,-19.429 -32.714504,-30.576 -5.0812,-5.771 -10.6002,-16.316 -17.3758,-19.972 -8.9827,-4.847 -28.7421,-1.028 -38.9097,-1.028 z"
     id="path40" />
  <path
     style="fill:#ffffff;stroke:none"
     d="m 41.287786,387.84223 1,1 z"
     id="path42" />
  <path
     style="fill:#80bbce;stroke:none"
     d="m 195.28779,461.84223 c -2.461,6.389 -6.675,23.243 -1.972,29.411 2.877,3.775 13.58,3.841 17.972,4.459 17.599,2.473 35.247,2.337 53,2.126 47.087,-0.56 95.702,-20.885 133,-48.626 11.517,-8.566 28.827,-20.133 35,-33.37 -7.329,3.357 -13.315,9.802 -20,14.329 -12.947,8.769 -26.69,16.487 -41,22.809 -35.331,15.61 -78.308,24.374 -117,20.692 -20.329,-1.934 -39.24,-7.259 -59,-11.83 z"
     id="path44" />
  <path
     style="fill:#ffffff;stroke:none"
     d="m 413.28779,434.84223 1,1 -1,-1 m -27,21 1,1 z"
     id="path46" />
</svg>
