<?xml version="1.0" encoding="UTF-8" standalone="no"?>
<svg
   xmlns:dc="http://purl.org/dc/elements/1.1/"
   xmlns:cc="http://creativecommons.org/ns#"
   xmlns:rdf="http://www.w3.org/1999/02/22-rdf-syntax-ns#"
   xmlns:svg="http://www.w3.org/2000/svg"
   xmlns="http://www.w3.org/2000/svg"
   xmlns:sodipodi="http://sodipodi.sourceforge.net/DTD/sodipodi-0.dtd"
   xmlns:inkscape="http://www.inkscape.org/namespaces/inkscape"
   width="512.000000pt"
   height="512.000000pt"
   viewBox="0 0 512.000000 512.000000"
   version="1.1"
   id="svg3824"
   sodipodi:docname="delivery_car.svg"
   inkscape:version="1.0.2 (e86c870879, 2021-01-15, custom)">
  <metadata
     id="metadata3830">
    <rdf:RDF>
      <cc:Work
         rdf:about="">
        <dc:format>image/svg+xml</dc:format>
        <dc:type
           rdf:resource="http://purl.org/dc/dcmitype/StillImage" />
      </cc:Work>
    </rdf:RDF>
  </metadata>
  <defs
     id="defs3828" />
  <sodipodi:namedview
     pagecolor="#ffffff"
     bordercolor="#666666"
     borderopacity="1"
     objecttolerance="10"
     gridtolerance="10"
     guidetolerance="10"
     inkscape:pageopacity="0"
     inkscape:pageshadow="2"
     inkscape:window-width="1366"
     inkscape:window-height="705"
     id="namedview3826"
     showgrid="false"
     inkscape:zoom="0.78808595"
     inkscape:cx="387.14737"
     inkscape:cy="86.730716"
     inkscape:window-x="-8"
     inkscape:window-y="-8"
     inkscape:window-maximized="1"
     inkscape:current-layer="svg3824"
     inkscape:document-rotation="0" />
  <g
     transform="translate(0.000000,512.000000) scale(0.100000,-0.100000)"
     fill="#f65454"
     stroke="none"
     id="g6">
    <path
       d="M3635 5105 c-121 -27 -226 -72 -333 -142 -76 -51 -189 -163 -242 -242 -60 -90 -114 -211 -141 -316 l-23 -90 1 -135 0 -135 16 -69 c10 -37 29 -98 43 -135 33 -82 865 -1531 880 -1531 12 0 805 1368 860 1484 19 39 43 107 55 151 l22 80 1 150 0 150 -17 67 c-44 177 -126 327 -246 451 -36 38 -106 96 -155 128 -100 66 -204 110 -318 133 l-77 16 -133 -1 -133 -1 -60 -13z m333 -462 l63 -15 57 -38 c72 -46 143 -122 176 -188 31 -61 56 -159 56 -222 0 -60 -24 -152 -58 -220 l-27 -55 -60 -60 -60 -60 -65 -31 c-111 -54 -216 -67 -323 -39 -83 21 -153 60 -213 117 -91 86 -137 173 -154 293 l-9 60 10 65 10 65 34 73 35 73 59 60 60 59 74 36 74 35 64 8 c75 9 111 6 197 -16z"
       id="path2" />
    <path
       d="M1196 3790 c-159 -19 -343 -78 -482 -155 -163 -91 -330 -248 -436 -409 -98 -149 -155 -286 -194 -467 l-19 -84 0 -165 0 -165 18 -82 c25 -119 63 -225 118 -333 26 -52 221 -394 432 -760 l384 -665 113 -76 c112 -77 374 -219 383 -209 5 5 598 1030 868 1499 70 123 142 258 160 299 42 103 76 239 90 369 l11 107 -7 91 c-13 180 -61 358 -136 507 -72 143 -186 290 -300 389 -178 153 -372 247 -600 293 -96 20 -300 27 -403 16z m308 -640 c99 -25 187 -68 262 -129 148 -119 244 -321 244 -511 0 -139 -52 -285 -143 -406 -87 -114 -235 -207 -385 -240 l-75 -17 -91 5 -91 5 -80 27 c-107 37 -187 87 -265 167 -77 78 -122 150 -157 251 l-26 73 -5 105 -4 105 16 70 c34 141 122 282 234 370 69 56 178 110 258 129 32 8 98 15 145 15 l86 1 77 -20z"
       id="path4" />
  </g>
  <g
     transform="translate(0.000000,512.000000) scale(0.100000,-0.100000)"
     fill="#54d384"
     stroke="none"
     id="g32">
    <path
       d="M96 3269 c-31 -104 -66 -280 -81 -405 l-15 -129 0 -175 0 -175 15 -129 c20 -172 56 -329 116 -511 l50 -150 78 -160 c160 -323 364 -589 629 -817 56 -48 107 -88 113 -88 l11 0 -7 18 c-3 9 -176 312 -384 672 -208 360 -396 691 -418 735 -48 95 -86 205 -110 318 l-18 82 0 155 1 155 18 84 c39 182 96 318 196 470 33 50 60 94 60 96 0 3 -54 5 -120 5 l-119 0 -15 -51z"
       id="path24" />
    <path
       d="M2350 3306 c0 -8 4 -17 9 -20 15 -10 96 -137 130 -204 74 -147 122 -325 136 -502 l7 -85 -12 -104 c-14 -130 -49 -269 -93 -371 -19 -44 -60 -125 -92 -180 -32 -55 -56 -102 -54 -103 2 -2 351 3 774 9 l770 12 120 12 c249 23 419 59 507 107 l47 26 17 35 16 35 -5 36 -6 36 -41 37 -41 37 -69 27 -70 27 -65 -32 c-88 -43 -235 -79 -382 -93 l-121 -12 -119 12 c-156 16 -270 44 -370 92 l-81 40 -36 41 c-19 23 -38 54 -41 70 l-7 29 26 43 c28 48 73 83 158 122 67 31 236 75 285 75 l35 0 -4 23 c-3 12 -98 182 -211 377 l-206 355 -455 3 -456 2 0 -14z"
       id="path26" />
    <path
       d="M4206 2959 c-115 -199 -209 -368 -210 -377 l-1 -15 80 -13 c116 -20 238 -61 305 -105 61 -39 110 -99 110 -134 l0 -21 66 -28 65 -29 55 -50 c62 -56 92 -107 100 -170 l6 -44 -16 -55 -16 -55 -39 -45 -40 -45 -68 -36 c-200 -104 -491 -143 -1358 -182 -436 -19 -641 -32 -840 -51 -88 -8 -163 -16 -167 -17 -14 -4 -279 -471 -276 -486 l3 -16 65 -7 c36 -3 211 -11 390 -17 611 -22 867 -60 1116 -165 167 -71 307 -175 394 -295 24 -33 51 -61 60 -61 34 0 281 202 411 337 190 197 336 406 459 658 117 237 185 450 231 716 l21 124 5 212 6 211 -12 114 c-17 163 -54 356 -92 476 l-11 32 -297 0 -297 0 -208 -361z"
       id="path28" />
    <path
       d="M1707 578 c-157 -269 -197 -340 -197 -348 0 -21 260 -115 442 -160 64 -16 168 -37 230 -47 l113 -18 270 0 270 1 129 22 c158 27 256 52 404 100 l112 36 0 12 c0 24 -66 99 -119 136 -74 52 -204 104 -356 143 -158 41 -295 64 -655 110 -326 42 -366 48 -488 81 -52 13 -95 24 -98 24 -2 0 -28 -42 -57 -92z"
       id="path30" />
  </g>
  <g
     transform="translate(0.000000,512.000000) scale(0.100000,-0.100000)"
     fill="#bce5f4"
     stroke="none"
     id="g42">
    <path
       d="M2240 5104 c-162 -21 -330 -60 -500 -117 l-155 -51 -165 -83 c-273 -136 -465 -276 -680 -492 -209 -210 -343 -398 -475 -666 -46 -93 -100 -217 -120 -273 -19 -57 -35 -106 -35 -108 0 -2 54 -4 121 -4 l121 0 75 80 c99 105 224 198 348 260 115 57 220 93 343 117 l87 16 150 0 150 0 80 -17 c185 -39 327 -98 478 -199 l92 -61 98 -98 98 -98 449 0 450 0 0 12 c0 7 -58 114 -129 238 -134 234 -169 311 -197 426 l-17 69 0 125 -1 125 23 90 c27 105 81 226 141 316 50 74 178 203 238 239 23 14 42 30 42 37 l0 12 -63 20 c-106 32 -286 70 -417 86 l-124 15 -201 -1 -200 -1 -105 -14z"
       id="path34" />
    <path
       d="M3761 4669 l-64 -8 -74 -35 -74 -36 -60 -59 -59 -60 -35 -73 -34 -73 -11 -67 -10 -67 6 -58 c15 -123 65 -224 158 -311 60 -57 130 -96 213 -117 64 -17 180 -20 203 -5 8 5 12 11 10 12 -3 2 -25 13 -50 23 -66 28 -119 66 -173 124 l-48 52 -31 65 -31 66 -10 74 -11 74 12 72 c23 133 98 250 207 323 31 20 79 45 108 55 l52 18 -15 5 c-31 11 -118 14 -179 6z"
       id="path36" />
    <path
       d="M4723 3891 c-11 -43 -74 -164 -188 -361 -63 -110 -115 -204 -115 -210 l0 -10 295 0 c162 0 295 2 295 4 0 2 -16 51 -35 108 -37 108 -205 458 -231 479 l-15 12 -6 -22z"
       id="path38" />
    <path
       d="M1186 3164 c-80 -19 -189 -73 -258 -129 -112 -88 -200 -229 -234 -370 l-16 -70 4 -115 5 -115 26 -73 c35 -101 81 -173 157 -251 78 -80 158 -130 265 -167 l80 -27 86 -5 c91 -5 199 4 199 17 0 4 -19 13 -42 20 -24 7 -74 29 -113 49 l-70 36 -80 80 -81 81 -42 86 c-49 99 -72 193 -72 299 0 105 23 201 70 296 l39 81 66 71 c73 78 158 137 252 173 35 13 63 27 63 30 0 23 -215 25 -304 3z"
       id="path40" />
  </g>
  <g
     transform="translate(0.000000,512.000000) scale(0.100000,-0.100000)"
     fill="#10995b"
     stroke="none"
     id="g48">
    <path
       d="M3615 2569 c-85 -12 -226 -54 -288 -85 -76 -39 -112 -69 -137 -117 l-23 -43 7 -35 6 -36 36 -42 36 -41 81 -40 c103 -49 217 -77 379 -92 l126 -12 124 12 c146 14 297 50 380 91 l60 30 63 -25 c35 -14 81 -41 103 -60 l40 -34 7 -30 6 -29 -16 -35 -17 -36 -62 -30 c-117 -57 -326 -92 -651 -109 -150 -8 -1431 -29 -1482 -24 -7 0 -46 -59 -88 -132 -41 -73 -75 -135 -75 -139 0 -3 6 -3 13 -1 20 7 321 34 502 45 94 5 323 17 510 25 867 39 1158 78 1358 182 l68 36 40 45 39 45 16 55 16 56 -5 51 c-3 29 -14 70 -26 92 -11 22 -45 62 -75 90 l-55 50 -65 29 -66 28 0 21 c0 35 -49 95 -110 134 -69 45 -189 85 -314 106 -49 8 -90 14 -91 13 -1 -2 -35 -61 -75 -131 l-73 -128 -53 91 c-30 51 -64 109 -76 131 -12 21 -24 38 -27 38 -3 -1 -33 -5 -66 -10z"
       id="path44" />
    <path
       d="M1909 928 c-23 -40 -66 -114 -96 -165 -29 -50 -53 -94 -53 -97 0 -8 93 -34 200 -56 52 -10 223 -35 380 -55 157 -20 348 -47 425 -61 266 -45 474 -114 586 -192 56 -39 123 -118 113 -133 -3 -5 -3 -9 0 -9 3 0 58 23 123 50 115 50 329 165 380 206 l26 21 -33 49 c-48 71 -154 172 -239 228 -134 90 -337 162 -558 200 -148 26 -393 45 -728 56 -301 10 -375 14 -452 26 l-32 5 -42 -73z"
       id="path46" />
  </g>
  <g
     transform="translate(0.000000,512.000000) scale(0.100000,-0.100000)"
     fill="#23a866"
     stroke="none"
     id="g1072">
    <path
       d="M3670 2576 c0 -2 7 -9 15 -16 l15 -13 -6 17 c-3 9 -10 16 -15 16 -5 0 -9 -2 -9 -4z"
       id="path780" />
    <path
       d="M3628 2563 c7 -3 16 -2 19 1 4 3 -2 6 -13 5 l-19 -1 13 -5z"
       id="path782" />
    <path
       d="M4038 2563 c7 -3 16 -2 19 1 4 3 -2 6 -13 5 l-19 -1 13 -5z"
       id="path784" />
    <path
       d="M3558 2553 c7 -3 16 -2 19 1 4 3 -2 6 -13 5 l-19 -1 13 -5z"
       id="path786" />
    <path
       d="M4098 2553 c7 -3 16 -2 19 1 4 3 -2 6 -13 5 l-19 -1 13 -5z"
       id="path788" />
    <path
       d="M3513 2543 c4 -3 10 -3 14 0 3 4 0 7 -7 7 -7 0 -10 -3 -7 -7z"
       id="path790" />
    <path
       d="M4148 2543 c7 -3 16 -2 19 1 4 3 -2 6 -13 5 l-19 -1 13 -5z"
       id="path792" />
    <path
       d="M3473 2533 c4 -3 10 -3 14 0 3 4 0 7 -7 7 -7 0 -10 -3 -7 -7z"
       id="path794" />
    <path
       d="M3956 2523 l-7 -18 12 12 c7 7 10 15 7 18 -3 3 -9 -2 -12 -12z"
       id="path796" />
    <path
       d="M4239 2519 c30 -10 56 -17 58 -15 5 5 -86 36 -101 35 -6 0 13 -9 43 -20z"
       id="path798" />
    <path
       d="M3433 2523 c4 -3 10 -3 14 0 3 4 0 7 -7 7 -7 0 -10 -3 -7 -7z"
       id="path800" />
    <path
       d="M3403 2513 c4 -3 10 -3 14 0 3 4 0 7 -7 7 -7 0 -10 -3 -7 -7z"
       id="path802" />
    <path
       d="M3360 2500 c-8 -5 -10 -10 -5 -10 6 0 17 5 25 10 8 5 11 10 5 10 -5 0 -17 -5 -25 -10z"
       id="path804" />
    <path
       d="M3720 2501 c0 -6 4 -13 10 -16 l10 -6 -6 15 c-7 18 -14 21 -14 7z"
       id="path806" />
    <path
       d="M4334 2486 c11 -9 24 -16 30 -16 12 0 7 5 -24 19 l-25 12 19 -15z"
       id="path808" />
    <path
       d="M3260 2445 c-19 -14 -30 -25 -24 -25 10 1 73 50 63 50 -3 0 -20 -11 -39 -25z"
       id="path810" />
    <path
       d="M3916 2453 l-7 -18 12 12 c7 7 10 15 7 18 -3 3 -9 -2 -12 -12z"
       id="path812" />
    <path
       d="M4395 2450 c3 -5 8 -10 11 -10 3 0 2 5 -1 10 -3 6 -8 10 -11 10 -3 0 -2 -4 1 -10z"
       id="path814" />
    <path
       d="M3760 2431 c0 -5 5 -13 10 -16 6 -3 10 -2 10 4 0 5 -4 13 -10 16 -5 3 -10 2 -10 -4z"
       id="path816" />
    <path
       d="M3201 2387 l-13 -22 18 17 c10 10 16 20 13 22 -3 3 -11 -5 -18 -17z"
       id="path818" />
    <path
       d="M3877 2393 c-4 -3 -7 -11 -7 -17 l0 -10 12 12 c6 6 9 14 7 17 -3 3 -9 2 -12 -2z"
       id="path820" />
    <path
       d="M3790 2381 c0 -6 4 -13 10 -16 l10 -6 -6 15 c-7 18 -14 21 -14 7z"
       id="path822" />
    <path
       d="M4482 2350 c6 -19 12 -41 14 -47 2 -7 9 -13 16 -12 l13 1 -12 5 c-7 2 -13 15 -13 27 0 12 -7 31 -15 42 l-14 19 11 -35z"
       id="path824" />
    <path
       d="M3176 2343 l-7 -18 12 12 c7 7 10 15 7 18 -3 3 -9 -2 -12 -12z"
       id="path826" />
    <path
       d="M4589 2255 c36 -19 66 -33 68 -31 4 4 -112 66 -123 66 -5 0 20 -16 55 -35z"
       id="path828" />
    <path
       d="M3180 2261 c0 -6 4 -13 10 -16 l10 -6 -6 15 c-7 18 -14 21 -14 7z"
       id="path830" />
    <path
       d="M4710 2165 c24 -27 46 -52 48 -55 3 -3 0 4 -6 15 -6 11 -27 36 -48 55 l-38 35 44 -50z"
       id="path832" />
    <path
       d="M3260 2169 c26 -17 70 -40 70 -35 0 5 -69 46 -78 46 -4 0 0 -5 8 -11z"
       id="path834" />
    <path
       d="M4413 2153 c4 -3 10 -3 14 0 3 4 0 7 -7 7 -7 0 -10 -3 -7 -7z"
       id="path836" />
    <path
       d="M4440 2146 c0 -2 7 -7 16 -10 l15 -6 -6 10 c-6 10 -25 14 -25 6z"
       id="path838" />
    <path
       d="M4335 2130 l-6 -10 15 6 c18 7 21 14 7 14 -6 0 -13 -4 -16 -10z"
       id="path840" />
    <path
       d="M3350 2120 c8 -5 20 -10 25 -10 6 0 3 5 -5 10 -8 5 -19 10 -25 10 -5 0 -3 -5 5 -10z"
       id="path842" />
    <path
       d="M4280 2110 c-8 -5 -10 -10 -5 -10 6 0 17 5 25 10 8 5 11 10 5 10 -5 0 -17 -5 -25 -10z"
       id="path844" />
    <path
       d="M3415 2095 c17 -8 37 -14 45 -14 8 0 -1 7 -20 14 -46 18 -64 17 -25 0z"
       id="path846" />
    <path
       d="M4530 2106 c0 -3 9 -10 20 -16 11 -6 20 -8 20 -6 0 3 -9 10 -20 16 -11 6 -20 8 -20 6z"
       id="path848" />
    <path
       d="M4243 2093 c4 -3 10 -3 14 0 3 4 0 7 -7 7 -7 0 -10 -3 -7 -7z"
       id="path850" />
    <path
       d="M4761 2095 c0 -5 4 -19 9 -30 l9 -20 0 15 c0 8 -4 22 -9 30 -5 8 -9 11 -9 5z"
       id="path852" />
    <path
       d="M4203 2083 c4 -3 10 -3 14 0 3 4 0 7 -7 7 -7 0 -10 -3 -7 -7z"
       id="path854" />
    <path
       d="M3493 2073 c4 -3 10 -3 14 0 3 4 0 7 -7 7 -7 0 -10 -3 -7 -7z"
       id="path856" />
    <path
       d="M4168 2073 c7 -3 16 -2 19 1 4 3 -2 6 -13 5 l-19 -1 13 -5z"
       id="path858" />
    <path
       d="M3538 2063 c7 -3 16 -2 19 1 4 3 -2 6 -13 5 l-19 -1 13 -5z"
       id="path860" />
    <path
       d="M4123 2063 c4 -3 10 -3 14 0 3 4 0 7 -7 7 -7 0 -10 -3 -7 -7z"
       id="path862" />
    <path
       d="M3598 2053 c7 -3 16 -2 19 1 4 3 -2 6 -13 5 l-19 -1 13 -5z"
       id="path864" />
    <path
       d="M4068 2053 c7 -3 16 -2 19 1 4 3 -2 6 -13 5 l-19 -1 13 -5z"
       id="path866" />
    <path
       d="M4595 2050 c3 -5 8 -10 11 -10 3 0 2 5 -1 10 -3 6 -8 10 -11 10 -3 0 -2 -4 1 -10z"
       id="path868" />
    <path
       d="M3668 2043 c6 -2 18 -2 25 0 6 3 1 5 -13 5 -14 0 -19 -2 -12 -5z"
       id="path870" />
    <path
       d="M3978 2043 c6 -2 18 -2 25 0 6 3 1 5 -13 5 -14 0 -19 -2 -12 -5z"
       id="path872" />
    <path
       d="M4782 1990 c0 -19 2 -27 5 -17 2 9 2 25 0 35 -3 9 -5 1 -5 -18z"
       id="path874" />
    <path
       d="M4600 1936 c-7 -14 -32 -35 -56 -48 -24 -12 -41 -24 -39 -26 2 -2 22 6 44 19 38 21 78 65 68 75 -2 2 -9 -7 -17 -20z"
       id="path876" />
    <path
       d="M4770 1920 c0 -7 3 -10 7 -7 3 4 3 10 0 14 -4 3 -7 0 -7 -7z"
       id="path878" />
    <path
       d="M4755 1869 c-4 -6 -5 -12 -2 -15 2 -3 7 2 10 11 7 17 1 20 -8 4z"
       id="path880" />
    <path
       d="M4413 1833 c4 -3 10 -3 14 0 3 4 0 7 -7 7 -7 0 -10 -3 -7 -7z"
       id="path882" />
    <path
       d="M4373 1823 c4 -3 10 -3 14 0 3 4 0 7 -7 7 -7 0 -10 -3 -7 -7z"
       id="path884" />
    <path
       d="M4328 1813 c7 -3 16 -2 19 1 4 3 -2 6 -13 5 l-19 -1 13 -5z"
       id="path886" />
    <path
       d="M4704 1798 l-19 -23 23 19 c21 18 27 26 19 26 -2 0 -12 -10 -23 -22z"
       id="path888" />
    <path
       d="M4278 1803 c7 -3 16 -2 19 1 4 3 -2 6 -13 5 l-19 -1 13 -5z"
       id="path890" />
    <path
       d="M4208 1793 c6 -2 18 -2 25 0 6 3 1 5 -13 5 -14 0 -19 -2 -12 -5z"
       id="path892" />
    <path
       d="M4138 1783 c7 -3 16 -2 19 1 4 3 -2 6 -13 5 l-19 -1 13 -5z"
       id="path894" />
    <path
       d="M4033 1773 c9 -2 23 -2 30 0 6 3 -1 5 -18 5 l-30 0 18 -5z"
       id="path896" />
    <path
       d="M3893 1763 c9 -2 25 -2 35 0 9 3 1 5 -18 5 -19 0 -27 -2 -17 -5z"
       id="path898" />
    <path
       d="M4640 1749 l-25 -20 20 10 c33 17 51 31 40 31 -5 0 -21 -10 -35 -21z"
       id="path900" />
    <path
       d="M3608 1753 c23 -2 59 -2 80 0 20 2 1 4 -43 4 -44 0 -61 -2 -37 -4z"
       id="path902" />
    <path
       d="M2377 1743 c-4 -3 -7 -11 -7 -17 l0 -10 12 12 c6 6 9 14 7 17 -3 3 -9 2 -12 -2z"
       id="path904" />
    <path
       d="M2603 1743 c32 -2 81 -2 110 0 29 2 3 3 -58 3 -60 0 -84 -1 -52 -3z"
       id="path906" />
    <path
       d="M4545 1700 l-6 -10 15 6 c18 7 21 14 7 14 -6 0 -13 -4 -16 -10z"
       id="path908" />
    <path
       d="M4503 1683 c4 -3 10 -3 14 0 3 4 0 7 -7 7 -7 0 -10 -3 -7 -7z"
       id="path910" />
    <path
       d="M2337 1673 c-4 -3 -7 -11 -7 -17 l0 -10 12 12 c6 6 9 14 7 17 -3 3 -9 2 -12 -2z"
       id="path912" />
    <path
       d="M4473 1673 c4 -3 10 -3 14 0 3 4 0 7 -7 7 -7 0 -10 -3 -7 -7z"
       id="path914" />
    <path
       d="M4433 1663 c4 -3 10 -3 14 0 3 4 0 7 -7 7 -7 0 -10 -3 -7 -7z"
       id="path916" />
    <path
       d="M4393 1653 c4 -3 10 -3 14 0 3 4 0 7 -7 7 -7 0 -10 -3 -7 -7z"
       id="path918" />
    <path
       d="M4348 1643 c7 -3 16 -2 19 1 4 3 -2 6 -13 5 l-19 -1 13 -5z"
       id="path920" />
    <path
       d="M4293 1633 c4 -3 10 -3 14 0 3 4 0 7 -7 7 -7 0 -10 -3 -7 -7z"
       id="path922" />
    <path
       d="M2306 1613 l-7 -18 12 12 c7 7 10 15 7 18 -3 3 -9 -2 -12 -12z"
       id="path924" />
    <path
       d="M4238 1623 c7 -3 16 -2 19 1 4 3 -2 6 -13 5 l-19 -1 13 -5z"
       id="path926" />
    <path
       d="M4168 1613 c7 -3 16 -2 19 1 4 3 -2 6 -13 5 l-19 -1 13 -5z"
       id="path928" />
    <path
       d="M4088 1603 c7 -3 16 -2 19 1 4 3 -2 6 -13 5 l-19 -1 13 -5z"
       id="path930" />
    <path
       d="M3978 1593 c6 -2 18 -2 25 0 6 3 1 5 -13 5 -14 0 -19 -2 -12 -5z"
       id="path932" />
    <path
       d="M3853 1583 c9 -2 25 -2 35 0 9 3 1 5 -18 5 -19 0 -27 -2 -17 -5z"
       id="path934" />
    <path
       d="M3713 1573 c9 -2 23 -2 30 0 6 3 -1 5 -18 5 l-30 0 18 -5z"
       id="path936" />
    <path
       d="M3528 1563 c12 -2 30 -2 40 0 9 3 -1 5 -23 4 l-40 0 23 -4z"
       id="path938" />
    <path
       d="M2266 1543 l-7 -18 12 12 c7 7 10 15 7 18 -3 3 -9 -2 -12 -12z"
       id="path940" />
    <path
       d="M3318 1553 c12 -2 30 -2 40 0 9 3 -1 5 -23 4 l-40 0 23 -4z"
       id="path942" />
    <path
       d="M3098 1543 c12 -2 30 -2 40 0 9 3 -1 5 -23 4 l-40 0 23 -4z"
       id="path944" />
    <path
       d="M2898 1533 c12 -2 30 -2 40 0 9 3 -1 5 -23 4 l-40 0 23 -4z"
       id="path946" />
    <path
       d="M2713 1523 c9 -2 25 -2 35 0 9 3 1 5 -18 5 -19 0 -27 -2 -17 -5z"
       id="path948" />
    <path
       d="M2573 1513 c9 -2 23 -2 30 0 6 3 -1 5 -18 5 l-30 0 18 -5z"
       id="path950" />
    <path
       d="M2448 1503 c6 -2 18 -2 25 0 6 3 1 5 -13 5 -14 0 -19 -2 -12 -5z"
       id="path952" />
    <path
       d="M2348 1493 c6 -2 18 -2 25 0 6 3 1 5 -13 5 -14 0 -19 -2 -12 -5z"
       id="path954" />
    <path
       d="M2268 1483 c7 -3 16 -2 19 1 4 3 -2 6 -13 5 l-19 -1 13 -5z"
       id="path956" />
    <path
       d="M2008 983 c6 -2 18 -2 25 0 6 3 1 5 -13 5 -14 0 -19 -2 -12 -5z"
       id="path958" />
    <path
       d="M2123 973 c9 -2 23 -2 30 0 6 3 -1 5 -18 5 l-30 0 18 -5z"
       id="path960" />
    <path
       d="M1927 963 c-4 -3 -7 -11 -7 -17 l0 -10 12 12 c6 6 9 14 7 17 -3 3 -9 2 -12 -2z"
       id="path962" />
    <path
       d="M2347 963 c18 -2 50 -2 70 0 21 2 7 4 -32 4 -38 0 -55 -2 -38 -4z"
       id="path964" />
    <path
       d="M2658 953 c12 -2 30 -2 40 0 9 3 -1 5 -23 4 l-40 0 23 -4z"
       id="path966" />
    <path
       d="M2843 943 c9 -2 23 -2 30 0 6 3 -1 5 -18 5 l-30 0 18 -5z"
       id="path968" />
    <path
       d="M2958 933 c6 -2 18 -2 25 0 6 3 1 5 -13 5 -14 0 -19 -2 -12 -5z"
       id="path970" />
    <path
       d="M3048 923 c7 -3 16 -2 19 1 4 3 -2 6 -13 5 l-19 -1 13 -5z"
       id="path972" />
    <path
       d="M1896 903 l-7 -18 12 12 c7 7 10 15 7 18 -3 3 -9 -2 -12 -12z"
       id="path974" />
    <path
       d="M3118 913 c7 -3 16 -2 19 1 4 3 -2 6 -13 5 l-19 -1 13 -5z"
       id="path976" />
    <path
       d="M3178 903 c7 -3 16 -2 19 1 4 3 -2 6 -13 5 l-19 -1 13 -5z"
       id="path978" />
    <path
       d="M3233 893 c4 -3 10 -3 14 0 3 4 0 7 -7 7 -7 0 -10 -3 -7 -7z"
       id="path980" />
    <path
       d="M3278 883 c7 -3 16 -2 19 1 4 3 -2 6 -13 5 l-19 -1 13 -5z"
       id="path982" />
    <path
       d="M3323 873 c4 -3 10 -3 14 0 3 4 0 7 -7 7 -7 0 -10 -3 -7 -7z"
       id="path984" />
    <path
       d="M3363 863 c4 -3 10 -3 14 0 3 4 0 7 -7 7 -7 0 -10 -3 -7 -7z"
       id="path986" />
    <path
       d="M3439 839 c30 -10 56 -17 58 -15 5 5 -86 36 -101 35 -6 0 13 -9 43 -20z"
       id="path988" />
    <path
       d="M1856 833 l-7 -18 12 12 c7 7 10 15 7 18 -3 3 -9 -2 -12 -12z"
       id="path990" />
    <path
       d="M3520 810 c8 -5 20 -10 25 -10 6 0 3 5 -5 10 -8 5 -19 10 -25 10 -5 0 -3 -5 5 -10z"
       id="path992" />
    <path
       d="M3591 787 c3 -4 43 -29 90 -57 46 -27 72 -40 57 -27 -26 21 -159 97 -147 84z"
       id="path994" />
    <path
       d="M1817 773 c-4 -3 -7 -11 -7 -17 l0 -10 12 12 c6 6 9 14 7 17 -3 3 -9 2 -12 -2z"
       id="path996" />
    <path
       d="M1786 713 l-7 -18 12 12 c7 7 10 15 7 18 -3 3 -9 -2 -12 -12z"
       id="path998" />
    <path
       d="M3780 666 c0 -2 8 -10 18 -17 l17 -14 -14 18 c-13 16 -21 21 -21 13z"
       id="path1000" />
    <path
       d="M1823 643 c4 -3 10 -3 14 0 3 4 0 7 -7 7 -7 0 -10 -3 -7 -7z"
       id="path1002" />
    <path
       d="M1863 633 c4 -3 10 -3 14 0 3 4 0 7 -7 7 -7 0 -10 -3 -7 -7z"
       id="path1004" />
    <path
       d="M1903 623 c4 -3 10 -3 14 0 3 4 0 7 -7 7 -7 0 -10 -3 -7 -7z"
       id="path1006" />
    <path
       d="M1953 613 c4 -3 10 -3 14 0 3 4 0 7 -7 7 -7 0 -10 -3 -7 -7z"
       id="path1008" />
    <path
       d="M2008 603 c7 -3 16 -2 19 1 4 3 -2 6 -13 5 l-19 -1 13 -5z"
       id="path1010" />
    <path
       d="M2068 593 c7 -3 16 -2 19 1 4 3 -2 6 -13 5 l-19 -1 13 -5z"
       id="path1012" />
    <path
       d="M2138 583 c7 -3 16 -2 19 1 4 3 -2 6 -13 5 l-19 -1 13 -5z"
       id="path1014" />
    <path
       d="M2218 573 c7 -3 16 -2 19 1 4 3 -2 6 -13 5 l-19 -1 13 -5z"
       id="path1016" />
    <path
       d="M2298 563 c6 -2 18 -2 25 0 6 3 1 5 -13 5 -14 0 -19 -2 -12 -5z"
       id="path1018" />
    <path
       d="M2378 553 c6 -2 18 -2 25 0 6 3 1 5 -13 5 -14 0 -19 -2 -12 -5z"
       id="path1020" />
    <path
       d="M2458 543 c7 -3 16 -2 19 1 4 3 -2 6 -13 5 l-19 -1 13 -5z"
       id="path1022" />
    <path
       d="M2528 533 c7 -3 16 -2 19 1 4 3 -2 6 -13 5 l-19 -1 13 -5z"
       id="path1024" />
    <path
       d="M3934 507 c16 -20 30 -37 33 -37 7 0 -36 58 -49 66 -7 4 1 -9 16 -29z"
       id="path1026" />
    <path
       d="M2608 523 c7 -3 16 -2 19 1 4 3 -2 6 -13 5 l-19 -1 13 -5z"
       id="path1028" />
    <path
       d="M2678 513 c7 -3 16 -2 19 1 4 3 -2 6 -13 5 l-19 -1 13 -5z"
       id="path1030" />
    <path
       d="M2738 503 c7 -3 16 -2 19 1 4 3 -2 6 -13 5 l-19 -1 13 -5z"
       id="path1032" />
    <path
       d="M2793 493 c4 -3 10 -3 14 0 3 4 0 7 -7 7 -7 0 -10 -3 -7 -7z"
       id="path1034" />
    <path
       d="M2843 483 c4 -3 10 -3 14 0 3 4 0 7 -7 7 -7 0 -10 -3 -7 -7z"
       id="path1036" />
    <path
       d="M2893 473 c4 -3 10 -3 14 0 3 4 0 7 -7 7 -7 0 -10 -3 -7 -7z"
       id="path1038" />
    <path
       d="M2930 466 c0 -2 9 -6 20 -9 l20 -5 -6 9 c-5 9 -34 13 -34 5z"
       id="path1040" />
    <path
       d="M2990 450 c8 -5 22 -9 30 -9 l15 0 -20 9 c-27 12 -43 12 -25 0z"
       id="path1042" />
    <path
       d="M3975 450 c3 -5 8 -10 11 -10 3 0 2 5 -1 10 -3 6 -8 10 -11 10 -3 0 -2 -4 1 -10z"
       id="path1044" />
    <path
       d="M3053 433 c4 -3 10 -3 14 0 3 4 0 7 -7 7 -7 0 -10 -3 -7 -7z"
       id="path1046" />
    <path
       d="M3083 423 c4 -3 10 -3 14 0 3 4 0 7 -7 7 -7 0 -10 -3 -7 -7z"
       id="path1048" />
    <path
       d="M3113 413 c4 -3 10 -3 14 0 3 4 0 7 -7 7 -7 0 -10 -3 -7 -7z"
       id="path1050" />
    <path
       d="M3141 406 c8 -8 79 -35 79 -30 0 3 -16 12 -35 20 -33 14 -53 18 -44 10z"
       id="path1052" />
    <path
       d="M3895 380 l-6 -10 15 6 c18 7 21 14 7 14 -6 0 -13 -4 -16 -10z"
       id="path1054" />
    <path
       d="M3241 366 c10 -9 69 -36 69 -32 0 6 -55 36 -66 36 -4 0 -5 -2 -3 -4z"
       id="path1056" />
    <path
       d="M3845 350 l-6 -10 15 6 c18 7 21 14 7 14 -6 0 -13 -4 -16 -10z"
       id="path1058" />
    <path
       d="M3778 314 c-38 -20 -36 -28 2 -9 17 9 30 18 30 20 0 7 -1 6 -32 -11z"
       id="path1060" />
    <path
       d="M3331 317 c2 -2 22 -15 44 -31 l40 -27 -35 30 c-19 17 -39 31 -44 31 -5 0 -7 -1 -5 -3z"
       id="path1062" />
    <path
       d="M3441 220 c29 -45 29 -45 29 -34 0 5 -12 23 -26 39 l-26 30 23 -35z"
       id="path1064" />
    <path
       d="M3604 224 l-19 -15 25 12 c31 14 36 19 24 19 -6 0 -19 -7 -30 -16z"
       id="path1066" />
    <path
       d="M3533 193 c4 -3 10 -3 14 0 3 4 0 7 -7 7 -7 0 -10 -3 -7 -7z"
       id="path1068" />
    <path
       d="M3483 173 c4 -3 10 -3 14 0 3 4 0 7 -7 7 -7 0 -10 -3 -7 -7z"
       id="path1070" />
  </g>
  <g
     transform="translate(0.000000,512.000000) scale(0.100000,-0.100000)"
     fill="#39bb74"
     stroke="none"
     id="g1346">
    <path
       d="M3608 2563 c7 -3 16 -2 19 1 4 3 -2 6 -13 5 l-19 -1 13 -5z"
       id="path1074" />
    <path
       d="M4058 2563 c7 -3 16 -2 19 1 4 3 -2 6 -13 5 l-19 -1 13 -5z"
       id="path1076" />
    <path
       d="M3543 2553 c4 -3 10 -3 14 0 3 4 0 7 -7 7 -7 0 -10 -3 -7 -7z"
       id="path1078" />
    <path
       d="M4113 2553 c4 -3 10 -3 14 0 3 4 0 7 -7 7 -7 0 -10 -3 -7 -7z"
       id="path1080" />
    <path
       d="M3503 2543 c4 -3 10 -3 14 0 3 4 0 7 -7 7 -7 0 -10 -3 -7 -7z"
       id="path1082" />
    <path
       d="M4163 2543 c4 -3 10 -3 14 0 3 4 0 7 -7 7 -7 0 -10 -3 -7 -7z"
       id="path1084" />
    <path
       d="M3463 2533 c4 -3 10 -3 14 0 3 4 0 7 -7 7 -7 0 -10 -3 -7 -7z"
       id="path1086" />
    <path
       d="M4203 2533 c4 -3 10 -3 14 0 3 4 0 7 -7 7 -7 0 -10 -3 -7 -7z"
       id="path1088" />
    <path
       d="M4233 2523 c4 -3 10 -3 14 0 3 4 0 7 -7 7 -7 0 -10 -3 -7 -7z"
       id="path1090" />
    <path
       d="M4263 2513 c4 -3 10 -3 14 0 3 4 0 7 -7 7 -7 0 -10 -3 -7 -7z"
       id="path1092" />
    <path
       d="M4313 2493 c4 -3 10 -3 14 0 3 4 0 7 -7 7 -7 0 -10 -3 -7 -7z"
       id="path1094" />
    <path
       d="M4365 2470 c3 -5 8 -10 11 -10 3 0 2 5 -1 10 -3 6 -8 10 -11 10 -3 0 -2 -4 1 -10z"
       id="path1096" />
    <path
       d="M3264 2448 l-7 -11 11 7 c7 4 12 9 12 12 0 8 -9 4 -16 -8z"
       id="path1098" />
    <path
       d="M4440 2415 c13 -14 26 -25 28 -25 3 0 -5 11 -18 25 -13 14 -26 25 -28 25 -3 0 5 -11 18 -25z"
       id="path1100" />
    <path
       d="M4490 2340 c0 -7 3 -10 7 -7 3 4 3 10 0 14 -4 3 -7 0 -7 -7z"
       id="path1102" />
    <path
       d="M3172 2310 c0 -19 2 -27 5 -17 2 9 2 25 0 35 -3 9 -5 1 -5 -18z"
       id="path1104" />
    <path
       d="M4625 2240 c3 -5 8 -10 11 -10 3 0 2 5 -1 10 -3 6 -8 10 -11 10 -3 0 -2 -4 1 -10z"
       id="path1106" />
    <path
       d="M3200 2227 c0 -2 15 -16 33 -33 l32 -29 -29 33 c-28 30 -36 37 -36 29z"
       id="path1108" />
    <path
       d="M4650 2226 c0 -2 8 -10 18 -17 l17 -14 -14 18 c-13 16 -21 21 -21 13z"
       id="path1110" />
    <path
       d="M3275 2160 c3 -5 8 -10 11 -10 3 0 2 5 -1 10 -3 6 -8 10 -11 10 -3 0 -2 -4 1 -10z"
       id="path1112" />
    <path
       d="M4354 2138 l-7 -11 11 7 c12 7 16 16 8 16 -3 0 -8 -5 -12 -12z"
       id="path1114" />
    <path
       d="M4735 2140 c3 -5 8 -10 11 -10 3 0 2 5 -1 10 -3 6 -8 10 -11 10 -3 0 -2 -4 1 -10z"
       id="path1116" />
    <path
       d="M4463 2133 c4 -3 10 -3 14 0 3 4 0 7 -7 7 -7 0 -10 -3 -7 -7z"
       id="path1118" />
    <path
       d="M4323 2123 c4 -3 10 -3 14 0 3 4 0 7 -7 7 -7 0 -10 -3 -7 -7z"
       id="path1120" />
    <path
       d="M3413 2093 c4 -3 10 -3 14 0 3 4 0 7 -7 7 -7 0 -10 -3 -7 -7z"
       id="path1122" />
    <path
       d="M3443 2083 c4 -3 10 -3 14 0 3 4 0 7 -7 7 -7 0 -10 -3 -7 -7z"
       id="path1124" />
    <path
       d="M4213 2083 c4 -3 10 -3 14 0 3 4 0 7 -7 7 -7 0 -10 -3 -7 -7z"
       id="path1126" />
    <path
       d="M4575 2070 c10 -11 20 -20 23 -20 3 0 -3 9 -13 20 -10 11 -20 20 -23 20 -3 0 3 -9 13 -20z"
       id="path1128" />
    <path
       d="M3483 2073 c4 -3 10 -3 14 0 3 4 0 7 -7 7 -7 0 -10 -3 -7 -7z"
       id="path1130" />
    <path
       d="M4770 2070 c0 -7 3 -10 7 -7 3 4 3 10 0 14 -4 3 -7 0 -7 -7z"
       id="path1132" />
    <path
       d="M3523 2063 c4 -3 10 -3 14 0 3 4 0 7 -7 7 -7 0 -10 -3 -7 -7z"
       id="path1134" />
    <path
       d="M4133 2063 c4 -3 10 -3 14 0 3 4 0 7 -7 7 -7 0 -10 -3 -7 -7z"
       id="path1136" />
    <path
       d="M3578 2053 c7 -3 16 -2 19 1 4 3 -2 6 -13 5 l-19 -1 13 -5z"
       id="path1138" />
    <path
       d="M4083 2053 c4 -3 10 -3 14 0 3 4 0 7 -7 7 -7 0 -10 -3 -7 -7z"
       id="path1140" />
    <path
       d="M3648 2043 c7 -3 16 -2 19 1 4 3 -2 6 -13 5 l-19 -1 13 -5z"
       id="path1142" />
    <path
       d="M4008 2043 c6 -2 18 -2 25 0 6 3 1 5 -13 5 -14 0 -19 -2 -12 -5z"
       id="path1144" />
    <path
       d="M3798 2033 c23 -2 61 -2 85 0 23 2 4 4 -43 4 -47 0 -66 -2 -42 -4z"
       id="path1146" />
    <path
       d="M4781 2024 l1 -19 5 13 c3 7 2 16 -1 19 -3 4 -6 -2 -5 -13z"
       id="path1148" />
    <path
       d="M4610 2020 c0 -7 3 -10 7 -7 3 4 3 10 0 14 -4 3 -7 0 -7 -7z"
       id="path1150" />
    <path
       d="M4610 1960 c0 -7 3 -10 7 -7 3 4 3 10 0 14 -4 3 -7 0 -7 -7z"
       id="path1152" />
    <path
       d="M4781 1954 l1 -19 5 13 c3 7 2 16 -1 19 -3 4 -6 -2 -5 -13z"
       id="path1154" />
    <path
       d="M4594 1928 l-7 -11 11 7 c12 7 16 16 8 16 -3 0 -8 -5 -12 -12z"
       id="path1156" />
    <path
       d="M4770 1910 c0 -7 3 -10 7 -7 3 4 3 10 0 14 -4 3 -7 0 -7 -7z"
       id="path1158" />
    <path
       d="M4564 1898 l-7 -11 11 7 c7 4 12 9 12 12 0 8 -9 4 -16 -8z"
       id="path1160" />
    <path
       d="M4760 1880 c0 -7 3 -10 7 -7 3 4 3 10 0 14 -4 3 -7 0 -7 -7z"
       id="path1162" />
    <path
       d="M4473 1853 c4 -3 10 -3 14 0 3 4 0 7 -7 7 -7 0 -10 -3 -7 -7z"
       id="path1164" />
    <path
       d="M4744 1848 l-7 -11 11 7 c7 4 12 9 12 12 0 8 -9 4 -16 -8z"
       id="path1166" />
    <path
       d="M4443 1843 c4 -3 10 -3 14 0 3 4 0 7 -7 7 -7 0 -10 -3 -7 -7z"
       id="path1168" />
    <path
       d="M4403 1833 c4 -3 10 -3 14 0 3 4 0 7 -7 7 -7 0 -10 -3 -7 -7z"
       id="path1170" />
    <path
       d="M4363 1823 c4 -3 10 -3 14 0 3 4 0 7 -7 7 -7 0 -10 -3 -7 -7z"
       id="path1172" />
    <path
       d="M4724 1818 l-7 -11 11 7 c7 4 12 9 12 12 0 8 -9 4 -16 -8z"
       id="path1174" />
    <path
       d="M4313 1813 c4 -3 10 -3 14 0 3 4 0 7 -7 7 -7 0 -10 -3 -7 -7z"
       id="path1176" />
    <path
       d="M4258 1803 c7 -3 16 -2 19 1 4 3 -2 6 -13 5 l-19 -1 13 -5z"
       id="path1178" />
    <path
       d="M4188 1793 c7 -3 16 -2 19 1 4 3 -2 6 -13 5 l-19 -1 13 -5z"
       id="path1180" />
    <path
       d="M4108 1783 c6 -2 18 -2 25 0 6 3 1 5 -13 5 -14 0 -19 -2 -12 -5z"
       id="path1182" />
    <path
       d="M4679 1773 l-14 -18 18 14 c16 13 21 21 13 21 -2 0 -10 -8 -17 -17z"
       id="path1184" />
    <path
       d="M3998 1773 c6 -2 18 -2 25 0 6 3 1 5 -13 5 -14 0 -19 -2 -12 -5z"
       id="path1186" />
    <path
       d="M3828 1763 c12 -2 32 -2 45 0 12 2 2 4 -23 4 -25 0 -35 -2 -22 -4z"
       id="path1188" />
    <path
       d="M3393 1753 c37 -2 96 -2 130 0 34 2 4 3 -68 3 -71 0 -99 -1 -62 -3z"
       id="path1190" />
    <path
       d="M2468 1743 c17 -2 47 -2 65 0 17 2 3 4 -33 4 -36 0 -50 -2 -32 -4z"
       id="path1192" />
    <path
       d="M4533 1693 c4 -3 10 -3 14 0 3 4 0 7 -7 7 -7 0 -10 -3 -7 -7z"
       id="path1194" />
    <path
       d="M4443 1663 c4 -3 10 -3 14 0 3 4 0 7 -7 7 -7 0 -10 -3 -7 -7z"
       id="path1196" />
    <path
       d="M4403 1653 c4 -3 10 -3 14 0 3 4 0 7 -7 7 -7 0 -10 -3 -7 -7z"
       id="path1198" />
    <path
       d="M4363 1643 c4 -3 10 -3 14 0 3 4 0 7 -7 7 -7 0 -10 -3 -7 -7z"
       id="path1200" />
    <path
       d="M4308 1633 c7 -3 16 -2 19 1 4 3 -2 6 -13 5 l-19 -1 13 -5z"
       id="path1202" />
    <path
       d="M4253 1623 c4 -3 10 -3 14 0 3 4 0 7 -7 7 -7 0 -10 -3 -7 -7z"
       id="path1204" />
    <path
       d="M4188 1613 c7 -3 16 -2 19 1 4 3 -2 6 -13 5 l-19 -1 13 -5z"
       id="path1206" />
    <path
       d="M4108 1603 c7 -3 16 -2 19 1 4 3 -2 6 -13 5 l-19 -1 13 -5z"
       id="path1208" />
    <path
       d="M4008 1593 c6 -2 18 -2 25 0 6 3 1 5 -13 5 -14 0 -19 -2 -12 -5z"
       id="path1210" />
    <path
       d="M3898 1583 c6 -2 18 -2 25 0 6 3 1 5 -13 5 -14 0 -19 -2 -12 -5z"
       id="path1212" />
    <path
       d="M3753 1573 c9 -2 23 -2 30 0 6 3 -1 5 -18 5 l-30 0 18 -5z"
       id="path1214" />
    <path
       d="M3583 1563 c9 -2 25 -2 35 0 9 3 1 5 -18 5 -19 0 -27 -2 -17 -5z"
       id="path1216" />
    <path
       d="M3378 1553 c12 -2 32 -2 45 0 12 2 2 4 -23 4 -25 0 -35 -2 -22 -4z"
       id="path1218" />
    <path
       d="M3158 1543 c12 -2 30 -2 40 0 9 3 -1 5 -23 4 l-40 0 23 -4z"
       id="path1220" />
    <path
       d="M2958 1533 c12 -2 30 -2 40 0 9 3 -1 5 -23 4 l-40 0 23 -4z"
       id="path1222" />
    <path
       d="M2763 1523 c9 -2 25 -2 35 0 9 3 1 5 -18 5 -19 0 -27 -2 -17 -5z"
       id="path1224" />
    <path
       d="M2613 1513 c9 -2 23 -2 30 0 6 3 -1 5 -18 5 l-30 0 18 -5z"
       id="path1226" />
    <path
       d="M2483 1503 c9 -2 23 -2 30 0 6 3 -1 5 -18 5 l-30 0 18 -5z"
       id="path1228" />
    <path
       d="M2378 1493 c6 -2 18 -2 25 0 6 3 1 5 -13 5 -14 0 -19 -2 -12 -5z"
       id="path1230" />
    <path
       d="M2288 1483 c7 -3 16 -2 19 1 4 3 -2 6 -13 5 l-19 -1 13 -5z"
       id="path1232" />
    <path
       d="M2038 983 c7 -3 16 -2 19 1 4 3 -2 6 -13 5 l-19 -1 13 -5z"
       id="path1234" />
    <path
       d="M2168 973 c12 -2 32 -2 45 0 12 2 2 4 -23 4 -25 0 -35 -2 -22 -4z"
       id="path1236" />
    <path
       d="M2463 963 c15 -2 37 -2 50 0 12 2 0 4 -28 4 -27 0 -38 -2 -22 -4z"
       id="path1238" />
    <path
       d="M2718 953 c12 -2 30 -2 40 0 9 3 -1 5 -23 4 l-40 0 23 -4z"
       id="path1240" />
    <path
       d="M2878 943 c6 -2 18 -2 25 0 6 3 1 5 -13 5 -14 0 -19 -2 -12 -5z"
       id="path1242" />
    <path
       d="M2988 933 c7 -3 16 -2 19 1 4 3 -2 6 -13 5 l-19 -1 13 -5z"
       id="path1244" />
    <path
       d="M3068 923 c7 -3 16 -2 19 1 4 3 -2 6 -13 5 l-19 -1 13 -5z"
       id="path1246" />
    <path
       d="M3138 913 c7 -3 16 -2 19 1 4 3 -2 6 -13 5 l-19 -1 13 -5z"
       id="path1248" />
    <path
       d="M3198 903 c7 -3 16 -2 19 1 4 3 -2 6 -13 5 l-19 -1 13 -5z"
       id="path1250" />
    <path
       d="M3243 893 c4 -3 10 -3 14 0 3 4 0 7 -7 7 -7 0 -10 -3 -7 -7z"
       id="path1252" />
    <path
       d="M3293 883 c4 -3 10 -3 14 0 3 4 0 7 -7 7 -7 0 -10 -3 -7 -7z"
       id="path1254" />
    <path
       d="M3333 873 c4 -3 10 -3 14 0 3 4 0 7 -7 7 -7 0 -10 -3 -7 -7z"
       id="path1256" />
    <path
       d="M3403 853 c4 -3 10 -3 14 0 3 4 0 7 -7 7 -7 0 -10 -3 -7 -7z"
       id="path1258" />
    <path
       d="M3433 843 c4 -3 10 -3 14 0 3 4 0 7 -7 7 -7 0 -10 -3 -7 -7z"
       id="path1260" />
    <path
       d="M3463 833 c4 -3 10 -3 14 0 3 4 0 7 -7 7 -7 0 -10 -3 -7 -7z"
       id="path1262" />
    <path
       d="M3583 783 c4 -3 10 -3 14 0 3 4 0 7 -7 7 -7 0 -10 -3 -7 -7z"
       id="path1264" />
    <path
       d="M3655 750 c3 -5 8 -10 11 -10 3 0 2 5 -1 10 -3 6 -8 10 -11 10 -3 0 -2 -4 1 -10z"
       id="path1266" />
    <path
       d="M3705 720 c3 -5 8 -10 11 -10 3 0 2 5 -1 10 -3 6 -8 10 -11 10 -3 0 -2 -4 1 -10z"
       id="path1268" />
    <path
       d="M3735 700 c3 -5 8 -10 11 -10 3 0 2 5 -1 10 -3 6 -8 10 -11 10 -3 0 -2 -4 1 -10z"
       id="path1270" />
    <path
       d="M3775 670 c3 -5 8 -10 11 -10 3 0 2 5 -1 10 -3 6 -8 10 -11 10 -3 0 -2 -4 1 -10z"
       id="path1272" />
    <path
       d="M1783 653 c4 -3 10 -3 14 0 3 4 0 7 -7 7 -7 0 -10 -3 -7 -7z"
       id="path1274" />
    <path
       d="M1813 643 c4 -3 10 -3 14 0 3 4 0 7 -7 7 -7 0 -10 -3 -7 -7z"
       id="path1276" />
    <path
       d="M1853 633 c4 -3 10 -3 14 0 3 4 0 7 -7 7 -7 0 -10 -3 -7 -7z"
       id="path1278" />
    <path
       d="M1893 623 c4 -3 10 -3 14 0 3 4 0 7 -7 7 -7 0 -10 -3 -7 -7z"
       id="path1280" />
    <path
       d="M1938 613 c7 -3 16 -2 19 1 4 3 -2 6 -13 5 l-19 -1 13 -5z"
       id="path1282" />
    <path
       d="M3840 617 c0 -2 15 -16 33 -33 l32 -29 -29 33 c-28 30 -36 37 -36 29z"
       id="path1284" />
    <path
       d="M1988 603 c7 -3 16 -2 19 1 4 3 -2 6 -13 5 l-19 -1 13 -5z"
       id="path1286" />
    <path
       d="M2048 593 c7 -3 16 -2 19 1 4 3 -2 6 -13 5 l-19 -1 13 -5z"
       id="path1288" />
    <path
       d="M2118 583 c7 -3 16 -2 19 1 4 3 -2 6 -13 5 l-19 -1 13 -5z"
       id="path1290" />
    <path
       d="M2198 573 c7 -3 16 -2 19 1 4 3 -2 6 -13 5 l-19 -1 13 -5z"
       id="path1292" />
    <path
       d="M2278 563 c7 -3 16 -2 19 1 4 3 -2 6 -13 5 l-19 -1 13 -5z"
       id="path1294" />
    <path
       d="M2358 553 c7 -3 16 -2 19 1 4 3 -2 6 -13 5 l-19 -1 13 -5z"
       id="path1296" />
    <path
       d="M2428 543 c6 -2 18 -2 25 0 6 3 1 5 -13 5 -14 0 -19 -2 -12 -5z"
       id="path1298" />
    <path
       d="M2508 533 c7 -3 16 -2 19 1 4 3 -2 6 -13 5 l-19 -1 13 -5z"
       id="path1300" />
    <path
       d="M2588 523 c7 -3 16 -2 19 1 4 3 -2 6 -13 5 l-19 -1 13 -5z"
       id="path1302" />
    <path
       d="M2658 513 c7 -3 16 -2 19 1 4 3 -2 6 -13 5 l-19 -1 13 -5z"
       id="path1304" />
    <path
       d="M3935 510 c3 -5 8 -10 11 -10 3 0 2 5 -1 10 -3 6 -8 10 -11 10 -3 0 -2 -4 1 -10z"
       id="path1306" />
    <path
       d="M2718 503 c7 -3 16 -2 19 1 4 3 -2 6 -13 5 l-19 -1 13 -5z"
       id="path1308" />
    <path
       d="M2778 493 c7 -3 16 -2 19 1 4 3 -2 6 -13 5 l-19 -1 13 -5z"
       id="path1310" />
    <path
       d="M2828 483 c7 -3 16 -2 19 1 4 3 -2 6 -13 5 l-19 -1 13 -5z"
       id="path1312" />
    <path
       d="M2883 473 c4 -3 10 -3 14 0 3 4 0 7 -7 7 -7 0 -10 -3 -7 -7z"
       id="path1314" />
    <path
       d="M2923 463 c4 -3 10 -3 14 0 3 4 0 7 -7 7 -7 0 -10 -3 -7 -7z"
       id="path1316" />
    <path
       d="M2968 453 c7 -3 16 -2 19 1 4 3 -2 6 -13 5 l-19 -1 13 -5z"
       id="path1318" />
    <path
       d="M3003 443 c4 -3 10 -3 14 0 3 4 0 7 -7 7 -7 0 -10 -3 -7 -7z"
       id="path1320" />
    <path
       d="M3976 434 l-6 -17 15 13 c17 14 19 20 6 20 -5 0 -12 -7 -15 -16z"
       id="path1322" />
    <path
       d="M3043 433 c4 -3 10 -3 14 0 3 4 0 7 -7 7 -7 0 -10 -3 -7 -7z"
       id="path1324" />
    <path
       d="M3944 408 l-7 -11 11 7 c12 7 16 16 8 16 -3 0 -8 -5 -12 -12z"
       id="path1326" />
    <path
       d="M3163 393 c4 -3 10 -3 14 0 3 4 0 7 -7 7 -7 0 -10 -3 -7 -7z"
       id="path1328" />
    <path
       d="M3914 388 l-7 -11 11 7 c7 4 12 9 12 12 0 8 -9 4 -16 -8z"
       id="path1330" />
    <path
       d="M3213 373 c4 -3 10 -3 14 0 3 4 0 7 -7 7 -7 0 -10 -3 -7 -7z"
       id="path1332" />
    <path
       d="M3864 358 l-7 -11 11 7 c12 7 16 16 8 16 -3 0 -8 -5 -12 -12z"
       id="path1334" />
    <path
       d="M3325 320 c3 -5 8 -10 11 -10 3 0 2 5 -1 10 -3 6 -8 10 -11 10 -3 0 -2 -4 1 -10z"
       id="path1336" />
    <path
       d="M3355 300 c3 -5 8 -10 11 -10 3 0 2 5 -1 10 -3 6 -8 10 -11 10 -3 0 -2 -4 1 -10z"
       id="path1338" />
    <path
       d="M3400 266 c0 -2 8 -10 18 -17 l17 -14 -14 18 c-13 16 -21 21 -21 13z"
       id="path1340" />
    <path
       d="M3445 210 c3 -5 8 -10 11 -10 3 0 2 5 -1 10 -3 6 -8 10 -11 10 -3 0 -2 -4 1 -10z"
       id="path1342" />
    <path
       d="M3583 213 c4 -3 10 -3 14 0 3 4 0 7 -7 7 -7 0 -10 -3 -7 -7z"
       id="path1344" />
  </g>
  <g
     transform="translate(0.000000,512.000000) scale(0.100000,-0.100000)"
     fill="#4aca7e"
     stroke="none"
     id="g2508">
    <path
       d="M3670 2580 c0 -5 5 -10 11 -10 5 0 7 5 4 10 -3 6 -8 10 -11 10 -2 0 -4 -4 -4 -10z"
       id="path2426" />
    <path
       d="M3990 2580 c0 -5 5 -10 11 -10 5 0 7 5 4 10 -3 6 -8 10 -11 10 -2 0 -4 -4 -4 -10z"
       id="path2428" />
    <path
       d="M3593 2563 c4 -3 10 -3 14 0 3 4 0 7 -7 7 -7 0 -10 -3 -7 -7z"
       id="path2430" />
    <path
       d="M3219 2413 l-14 -18 18 14 c16 13 21 21 13 21 -2 0 -10 -8 -17 -17z"
       id="path2432" />
    <path
       d="M3633 2043 c4 -3 10 -3 14 0 3 4 0 7 -7 7 -7 0 -10 -3 -7 -7z"
       id="path2434" />
    <path
       d="M3738 2033 c6 -2 18 -2 25 0 6 3 1 5 -13 5 -14 0 -19 -2 -12 -5z"
       id="path2436" />
    <path
       d="M3918 2033 c7 -3 16 -2 19 1 4 3 -2 6 -13 5 l-19 -1 13 -5z"
       id="path2438" />
    <path
       d="M4093 1783 c4 -3 10 -3 14 0 3 4 0 7 -7 7 -7 0 -10 -3 -7 -7z"
       id="path2440" />
    <path
       d="M3978 1773 c7 -3 16 -2 19 1 4 3 -2 6 -13 5 l-19 -1 13 -5z"
       id="path2442" />
    <path
       d="M3783 1763 c9 -2 23 -2 30 0 6 3 -1 5 -18 5 l-30 0 18 -5z"
       id="path2444" />
    <path
       d="M3143 1753 c37 -2 97 -2 135 0 37 2 6 3 -68 3 -74 0 -105 -1 -67 -3z"
       id="path2446" />
    <path
       d="M2418 1743 c6 -2 18 -2 25 0 6 3 1 5 -13 5 -14 0 -19 -2 -12 -5z"
       id="path2448" />
    <path
       d="M4263 1623 c4 -3 10 -3 14 0 3 4 0 7 -7 7 -7 0 -10 -3 -7 -7z"
       id="path2450" />
    <path
       d="M4123 1603 c4 -3 10 -3 14 0 3 4 0 7 -7 7 -7 0 -10 -3 -7 -7z"
       id="path2452" />
    <path
       d="M4033 1593 c4 -3 10 -3 14 0 3 4 0 7 -7 7 -7 0 -10 -3 -7 -7z"
       id="path2454" />
    <path
       d="M3928 1583 c7 -3 16 -2 19 1 4 3 -2 6 -13 5 l-19 -1 13 -5z"
       id="path2456" />
    <path
       d="M3788 1573 c7 -3 16 -2 19 1 4 3 -2 6 -13 5 l-19 -1 13 -5z"
       id="path2458" />
    <path
       d="M3628 1563 c6 -2 18 -2 25 0 6 3 1 5 -13 5 -14 0 -19 -2 -12 -5z"
       id="path2460" />
    <path
       d="M3443 1553 c9 -2 23 -2 30 0 6 3 -1 5 -18 5 l-30 0 18 -5z"
       id="path2462" />
    <path
       d="M3213 1543 c9 -2 23 -2 30 0 6 3 -1 5 -18 5 l-30 0 18 -5z"
       id="path2464" />
    <path
       d="M3008 1533 c6 -2 18 -2 25 0 6 3 1 5 -13 5 -14 0 -19 -2 -12 -5z"
       id="path2466" />
    <path
       d="M2808 1523 c7 -3 16 -2 19 1 4 3 -2 6 -13 5 l-19 -1 13 -5z"
       id="path2468" />
    <path
       d="M2643 1513 c4 -3 10 -3 14 0 3 4 0 7 -7 7 -7 0 -10 -3 -7 -7z"
       id="path2470" />
    <path
       d="M2513 1503 c4 -3 10 -3 14 0 3 4 0 7 -7 7 -7 0 -10 -3 -7 -7z"
       id="path2472" />
    <path
       d="M2403 1493 c4 -3 10 -3 14 0 3 4 0 7 -7 7 -7 0 -10 -3 -7 -7z"
       id="path2474" />
    <path
       d="M2303 1483 c4 -3 10 -3 14 0 3 4 0 7 -7 7 -7 0 -10 -3 -7 -7z"
       id="path2476" />
    <path
       d="M1950 1000 c0 -6 7 -10 15 -10 8 0 15 2 15 4 0 2 -7 6 -15 10 -8 3 -15 1 -15 -4z"
       id="path2478" />
    <path
       d="M2058 983 c7 -3 16 -2 19 1 4 3 -2 6 -13 5 l-19 -1 13 -5z"
       id="path2480" />
    <path
       d="M2233 973 c9 -2 23 -2 30 0 6 3 -1 5 -18 5 l-30 0 18 -5z"
       id="path2482" />
    <path
       d="M2533 963 c9 -2 25 -2 35 0 9 3 1 5 -18 5 -19 0 -27 -2 -17 -5z"
       id="path2484" />
    <path
       d="M2768 953 c6 -2 18 -2 25 0 6 3 1 5 -13 5 -14 0 -19 -2 -12 -5z"
       id="path2486" />
    <path
       d="M2903 943 c4 -3 10 -3 14 0 3 4 0 7 -7 7 -7 0 -10 -3 -7 -7z"
       id="path2488" />
    <path
       d="M3003 933 c4 -3 10 -3 14 0 3 4 0 7 -7 7 -7 0 -10 -3 -7 -7z"
       id="path2490" />
    <path
       d="M3083 923 c4 -3 10 -3 14 0 3 4 0 7 -7 7 -7 0 -10 -3 -7 -7z"
       id="path2492" />
    <path
       d="M3820 636 c0 -2 8 -10 18 -17 l17 -14 -14 18 c-13 16 -21 21 -21 13z"
       id="path2494" />
    <path
       d="M2183 573 c4 -3 10 -3 14 0 3 4 0 7 -7 7 -7 0 -10 -3 -7 -7z"
       id="path2496" />
    <path
       d="M2263 563 c4 -3 10 -3 14 0 3 4 0 7 -7 7 -7 0 -10 -3 -7 -7z"
       id="path2498" />
    <path
       d="M3895 560 c3 -5 8 -10 11 -10 3 0 2 5 -1 10 -3 6 -8 10 -11 10 -3 0 -2 -4 1 -10z"
       id="path2500" />
    <path
       d="M2343 553 c4 -3 10 -3 14 0 3 4 0 7 -7 7 -7 0 -10 -3 -7 -7z"
       id="path2502" />
    <path
       d="M2573 523 c4 -3 10 -3 14 0 3 4 0 7 -7 7 -7 0 -10 -3 -7 -7z"
       id="path2504" />
    <path
       d="M2643 513 c4 -3 10 -3 14 0 3 4 0 7 -7 7 -7 0 -10 -3 -7 -7z"
       id="path2506" />
  </g>
  <g
     transform="translate(0.000000,512.000000) scale(0.100000,-0.100000)"
     fill="#e16760"
     stroke="none"
     id="g3194">
    <path
       d="M3344 4978 l-7 -11 11 7 c7 4 12 9 12 12 0 8 -9 4 -16 -8z"
       id="path2938" />
    <path
       d="M3284 4938 l-7 -11 11 7 c12 7 16 16 8 16 -3 0 -8 -5 -12 -12z"
       id="path2940" />
    <path
       d="M3993 4643 c4 -3 10 -3 14 0 3 4 0 7 -7 7 -7 0 -10 -3 -7 -7z"
       id="path2942" />
    <path
       d="M3554 4588 l-7 -11 11 7 c12 7 16 16 8 16 -3 0 -8 -5 -12 -12z"
       id="path2944" />
    <path
       d="M4225 4480 c3 -5 8 -10 11 -10 3 0 2 5 -1 10 -3 6 -8 10 -11 10 -3 0 -2 -4 1 -10z"
       id="path2946" />
    <path
       d="M3424 4458 l-7 -11 11 7 c12 7 16 16 8 16 -3 0 -8 -5 -12 -12z"
       id="path2948" />
    <path
       d="M3340 4180 c0 -7 3 -10 7 -7 3 4 3 10 0 14 -4 3 -7 0 -7 -7z"
       id="path2950" />
    <path
       d="M3535 3790 c3 -5 8 -10 11 -10 3 0 2 5 -1 10 -3 6 -8 10 -11 10 -3 0 -2 -4 1 -10z"
       id="path2952" />
    <path
       d="M1633 3753 c4 -3 10 -3 14 0 3 4 0 7 -7 7 -7 0 -10 -3 -7 -7z"
       id="path2954" />
    <path
       d="M3763 3693 c4 -3 10 -3 14 0 3 4 0 7 -7 7 -7 0 -10 -3 -7 -7z"
       id="path2956" />
    <path
       d="M2075 3560 c3 -5 8 -10 11 -10 3 0 2 5 -1 10 -3 6 -8 10 -11 10 -3 0 -2 -4 1 -10z"
       id="path2958" />
    <path
       d="M2115 3530 c3 -5 8 -10 11 -10 3 0 2 5 -1 10 -3 6 -8 10 -11 10 -3 0 -2 -4 1 -10z"
       id="path2960" />
    <path
       d="M444 3418 l-29 -33 33 29 c30 28 37 36 29 36 -2 0 -16 -15 -33 -32z"
       id="path2962" />
    <path
       d="M344 3308 l-7 -11 11 7 c7 4 12 9 12 12 0 8 -9 4 -16 -8z"
       id="path2964" />
    <path
       d="M3261 3300 c14 -31 19 -36 19 -24 0 6 -7 19 -16 30 l-15 19 12 -25z"
       id="path2966" />
    <path
       d="M4410 3310 c0 -7 3 -10 7 -7 3 4 3 10 0 14 -4 3 -7 0 -7 -7z"
       id="path2968" />
    <path
       d="M316 3273 l-7 -18 12 12 c7 7 10 15 7 18 -3 3 -9 -2 -12 -12z"
       id="path2970" />
    <path
       d="M4380 3259 c-7 -11 -10 -23 -7 -25 2 -2 9 7 15 21 14 30 7 33 -8 4z"
       id="path2972" />
    <path
       d="M2411 3215 c17 -25 33 -45 36 -45 3 0 -1 10 -9 23 -8 12 -21 32 -29 45 -8 12 -17 22 -21 22 -4 0 6 -20 23 -45z"
       id="path2974" />
    <path
       d="M277 3220 c-10 -16 -16 -30 -13 -30 2 0 14 14 26 30 12 17 18 30 13 30 -5 0 -17 -13 -26 -30z"
       id="path2976" />
    <path
       d="M3296 3237 c3 -10 9 -15 12 -12 3 3 0 11 -7 18 l-12 12 7 -18z"
       id="path2978" />
    <path
       d="M4345 3199 c-4 -6 -5 -12 -2 -15 2 -3 7 2 10 11 7 17 1 20 -8 4z"
       id="path2980" />
    <path
       d="M1243 3173 c4 -3 10 -3 14 0 3 4 0 7 -7 7 -7 0 -10 -3 -7 -7z"
       id="path2982" />
    <path
       d="M3336 3167 c3 -10 9 -15 12 -12 3 3 0 11 -7 18 l-12 12 7 -18z"
       id="path2984" />
    <path
       d="M236 3153 l-7 -18 12 12 c7 7 10 15 7 18 -3 3 -9 -2 -12 -12z"
       id="path2986" />
    <path
       d="M2460 3146 c0 -10 60 -126 65 -126 3 0 -9 28 -26 63 -33 65 -39 75 -39 63z"
       id="path2988" />
    <path
       d="M1583 3133 c4 -3 10 -3 14 0 3 4 0 7 -7 7 -7 0 -10 -3 -7 -7z"
       id="path2990" />
    <path
       d="M4305 3129 c-4 -6 -5 -12 -2 -15 2 -3 7 2 10 11 7 17 1 20 -8 4z"
       id="path2992" />
    <path
       d="M3371 3110 c14 -31 19 -36 19 -24 0 6 -7 19 -16 30 l-15 19 12 -25z"
       id="path2994" />
    <path
       d="M4270 3069 c-7 -11 -10 -23 -7 -25 2 -2 9 7 15 21 14 30 7 33 -8 4z"
       id="path2996" />
    <path
       d="M3411 3040 c14 -31 19 -36 19 -24 0 6 -7 19 -16 30 l-15 19 12 -25z"
       id="path2998" />
    <path
       d="M4230 2999 c-7 -11 -10 -23 -7 -25 2 -2 9 7 15 21 14 30 7 33 -8 4z"
       id="path3000" />
    <path
       d="M156 2993 l-7 -18 12 12 c7 7 10 15 7 18 -3 3 -9 -2 -12 -12z"
       id="path3002" />
    <path
       d="M2530 2991 c0 -6 4 -13 10 -16 l10 -6 -6 15 c-7 18 -14 21 -14 7z"
       id="path3004" />
    <path
       d="M864 2978 l-7 -11 11 7 c7 4 12 9 12 12 0 8 -9 4 -16 -8z"
       id="path3006" />
    <path
       d="M3446 2977 c3 -10 9 -15 12 -12 3 3 0 11 -7 18 l-12 12 7 -18z"
       id="path3008" />
    <path
       d="M2552 2945 c0 -5 6 -26 13 -45 7 -19 14 -28 14 -20 0 8 -6 29 -14 45 -7 17 -13 26 -13 20z"
       id="path3010" />
    <path
       d="M4195 2939 c-4 -6 -5 -12 -2 -15 2 -3 7 2 10 11 7 17 1 20 -8 4z"
       id="path3012" />
    <path
       d="M130 2920 c0 -7 3 -10 7 -7 3 4 3 10 0 14 -4 3 -7 0 -7 -7z"
       id="path3014" />
    <path
       d="M3486 2907 c3 -10 9 -15 12 -12 3 3 0 11 -7 18 l-12 12 7 -18z"
       id="path3016" />
    <path
       d="M121 2884 l1 -19 5 13 c3 7 2 16 -1 19 -3 4 -6 -2 -5 -13z"
       id="path3018" />
    <path
       d="M4155 2869 c-4 -6 -5 -12 -2 -15 2 -3 7 2 10 11 7 17 1 20 -8 4z"
       id="path3020" />
    <path
       d="M3521 2850 c14 -31 19 -36 19 -24 0 6 -7 19 -16 30 l-15 19 12 -25z"
       id="path3022" />
    <path
       d="M2580 2841 c0 -6 4 -13 10 -16 l10 -6 -6 15 c-7 18 -14 21 -14 7z"
       id="path3024" />
    <path
       d="M4120 2809 c-7 -11 -10 -23 -7 -25 2 -2 9 7 15 21 14 30 7 33 -8 4z"
       id="path3026" />
    <path
       d="M2590 2801 c0 -6 4 -13 10 -16 l10 -6 -6 15 c-7 18 -14 21 -14 7z"
       id="path3028" />
    <path
       d="M3556 2787 c3 -10 9 -15 12 -12 3 3 0 11 -7 18 l-12 12 7 -18z"
       id="path3030" />
    <path
       d="M91 2764 l1 -19 5 13 c3 7 2 16 -1 19 -3 4 -6 -2 -5 -13z"
       id="path3032" />
    <path
       d="M2601 2754 l1 -19 5 13 c3 7 2 16 -1 19 -3 4 -6 -2 -5 -13z"
       id="path3034" />
    <path
       d="M4085 2749 c-4 -6 -5 -12 -2 -15 2 -3 7 2 10 11 7 17 1 20 -8 4z"
       id="path3036" />
    <path
       d="M80 2720 c0 -7 3 -10 7 -7 3 4 3 10 0 14 -4 3 -7 0 -7 -7z"
       id="path3038" />
    <path
       d="M3596 2717 c3 -10 9 -15 12 -12 3 3 0 11 -7 18 l-12 12 7 -18z"
       id="path3040" />
    <path
       d="M2611 2694 l1 -19 5 13 c3 7 2 16 -1 19 -3 4 -6 -2 -5 -13z"
       id="path3042" />
    <path
       d="M4045 2679 c-4 -6 -5 -12 -2 -15 2 -3 7 2 10 11 7 17 1 20 -8 4z"
       id="path3044" />
    <path
       d="M3636 2647 c3 -10 9 -15 12 -12 3 3 0 11 -7 18 l-12 12 7 -18z"
       id="path3046" />
    <path
       d="M70 2640 c0 -7 3 -10 7 -7 3 4 3 10 0 14 -4 3 -7 0 -7 -7z"
       id="path3048" />
    <path
       d="M2622 2605 l0 -30 5 18 c2 9 2 23 0 30 -3 6 -5 -1 -5 -18z"
       id="path3050" />
    <path
       d="M4005 2609 c-4 -6 -5 -12 -2 -15 2 -3 7 2 10 11 7 17 1 20 -8 4z"
       id="path3052" />
    <path
       d="M3670 2590 c6 -11 13 -20 16 -20 2 0 0 9 -6 20 -6 11 -13 20 -16 20 -2 0 0 -9 6 -20z"
       id="path3054" />
    <path
       d="M3964 2538 l-7 -11 11 7 c12 7 16 16 8 16 -3 0 -8 -5 -12 -12z"
       id="path3056" />
    <path
       d="M3706 2527 c3 -10 9 -15 12 -12 3 3 0 11 -7 18 l-12 12 7 -18z"
       id="path3058" />
    <path
       d="M3935 2489 c-4 -6 -5 -12 -2 -15 2 -3 7 2 10 11 7 17 1 20 -8 4z"
       id="path3060" />
    <path
       d="M3746 2457 c3 -10 9 -15 12 -12 3 3 0 11 -7 18 l-12 12 7 -18z"
       id="path3062" />
    <path
       d="M2622 2420 c0 -14 2 -19 5 -12 2 6 2 18 0 25 -3 6 -5 1 -5 -13z"
       id="path3064" />
    <path
       d="M3895 2419 c-4 -6 -5 -12 -2 -15 2 -3 7 2 10 11 7 17 1 20 -8 4z"
       id="path3066" />
    <path
       d="M72 2380 c0 -14 2 -19 5 -12 2 6 2 18 0 25 -3 6 -5 1 -5 -13z"
       id="path3068" />
    <path
       d="M3785 2390 c3 -5 8 -10 11 -10 3 0 2 5 -1 10 -3 6 -8 10 -11 10 -3 0 -2 -4 1 -10z"
       id="path3070" />
    <path
       d="M3855 2349 c-4 -6 -5 -12 -2 -15 2 -3 7 2 10 11 7 17 1 20 -8 4z"
       id="path3072" />
    <path
       d="M3816 2337 c3 -10 9 -15 12 -12 3 3 0 11 -7 18 l-12 12 7 -18z"
       id="path3074" />
    <path
       d="M2611 2324 l1 -19 5 13 c3 7 2 16 -1 19 -3 4 -6 -2 -5 -13z"
       id="path3076" />
    <path
       d="M81 2304 l1 -19 5 13 c3 7 2 16 -1 19 -3 4 -6 -2 -5 -13z"
       id="path3078" />
    <path
       d="M2601 2264 l1 -19 5 13 c3 7 2 16 -1 19 -3 4 -6 -2 -5 -13z"
       id="path3080" />
    <path
       d="M90 2250 c0 -7 3 -10 7 -7 3 4 3 10 0 14 -4 3 -7 0 -7 -7z"
       id="path3082" />
    <path
       d="M120 2134 c0 -10 5 -26 10 -34 l11 -15 -7 30 c-8 37 -14 45 -14 19z"
       id="path3084" />
    <path
       d="M2562 2113 c-6 -20 -10 -39 -8 -41 2 -2 9 13 16 33 7 20 10 38 8 41 -3 2 -10 -13 -16 -33z"
       id="path3086" />
    <path
       d="M161 2020 c14 -31 19 -36 19 -24 0 6 -7 19 -16 30 l-15 19 12 -25z"
       id="path3088" />
    <path
       d="M2494 1949 c-14 -28 -24 -53 -22 -55 2 -2 16 21 31 51 15 30 25 55 22 55 -3 0 -16 -23 -31 -51z"
       id="path3090" />
    <path
       d="M945 1970 c3 -5 8 -10 11 -10 3 0 2 5 -1 10 -3 6 -8 10 -11 10 -3 0 -2 -4 1 -10z"
       id="path3092" />
    <path
       d="M231 1880 c14 -31 19 -36 19 -24 0 6 -7 19 -16 30 l-15 19 12 -25z"
       id="path3094" />
    <path
       d="M1433 1843 c4 -3 10 -3 14 0 3 4 0 7 -7 7 -7 0 -10 -3 -7 -7z"
       id="path3096" />
    <path
       d="M2435 1839 c-4 -6 -5 -12 -2 -15 2 -3 7 2 10 11 7 17 1 20 -8 4z"
       id="path3098" />
    <path
       d="M271 1810 c14 -31 19 -36 19 -24 0 6 -7 19 -16 30 l-15 19 12 -25z"
       id="path3100" />
    <path
       d="M2395 1769 c-4 -6 -5 -12 -2 -15 2 -3 7 2 10 11 7 17 1 20 -8 4z"
       id="path3102" />
    <path
       d="M306 1747 c3 -10 9 -15 12 -12 3 3 0 11 -7 18 l-12 12 7 -18z"
       id="path3104" />
    <path
       d="M2355 1699 c-4 -6 -5 -12 -2 -15 2 -3 7 2 10 11 7 17 1 20 -8 4z"
       id="path3106" />
    <path
       d="M346 1677 c3 -10 9 -15 12 -12 3 3 0 11 -7 18 l-12 12 7 -18z"
       id="path3108" />
    <path
       d="M2325 1649 c-4 -6 -5 -12 -2 -15 2 -3 7 2 10 11 7 17 1 20 -8 4z"
       id="path3110" />
    <path
       d="M386 1607 c3 -10 9 -15 12 -12 3 3 0 11 -7 18 l-12 12 7 -18z"
       id="path3112" />
    <path
       d="M2285 1579 c-4 -6 -5 -12 -2 -15 2 -3 7 2 10 11 7 17 1 20 -8 4z"
       id="path3114" />
    <path
       d="M421 1550 c14 -31 19 -36 19 -24 0 6 -7 19 -16 30 l-15 19 12 -25z"
       id="path3116" />
    <path
       d="M2245 1509 c-4 -6 -5 -12 -2 -15 2 -3 7 2 10 11 7 17 1 20 -8 4z"
       id="path3118" />
    <path
       d="M456 1487 c3 -10 9 -15 12 -12 3 3 0 11 -7 18 l-12 12 7 -18z"
       id="path3120" />
    <path
       d="M2210 1449 c-7 -11 -10 -23 -7 -25 2 -2 9 7 15 21 14 30 7 33 -8 4z"
       id="path3122" />
    <path
       d="M496 1417 c3 -10 9 -15 12 -12 3 3 0 11 -7 18 l-12 12 7 -18z"
       id="path3124" />
    <path
       d="M2170 1379 c-7 -11 -10 -23 -7 -25 2 -2 9 7 15 21 14 30 7 33 -8 4z"
       id="path3126" />
    <path
       d="M531 1360 c14 -31 19 -36 19 -24 0 6 -7 19 -16 30 l-15 19 12 -25z"
       id="path3128" />
    <path
       d="M2135 1319 c-4 -6 -5 -12 -2 -15 2 -3 7 2 10 11 7 17 1 20 -8 4z"
       id="path3130" />
    <path
       d="M571 1290 c14 -31 19 -36 19 -24 0 6 -7 19 -16 30 l-15 19 12 -25z"
       id="path3132" />
    <path
       d="M2095 1249 c-4 -6 -5 -12 -2 -15 2 -3 7 2 10 11 7 17 1 20 -8 4z"
       id="path3134" />
    <path
       d="M606 1227 c3 -10 9 -15 12 -12 3 3 0 11 -7 18 l-12 12 7 -18z"
       id="path3136" />
    <path
       d="M2060 1189 c-7 -11 -10 -23 -7 -25 2 -2 9 7 15 21 14 30 7 33 -8 4z"
       id="path3138" />
    <path
       d="M646 1157 c3 -10 9 -15 12 -12 3 3 0 11 -7 18 l-12 12 7 -18z"
       id="path3140" />
    <path
       d="M2025 1129 c-4 -6 -5 -12 -2 -15 2 -3 7 2 10 11 7 17 1 20 -8 4z"
       id="path3142" />
    <path
       d="M681 1100 c14 -31 19 -36 19 -24 0 6 -7 19 -16 30 l-15 19 12 -25z"
       id="path3144" />
    <path
       d="M1985 1059 c-4 -6 -5 -12 -2 -15 2 -3 7 2 10 11 7 17 1 20 -8 4z"
       id="path3146" />
    <path
       d="M721 1030 c14 -31 19 -36 19 -24 0 6 -7 19 -16 30 l-15 19 12 -25z"
       id="path3148" />
    <path
       d="M1945 989 c-4 -6 -5 -12 -2 -15 2 -3 7 2 10 11 7 17 1 20 -8 4z"
       id="path3150" />
    <path
       d="M756 967 c3 -10 9 -15 12 -12 3 3 0 11 -7 18 l-12 12 7 -18z"
       id="path3152" />
    <path
       d="M1904 918 l-7 -11 11 7 c12 7 16 16 8 16 -3 0 -8 -5 -12 -12z"
       id="path3154" />
    <path
       d="M796 897 c3 -10 9 -15 12 -12 3 3 0 11 -7 18 l-12 12 7 -18z"
       id="path3156" />
    <path
       d="M1875 869 c-4 -6 -5 -12 -2 -15 2 -3 7 2 10 11 7 17 1 20 -8 4z"
       id="path3158" />
    <path
       d="M831 840 c14 -31 19 -36 19 -24 0 6 -7 19 -16 30 l-15 19 12 -25z"
       id="path3160" />
    <path
       d="M1835 799 c-4 -6 -5 -12 -2 -15 2 -3 7 2 10 11 7 17 1 20 -8 4z"
       id="path3162" />
    <path
       d="M871 770 c14 -31 19 -36 19 -24 0 6 -7 19 -16 30 l-15 19 12 -25z"
       id="path3164" />
    <path
       d="M1794 728 l-7 -11 11 7 c12 7 16 16 8 16 -3 0 -8 -5 -12 -12z"
       id="path3166" />
    <path
       d="M906 707 c3 -10 9 -15 12 -12 3 3 0 11 -7 18 l-12 12 7 -18z"
       id="path3168" />
    <path
       d="M1760 669 c-7 -11 -10 -23 -7 -25 2 -2 9 7 15 21 14 30 7 33 -8 4z"
       id="path3170" />
    <path
       d="M946 637 c3 -10 9 -15 12 -12 3 3 0 11 -7 18 l-12 12 7 -18z"
       id="path3172" />
    <path
       d="M1725 609 c-4 -6 -5 -12 -2 -15 2 -3 7 2 10 11 7 17 1 20 -8 4z"
       id="path3174" />
    <path
       d="M981 580 c14 -31 19 -36 19 -24 0 6 -7 19 -16 30 l-15 19 12 -25z"
       id="path3176" />
    <path
       d="M1685 539 c-4 -6 -5 -12 -2 -15 2 -3 7 2 10 11 7 17 1 20 -8 4z"
       id="path3178" />
    <path
       d="M1015 520 c3 -5 8 -10 11 -10 3 0 2 5 -1 10 -3 6 -8 10 -11 10 -3 0 -2 -4 1 -10z"
       id="path3180" />
    <path
       d="M1050 490 c0 -5 5 -10 11 -10 5 0 7 5 4 10 -3 6 -8 10 -11 10 -2 0 -4 -4 -4 -10z"
       id="path3182" />
    <path
       d="M1650 479 c-7 -11 -10 -23 -7 -25 2 -2 9 7 15 21 14 30 7 33 -8 4z"
       id="path3184" />
    <path
       d="M1615 419 c-4 -6 -5 -12 -2 -15 2 -3 7 2 10 11 7 17 1 20 -8 4z"
       id="path3186" />
    <path
       d="M1575 349 c-4 -6 -5 -12 -2 -15 2 -3 7 2 10 11 7 17 1 20 -8 4z"
       id="path3188" />
    <path
       d="M1300 330 c0 -5 5 -10 11 -10 5 0 7 5 4 10 -3 6 -8 10 -11 10 -2 0 -4 -4 -4 -10z"
       id="path3190" />
    <path
       d="M1535 279 c-4 -6 -5 -12 -2 -15 2 -3 7 2 10 11 7 17 1 20 -8 4z"
       id="path3192" />
  </g>
  <g
     transform="translate(0.000000,512.000000) scale(0.100000,-0.100000)"
     fill="#b78466"
     stroke="none"
     id="g3434">
    <path
       d="M2345 3310 c3 -5 8 -10 11 -10 3 0 2 5 -1 10 -3 6 -8 10 -11 10 -3 0 -2 -4 1 -10z"
       id="path3196" />
    <path
       d="M334 3298 l-7 -11 11 7 c7 4 12 9 12 12 0 8 -9 4 -16 -8z"
       id="path3198" />
    <path
       d="M4400 3295 l-12 -15 10 0 c5 0 12 7 16 15 3 8 4 15 2 15 -2 0 -9 -7 -16 -15z"
       id="path3200" />
    <path
       d="M2375 3270 c3 -5 8 -10 11 -10 3 0 2 5 -1 10 -3 6 -8 10 -11 10 -3 0 -2 -4 1 -10z"
       id="path3202" />
    <path
       d="M3270 3276 c0 -2 8 -10 18 -17 l17 -14 -14 18 c-13 16 -21 21 -21 13z"
       id="path3204" />
    <path
       d="M304 3258 l-7 -11 11 7 c7 4 12 9 12 12 0 8 -9 4 -16 -8z"
       id="path3206" />
    <path
       d="M2405 3230 c3 -5 8 -10 11 -10 3 0 2 5 -1 10 -3 6 -8 10 -11 10 -3 0 -2 -4 1 -10z"
       id="path3208" />
    <path
       d="M4359 3223 l-14 -18 18 14 c9 7 17 15 17 17 0 8 -8 3 -21 -13z"
       id="path3210" />
    <path
       d="M275 3220 c-3 -5 -1 -10 4 -10 6 0 11 5 11 10 0 6 -2 10 -4 10 -3 0 -8 -4 -11 -10z"
       id="path3212" />
    <path
       d="M3310 3212 c6 -13 14 -21 18 -18 3 4 -2 14 -12 24 l-18 17 12 -23z"
       id="path3214" />
    <path
       d="M2420 3200 c0 -5 5 -10 11 -10 5 0 7 5 4 10 -3 6 -8 10 -11 10 -2 0 -4 -4 -4 -10z"
       id="path3216" />
    <path
       d="M246 3174 l-6 -17 15 13 c17 14 19 20 6 20 -5 0 -12 -7 -15 -16z"
       id="path3218" />
    <path
       d="M4330 3175 c-7 -9 -10 -18 -7 -21 3 -3 10 4 17 15 13 25 8 27 -10 6z"
       id="path3220" />
    <path
       d="M2455 3150 c3 -5 8 -10 11 -10 3 0 2 5 -1 10 -3 6 -8 10 -11 10 -3 0 -2 -4 1 -10z"
       id="path3222" />
    <path
       d="M3350 3142 c6 -13 14 -21 18 -18 3 4 -2 14 -12 24 l-18 17 12 -23z"
       id="path3224" />
    <path
       d="M216 3118 c-16 -24 -52 -106 -43 -98 3 3 19 31 36 63 30 58 34 76 7 35z"
       id="path3226" />
    <path
       d="M4290 3105 c-7 -9 -10 -18 -7 -21 3 -3 10 4 17 15 13 25 8 27 -10 6z"
       id="path3228" />
    <path
       d="M3380 3086 c0 -2 8 -10 18 -17 l17 -14 -14 18 c-13 16 -21 21 -21 13z"
       id="path3230" />
    <path
       d="M4249 3033 l-14 -18 18 14 c9 7 17 15 17 17 0 8 -8 3 -21 -13z"
       id="path3232" />
    <path
       d="M2520 3025 c0 -5 5 -17 10 -25 5 -8 10 -10 10 -5 0 6 -5 17 -10 25 -5 8 -10 11 -10 5z"
       id="path3234" />
    <path
       d="M3420 3016 c0 -2 8 -10 18 -17 l17 -14 -14 18 c-13 16 -21 21 -21 13z"
       id="path3236" />
    <path
       d="M151 2983 c-1 -6 -4 -20 -7 -30 l-6 -18 12 18 c6 10 9 23 6 30 l-4 12 -1 -12z"
       id="path3238" />
    <path
       d="M2541 2964 l1 -19 5 13 c3 7 2 16 -1 19 -3 4 -6 -2 -5 -13z"
       id="path3240" />
    <path
       d="M4214 2968 l-7 -11 11 7 c7 4 12 9 12 12 0 8 -9 4 -16 -8z"
       id="path3242" />
    <path
       d="M3460 2952 c6 -13 14 -21 18 -18 3 4 -2 14 -12 24 l-18 17 12 -23z"
       id="path3244" />
    <path
       d="M2560 2920 c0 -7 3 -10 7 -7 3 4 3 10 0 14 -4 3 -7 0 -7 -7z"
       id="path3246" />
    <path
       d="M4180 2915 c-7 -9 -10 -18 -7 -21 3 -3 10 4 17 15 13 25 8 27 -10 6z"
       id="path3248" />
    <path
       d="M3500 2882 c6 -13 14 -21 18 -18 3 4 -2 14 -12 24 l-18 17 12 -23z"
       id="path3250" />
    <path
       d="M110 2860 c0 -7 3 -10 7 -7 3 4 3 10 0 14 -4 3 -7 0 -7 -7z"
       id="path3252" />
    <path
       d="M2580 2850 c0 -7 3 -10 7 -7 3 4 3 10 0 14 -4 3 -7 0 -7 -7z"
       id="path3254" />
    <path
       d="M4140 2845 c-7 -9 -10 -18 -7 -21 3 -3 10 4 17 15 13 25 8 27 -10 6z"
       id="path3256" />
    <path
       d="M100 2820 c0 -7 3 -10 7 -7 3 4 3 10 0 14 -4 3 -7 0 -7 -7z"
       id="path3258" />
    <path
       d="M3530 2826 c0 -2 8 -10 18 -17 l17 -14 -14 18 c-13 16 -21 21 -21 13z"
       id="path3260" />
    <path
       d="M2590 2810 c0 -7 3 -10 7 -7 3 4 3 10 0 14 -4 3 -7 0 -7 -7z"
       id="path3262" />
    <path
       d="M90 2780 c0 -7 3 -10 7 -7 3 4 3 10 0 14 -4 3 -7 0 -7 -7z"
       id="path3264" />
    <path
       d="M4099 2773 l-14 -18 18 14 c9 7 17 15 17 17 0 8 -8 3 -21 -13z"
       id="path3266" />
    <path
       d="M2600 2770 c0 -7 3 -10 7 -7 3 4 3 10 0 14 -4 3 -7 0 -7 -7z"
       id="path3268" />
    <path
       d="M3570 2762 c6 -13 14 -21 18 -18 3 4 -2 14 -12 24 l-18 17 12 -23z"
       id="path3270" />
    <path
       d="M80 2730 c0 -7 3 -10 7 -7 3 4 3 10 0 14 -4 3 -7 0 -7 -7z"
       id="path3272" />
    <path
       d="M4070 2720 c-6 -11 -8 -20 -6 -20 3 0 10 9 16 20 6 11 8 20 6 20 -3 0 -10 -9 -16 -20z"
       id="path3274" />
    <path
       d="M2610 2710 c0 -7 3 -10 7 -7 3 4 3 10 0 14 -4 3 -7 0 -7 -7z"
       id="path3276" />
    <path
       d="M3610 2692 c6 -13 14 -21 18 -18 3 4 -2 14 -12 24 l-18 17 12 -23z"
       id="path3278" />
    <path
       d="M71 2654 l1 -19 5 13 c3 7 2 16 -1 19 -3 4 -6 -2 -5 -13z"
       id="path3280" />
    <path
       d="M4030 2655 c-7 -9 -10 -18 -7 -21 3 -3 10 4 17 15 13 25 8 27 -10 6z"
       id="path3282" />
    <path
       d="M2621 2634 l1 -19 5 13 c3 7 2 16 -1 19 -3 4 -6 -2 -5 -13z"
       id="path3284" />
    <path
       d="M3650 2622 c6 -13 14 -21 18 -18 3 4 -2 14 -12 24 l-18 17 12 -23z"
       id="path3286" />
    <path
       d="M3990 2585 l-12 -15 10 0 c5 0 12 7 16 15 3 8 4 15 2 15 -2 0 -9 -7 -16 -15z"
       id="path3288" />
    <path
       d="M3695 2550 c3 -5 8 -10 11 -10 3 0 2 5 -1 10 -3 6 -8 10 -11 10 -3 0 -2 -4 1 -10z"
       id="path3290" />
    <path
       d="M3715 2510 c3 -5 8 -10 11 -10 3 0 2 5 -1 10 -3 6 -8 10 -11 10 -3 0 -2 -4 1 -10z"
       id="path3292" />
    <path
       d="M3944 2508 l-7 -11 11 7 c12 7 16 16 8 16 -3 0 -8 -5 -12 -12z"
       id="path3294" />
    <path
       d="M3924 2468 l-7 -11 11 7 c12 7 16 16 8 16 -3 0 -8 -5 -12 -12z"
       id="path3296" />
    <path
       d="M3750 2446 c0 -2 8 -10 18 -17 l17 -14 -14 18 c-13 16 -21 21 -21 13z"
       id="path3298" />
    <path
       d="M2622 2390 c0 -14 2 -19 5 -12 2 6 2 18 0 25 -3 6 -5 1 -5 -13z"
       id="path3300" />
    <path
       d="M3879 2393 l-14 -18 18 14 c16 13 21 21 13 21 -2 0 -10 -8 -17 -17z"
       id="path3302" />
    <path
       d="M71 2354 l1 -19 5 13 c3 7 2 16 -1 19 -3 4 -6 -2 -5 -13z"
       id="path3304" />
    <path
       d="M3805 2360 c3 -5 8 -10 11 -10 3 0 2 5 -1 10 -3 6 -8 10 -11 10 -3 0 -2 -4 1 -10z"
       id="path3306" />
    <path
       d="M3845 2330 c-4 -6 -11 -7 -17 -4 l-11 7 7 -12 8 -12 14 12 c14 11 18 19 10 19 -3 0 -8 -5 -11 -10z"
       id="path3308" />
    <path
       d="M2611 2304 l1 -19 5 13 c3 7 2 16 -1 19 -3 4 -6 -2 -5 -13z"
       id="path3310" />
    <path
       d="M80 2290 c0 -7 3 -10 7 -7 3 4 3 10 0 14 -4 3 -7 0 -7 -7z"
       id="path3312" />
    <path
       d="M2600 2250 c0 -7 3 -10 7 -7 3 4 3 10 0 14 -4 3 -7 0 -7 -7z"
       id="path3314" />
    <path
       d="M90 2240 c0 -7 3 -10 7 -7 3 4 3 10 0 14 -4 3 -7 0 -7 -7z"
       id="path3316" />
    <path
       d="M101 2204 l1 -19 5 13 c3 7 2 16 -1 19 -3 4 -6 -2 -5 -13z"
       id="path3318" />
    <path
       d="M2590 2210 c0 -7 3 -10 7 -7 3 4 3 10 0 14 -4 3 -7 0 -7 -7z"
       id="path3320" />
    <path
       d="M2580 2170 c0 -7 3 -10 7 -7 3 4 3 10 0 14 -4 3 -7 0 -7 -7z"
       id="path3322" />
    <path
       d="M110 2160 c0 -7 3 -10 7 -7 3 4 3 10 0 14 -4 3 -7 0 -7 -7z"
       id="path3324" />
    <path
       d="M2560 2100 c0 -7 3 -10 7 -7 3 4 3 10 0 14 -4 3 -7 0 -7 -7z"
       id="path3326" />
    <path
       d="M141 2074 l1 -19 5 13 c3 7 2 16 -1 19 -3 4 -6 -2 -5 -13z"
       id="path3328" />
    <path
       d="M2545 2059 c-4 -6 -5 -12 -2 -15 2 -3 7 2 10 11 7 17 1 20 -8 4z"
       id="path3330" />
    <path
       d="M150 2040 c0 -7 3 -10 7 -7 3 4 3 10 0 14 -4 3 -7 0 -7 -7z"
       id="path3332" />
    <path
       d="M2526 2015 c-9 -26 -7 -32 5 -12 6 10 9 21 6 23 -2 3 -7 -2 -11 -11z"
       id="path3334" />
    <path
       d="M181 1980 c-1 -8 10 -33 24 -55 13 -22 24 -35 24 -30 0 17 -48 101 -48 85z"
       id="path3336" />
    <path
       d="M2455 1874 c-9 -15 -12 -23 -6 -20 11 7 35 46 28 46 -3 0 -12 -12 -22 -26z"
       id="path3338" />
    <path
       d="M250 1842 c6 -13 14 -21 18 -18 3 4 -2 14 -12 24 l-18 17 12 -23z"
       id="path3340" />
    <path
       d="M2420 1815 c-7 -9 -10 -18 -7 -21 3 -3 10 4 17 15 13 25 8 27 -10 6z"
       id="path3342" />
    <path
       d="M280 1786 c0 -2 8 -10 18 -17 l17 -14 -14 18 c-13 16 -21 21 -21 13z"
       id="path3344" />
    <path
       d="M2379 1743 l-14 -18 18 14 c9 7 17 15 17 17 0 8 -8 3 -21 -13z"
       id="path3346" />
    <path
       d="M320 1722 c6 -13 14 -21 18 -18 3 4 -2 14 -12 24 l-18 17 12 -23z"
       id="path3348" />
    <path
       d="M2339 1673 l-14 -18 18 14 c16 13 21 21 13 21 -2 0 -10 -8 -17 -17z"
       id="path3350" />
    <path
       d="M360 1652 c6 -13 14 -21 18 -18 3 4 -2 14 -12 24 l-18 17 12 -23z"
       id="path3352" />
    <path
       d="M2314 1628 l-7 -11 11 7 c7 4 12 9 12 12 0 8 -9 4 -16 -8z"
       id="path3354" />
    <path
       d="M2294 1598 l-7 -11 11 7 c7 4 12 9 12 12 0 8 -9 4 -16 -8z"
       id="path3356" />
    <path
       d="M400 1582 c6 -13 14 -21 18 -18 3 4 -2 14 -12 24 l-18 17 12 -23z"
       id="path3358" />
    <path
       d="M2274 1558 l-7 -11 11 7 c7 4 12 9 12 12 0 8 -9 4 -16 -8z"
       id="path3360" />
    <path
       d="M430 1526 c0 -2 8 -10 18 -17 l17 -14 -14 18 c-13 16 -21 21 -21 13z"
       id="path3362" />
    <path
       d="M2230 1485 c-7 -9 -10 -18 -7 -21 3 -3 10 4 17 15 13 25 8 27 -10 6z"
       id="path3364" />
    <path
       d="M470 1462 c6 -13 14 -21 18 -18 3 4 -2 14 -12 24 l-18 17 12 -23z"
       id="path3366" />
    <path
       d="M2189 1413 l-14 -18 18 14 c9 7 17 15 17 17 0 8 -8 3 -21 -13z"
       id="path3368" />
    <path
       d="M510 1392 c6 -13 14 -21 18 -18 3 4 -2 14 -12 24 l-18 17 12 -23z"
       id="path3370" />
    <path
       d="M2154 1348 l-7 -11 11 7 c7 4 12 9 12 12 0 8 -9 4 -16 -8z"
       id="path3372" />
    <path
       d="M550 1322 c6 -13 14 -21 18 -18 3 4 -2 14 -12 24 l-18 17 12 -23z"
       id="path3374" />
    <path
       d="M2120 1295 c-7 -9 -10 -18 -7 -21 3 -3 10 4 17 15 13 25 8 27 -10 6z"
       id="path3376" />
    <path
       d="M580 1266 c0 -2 8 -10 18 -17 l17 -14 -14 18 c-13 16 -21 21 -21 13z"
       id="path3378" />
    <path
       d="M2080 1225 c-7 -9 -10 -18 -7 -21 3 -3 10 4 17 15 13 25 8 27 -10 6z"
       id="path3380" />
    <path
       d="M620 1202 c6 -13 14 -21 18 -18 3 4 -2 14 -12 24 l-18 17 12 -23z"
       id="path3382" />
    <path
       d="M2039 1153 l-14 -18 18 14 c16 13 21 21 13 21 -2 0 -10 -8 -17 -17z"
       id="path3384" />
    <path
       d="M660 1132 c6 -13 14 -21 18 -18 3 4 -2 14 -12 24 l-18 17 12 -23z"
       id="path3386" />
    <path
       d="M2010 1105 c-7 -9 -10 -18 -7 -21 3 -3 10 4 17 15 13 25 8 27 -10 6z"
       id="path3388" />
    <path
       d="M701 1063 c7 -12 15 -20 18 -17 3 2 -3 12 -13 22 l-18 17 13 -22z"
       id="path3390" />
    <path
       d="M1970 1035 c-7 -9 -10 -18 -7 -21 3 -3 10 4 17 15 13 25 8 27 -10 6z"
       id="path3392" />
    <path
       d="M730 1006 c0 -2 8 -10 18 -17 l17 -14 -14 18 c-13 16 -21 21 -21 13z"
       id="path3394" />
    <path
       d="M1929 963 l-14 -18 18 14 c16 13 21 21 13 21 -2 0 -10 -8 -17 -17z"
       id="path3396" />
    <path
       d="M770 942 c6 -13 14 -21 18 -18 3 4 -2 14 -12 24 l-18 17 12 -23z"
       id="path3398" />
    <path
       d="M1884 888 l-7 -11 11 7 c12 7 16 16 8 16 -3 0 -8 -5 -12 -12z"
       id="path3400" />
    <path
       d="M810 872 c6 -13 14 -21 18 -18 3 4 -2 14 -12 24 l-18 17 12 -23z"
       id="path3402" />
    <path
       d="M1864 848 l-7 -11 11 7 c12 7 16 16 8 16 -3 0 -8 -5 -12 -12z"
       id="path3404" />
    <path
       d="M840 816 c0 -2 8 -10 18 -17 l17 -14 -14 18 c-13 16 -21 21 -21 13z"
       id="path3406" />
    <path
       d="M1819 773 l-14 -18 18 14 c16 13 21 21 13 21 -2 0 -10 -8 -17 -17z"
       id="path3408" />
    <path
       d="M880 746 c0 -2 8 -10 18 -17 l17 -14 -14 18 c-13 16 -21 21 -21 13z"
       id="path3410" />
    <path
       d="M1774 698 l-7 -11 11 7 c12 7 16 16 8 16 -3 0 -8 -5 -12 -12z"
       id="path3412" />
    <path
       d="M920 682 c6 -13 14 -21 18 -18 3 4 -2 14 -12 24 l-18 17 12 -23z"
       id="path3414" />
    <path
       d="M1744 638 l-7 -11 11 7 c12 7 16 16 8 16 -3 0 -8 -5 -12 -12z"
       id="path3416" />
    <path
       d="M960 612 c6 -13 14 -21 18 -18 3 4 -2 14 -12 24 l-18 17 12 -23z"
       id="path3418" />
    <path
       d="M1710 585 c-7 -9 -10 -18 -7 -21 3 -3 10 4 17 15 13 25 8 27 -10 6z"
       id="path3420" />
    <path
       d="M993 547 c0 -8 6 -14 14 -14 l13 0 -11 14 c-6 7 -12 13 -14 13 -1 0 -2 -6 -2 -13z"
       id="path3422" />
    <path
       d="M1670 515 c-7 -9 -10 -18 -7 -21 3 -3 10 4 17 15 13 25 8 27 -10 6z"
       id="path3424" />
    <path
       d="M1629 443 l-14 -18 18 14 c16 13 21 21 13 21 -2 0 -10 -8 -17 -17z"
       id="path3426" />
    <path
       d="M1600 390 c-6 -11 -8 -20 -6 -20 3 0 10 9 16 20 6 11 8 20 6 20 -3 0 -10 -9 -16 -20z"
       id="path3428" />
    <path
       d="M1560 325 c-7 -9 -10 -18 -7 -21 3 -3 10 4 17 15 13 25 8 27 -10 6z"
       id="path3430" />
    <path
       d="M1520 255 c-7 -9 -10 -18 -7 -21 3 -3 10 4 17 15 13 25 8 27 -10 6z"
       id="path3432" />
  </g>
  <g
     transform="translate(0.000000,512.000000) scale(0.100000,-0.100000)"
     fill="#91a372"
     stroke="none"
     id="g3716">
    <path
       d="M2355 3300 c3 -5 8 -10 11 -10 3 0 2 5 -1 10 -3 6 -8 10 -11 10 -3 0 -2 -4 1 -10z"
       id="path3620" />
    <path
       d="M324 3288 l-7 -11 11 7 c7 4 12 9 12 12 0 8 -9 4 -16 -8z"
       id="path3622" />
    <path
       d="M4390 3279 c0 -5 5 -7 10 -4 6 3 10 8 10 11 0 2 -4 4 -10 4 -5 0 -10 -5 -10 -11z"
       id="path3624" />
    <path
       d="M2385 3260 c3 -5 8 -10 11 -10 3 0 2 5 -1 10 -3 6 -8 10 -11 10 -3 0 -2 -4 1 -10z"
       id="path3626" />
    <path
       d="M294 3248 l-7 -11 11 7 c12 7 16 16 8 16 -3 0 -8 -5 -12 -12z"
       id="path3628" />
    <path
       d="M3290 3250 c0 -7 3 -10 7 -7 3 4 3 10 0 14 -4 3 -7 0 -7 -7z"
       id="path3630" />
    <path
       d="M4350 3210 c0 -7 3 -10 7 -7 3 4 3 10 0 14 -4 3 -7 0 -7 -7z"
       id="path3632" />
    <path
       d="M255 3190 c-3 -5 -1 -10 4 -10 6 0 11 5 11 10 0 6 -2 10 -4 10 -3 0 -8 -4 -11 -10z"
       id="path3634" />
    <path
       d="M230 3140 c0 -7 3 -10 7 -7 3 4 3 10 0 14 -4 3 -7 0 -7 -7z"
       id="path3636" />
    <path
       d="M3400 3060 c0 -7 3 -10 7 -7 3 4 3 10 0 14 -4 3 -7 0 -7 -7z"
       id="path3638" />
    <path
       d="M4240 3020 c0 -7 3 -10 7 -7 3 4 3 10 0 14 -4 3 -7 0 -7 -7z"
       id="path3640" />
    <path
       d="M3440 2990 c0 -7 3 -10 7 -7 3 4 3 10 0 14 -4 3 -7 0 -7 -7z"
       id="path3642" />
    <path
       d="M144 2958 l-7 -11 11 7 c12 7 16 16 8 16 -3 0 -8 -5 -12 -12z"
       id="path3644" />
    <path
       d="M2570 2890 c0 -7 3 -10 7 -7 3 4 3 10 0 14 -4 3 -7 0 -7 -7z"
       id="path3646" />
    <path
       d="M100 2830 c0 -7 3 -10 7 -7 3 4 3 10 0 14 -4 3 -7 0 -7 -7z"
       id="path3648" />
    <path
       d="M2590 2820 c0 -7 3 -10 7 -7 3 4 3 10 0 14 -4 3 -7 0 -7 -7z"
       id="path3650" />
    <path
       d="M3550 2800 c0 -7 3 -10 7 -7 3 4 3 10 0 14 -4 3 -7 0 -7 -7z"
       id="path3652" />
    <path
       d="M90 2790 c0 -7 3 -10 7 -7 3 4 3 10 0 14 -4 3 -7 0 -7 -7z"
       id="path3654" />
    <path
       d="M2600 2780 c0 -7 3 -10 7 -7 3 4 3 10 0 14 -4 3 -7 0 -7 -7z"
       id="path3656" />
    <path
       d="M4090 2760 c0 -7 3 -10 7 -7 3 4 3 10 0 14 -4 3 -7 0 -7 -7z"
       id="path3658" />
    <path
       d="M80 2740 c0 -7 3 -10 7 -7 3 4 3 10 0 14 -4 3 -7 0 -7 -7z"
       id="path3660" />
    <path
       d="M2611 2724 l1 -19 5 13 c3 7 2 16 -1 19 -3 4 -6 -2 -5 -13z"
       id="path3662" />
    <path
       d="M71 2674 l1 -19 5 13 c3 7 2 16 -1 19 -3 4 -6 -2 -5 -13z"
       id="path3664" />
    <path
       d="M2621 2654 l1 -19 5 13 c3 7 2 16 -1 19 -3 4 -6 -2 -5 -13z"
       id="path3666" />
    <path
       d="M63 2510 c0 -47 2 -66 4 -42 2 23 2 61 0 85 -2 23 -4 4 -4 -43z"
       id="path3668" />
    <path
       d="M2621 2364 l1 -19 5 13 c3 7 2 16 -1 19 -3 4 -6 -2 -5 -13z"
       id="path3670" />
    <path
       d="M70 2340 c0 -7 3 -10 7 -7 3 4 3 10 0 14 -4 3 -7 0 -7 -7z"
       id="path3672" />
    <path
       d="M2610 2290 c0 -7 3 -10 7 -7 3 4 3 10 0 14 -4 3 -7 0 -7 -7z"
       id="path3674" />
    <path
       d="M80 2280 c0 -7 3 -10 7 -7 3 4 3 10 0 14 -4 3 -7 0 -7 -7z"
       id="path3676" />
    <path
       d="M2600 2240 c0 -7 3 -10 7 -7 3 4 3 10 0 14 -4 3 -7 0 -7 -7z"
       id="path3678" />
    <path
       d="M90 2230 c0 -7 3 -10 7 -7 3 4 3 10 0 14 -4 3 -7 0 -7 -7z"
       id="path3680" />
    <path
       d="M2590 2200 c0 -7 3 -10 7 -7 3 4 3 10 0 14 -4 3 -7 0 -7 -7z"
       id="path3682" />
    <path
       d="M100 2190 c0 -7 3 -10 7 -7 3 4 3 10 0 14 -4 3 -7 0 -7 -7z"
       id="path3684" />
    <path
       d="M2570 2130 c0 -7 3 -10 7 -7 3 4 3 10 0 14 -4 3 -7 0 -7 -7z"
       id="path3686" />
    <path
       d="M120 2120 c0 -7 3 -10 7 -7 3 4 3 10 0 14 -4 3 -7 0 -7 -7z"
       id="path3688" />
    <path
       d="M2550 2070 c0 -7 3 -10 7 -7 3 4 3 10 0 14 -4 3 -7 0 -7 -7z"
       id="path3690" />
    <path
       d="M175 1990 c3 -5 8 -10 11 -10 3 0 2 5 -1 10 -3 6 -8 10 -11 10 -3 0 -2 -4 1 -10z"
       id="path3692" />
    <path
       d="M2440 1850 c0 -7 3 -10 7 -7 3 4 3 10 0 14 -4 3 -7 0 -7 -7z"
       id="path3694" />
    <path
       d="M300 1760 c0 -7 3 -10 7 -7 3 4 3 10 0 14 -4 3 -7 0 -7 -7z"
       id="path3696" />
    <path
       d="M450 1500 c0 -7 3 -10 7 -7 3 4 3 10 0 14 -4 3 -7 0 -7 -7z"
       id="path3698" />
    <path
       d="M2180 1400 c0 -7 3 -10 7 -7 3 4 3 10 0 14 -4 3 -7 0 -7 -7z"
       id="path3700" />
    <path
       d="M600 1240 c0 -7 3 -10 7 -7 3 4 3 10 0 14 -4 3 -7 0 -7 -7z"
       id="path3702" />
    <path
       d="M2030 1140 c0 -7 3 -10 7 -7 3 4 3 10 0 14 -4 3 -7 0 -7 -7z"
       id="path3704" />
    <path
       d="M750 980 c0 -7 3 -10 7 -7 3 4 3 10 0 14 -4 3 -7 0 -7 -7z"
       id="path3706" />
    <path
       d="M860 790 c0 -7 3 -10 7 -7 3 4 3 10 0 14 -4 3 -7 0 -7 -7z"
       id="path3708" />
    <path
       d="M900 720 c0 -7 3 -10 7 -7 3 4 3 10 0 14 -4 3 -7 0 -7 -7z"
       id="path3710" />
    <path
       d="M1010 530 c0 -7 3 -10 7 -7 3 4 3 10 0 14 -4 3 -7 0 -7 -7z"
       id="path3712" />
    <path
       d="M1620 430 c0 -7 3 -10 7 -7 3 4 3 10 0 14 -4 3 -7 0 -7 -7z"
       id="path3714" />
  </g>
  <g
     transform="translate(0.000000,512.000000) scale(0.100000,-0.100000)"
     fill="#ed5654"
     stroke="none"
     id="g3820">
    <path
       d="M3976 2565 c-9 -26 -7 -32 5 -12 6 10 9 21 6 23 -2 3 -7 -2 -11 -11z"
       id="path3786" />
    <path
       d="M3700 2540 c0 -7 3 -10 7 -7 3 4 3 10 0 14 -4 3 -7 0 -7 -7z"
       id="path3788" />
    <path
       d="M3940 2500 c0 -7 3 -10 7 -7 3 4 3 10 0 14 -4 3 -7 0 -7 -7z"
       id="path3790" />
    <path
       d="M3736 2477 c3 -10 9 -15 12 -12 3 3 0 11 -7 18 l-12 12 7 -18z"
       id="path3792" />
    <path
       d="M3905 2439 c-4 -6 -5 -12 -2 -15 2 -3 7 2 10 11 7 17 1 20 -8 4z"
       id="path3794" />
    <path
       d="M3770 2425 c0 -5 5 -17 10 -25 5 -8 10 -10 10 -5 0 6 -5 17 -10 25 -5 8 -10 11 -10 5z"
       id="path3796" />
    <path
       d="M3866 2375 c-9 -26 -7 -32 5 -12 6 10 9 21 6 23 -2 3 -7 -2 -11 -11z"
       id="path3798" />
    <path
       d="M3810 2350 c0 -7 3 -10 7 -7 3 4 3 10 0 14 -4 3 -7 0 -7 -7z"
       id="path3800" />
    <path
       d="M2366 1725 c-9 -26 -7 -32 5 -12 6 10 9 21 6 23 -2 3 -7 -2 -11 -11z"
       id="path3802" />
    <path
       d="M2330 1660 c0 -7 3 -10 7 -7 3 4 3 10 0 14 -4 3 -7 0 -7 -7z"
       id="path3804" />
    <path
       d="M2290 1590 c0 -7 3 -10 7 -7 3 4 3 10 0 14 -4 3 -7 0 -7 -7z"
       id="path3806" />
    <path
       d="M2255 1529 c-4 -6 -5 -12 -2 -15 2 -3 7 2 10 11 7 17 1 20 -8 4z"
       id="path3808" />
    <path
       d="M1916 945 c-9 -26 -7 -32 5 -12 6 10 9 21 6 23 -2 3 -7 -2 -11 -11z"
       id="path3810" />
    <path
       d="M1880 880 c0 -7 3 -10 7 -7 3 4 3 10 0 14 -4 3 -7 0 -7 -7z"
       id="path3812" />
    <path
       d="M1845 819 c-4 -6 -5 -12 -2 -15 2 -3 7 2 10 11 7 17 1 20 -8 4z"
       id="path3814" />
    <path
       d="M1806 755 c-9 -26 -7 -32 5 -12 6 10 9 21 6 23 -2 3 -7 -2 -11 -11z"
       id="path3816" />
    <path
       d="M1770 690 c0 -7 3 -10 7 -7 3 4 3 10 0 14 -4 3 -7 0 -7 -7z"
       id="path3818" />
  </g>
  <g
     transform="translate(0.000000,512.000000) scale(0.100000,-0.100000)"
     fill="#737e59"
     stroke="none"
     id="g3822" />
</svg>
