<?xml version="1.0" encoding="UTF-8" standalone="no"?>
<svg
   xmlns:dc="http://purl.org/dc/elements/1.1/"
   xmlns:cc="http://creativecommons.org/ns#"
   xmlns:rdf="http://www.w3.org/1999/02/22-rdf-syntax-ns#"
   xmlns:svg="http://www.w3.org/2000/svg"
   xmlns="http://www.w3.org/2000/svg"
   xmlns:sodipodi="http://sodipodi.sourceforge.net/DTD/sodipodi-0.dtd"
   xmlns:inkscape="http://www.inkscape.org/namespaces/inkscape"
   width="464.4567"
   height="440.03156"
   version="1.1"
   id="svg116"
   sodipodi:docname="delivery-bike.svg"
   inkscape:version="1.0.2 (e86c870879, 2021-01-15, custom)">
  <metadata
     id="metadata122">
    <rdf:RDF>
      <cc:Work
         rdf:about="">
        <dc:format>image/svg+xml</dc:format>
        <dc:type
           rdf:resource="http://purl.org/dc/dcmitype/StillImage" />
        <dc:title></dc:title>
      </cc:Work>
    </rdf:RDF>
  </metadata>
  <defs
     id="defs120" />
  <sodipodi:namedview
     pagecolor="#ffffff"
     bordercolor="#666666"
     borderopacity="1"
     objecttolerance="10"
     gridtolerance="10"
     guidetolerance="10"
     inkscape:pageopacity="0"
     inkscape:pageshadow="2"
     inkscape:window-width="1366"
     inkscape:window-height="705"
     id="namedview118"
     showgrid="false"
     lock-margins="true"
     fit-margin-top="0"
     fit-margin-left="0"
     fit-margin-right="0"
     fit-margin-bottom="0"
     inkscape:zoom="0.74301455"
     inkscape:cx="123.57701"
     inkscape:cy="225.18411"
     inkscape:window-x="-8"
     inkscape:window-y="-8"
     inkscape:window-maximized="1"
     inkscape:current-layer="svg116" />
  <path
     style="fill:#c3c3c3;stroke:none"
     d="m 344,119.912 h 16 v -92 C 360,19.9707 363.978,0 352,0 c -11.978,0 -8,19.9707 -8,27.912 z"
     id="path4" />
  <path
     style="fill:#fd9226;stroke:none"
     d="m 160,31.912 h 56 c 0,-6.0459 2.089,-16.7656 -2.573,-21.4275 C 206.686,3.743 183.094,7.9079 174,7.912 170.078,7.9138 165.597,7.4603 162.573,10.4845 157.911,15.1464 160,25.8661 160,31.912 Z"
     id="path6" />
  <path
     style="fill:#fbd699;stroke:none"
     d="m 252.109,8.6543 c -5.509,2.3691 -5.509,12.1463 0,14.5154 9.213,3.9623 25.896,0.7423 35.891,0.7423 3.854,0 9.33,0.9251 12.772,-1.179 5.189,-3.1727 3.958,-12.7027 -1.816,-14.3873 C 289.379,5.551 275.966,7.912 266,7.912 c -4.221,0 -9.93,-0.9612 -13.891,0.7423 z"
     id="path8" />
  <path
     style="fill:#fd9226;stroke:none"
     d="m 360,7.912 v 64 h 56 v -47 L 414.397,8.9398 400,7.912 Z"
     id="path10" />
  <path
     style="fill:#e08122;stroke:none"
     d="m 124.109,32.6543 c -6.015,2.5869 -5.267,13.0142 0.935,14.824 6.778,1.9777 15.923,0.4337 22.956,0.4337 h 50 c 6.02,0 18.719,2.381 23.566,-1.7423 4.794,-4.0781 2.422,-12.8998 -3.581,-14.0293 C 197.18,28.2264 172.197,31.912 151,31.912 c -7.652,0 -19.802,-2.3064 -26.891,0.7423 M 416,31.912 v 41 l 1.603,13.972 12.397,1.028 h 34 l -13.907,-24 13.907,-32 z"
     id="path12" />
  <path
     style="fill:#fbd699;stroke:none"
     d="m 244.109,40.6543 c -5.509,2.3691 -5.509,12.1462 0,14.5154 5.843,2.513 27.209,2.8974 32.663,-0.4367 4.721,-2.887 4.218,-11.886 -0.881,-14.0787 -6.125,-2.6343 -25.657,-2.6343 -31.782,0 z"
     id="path14" />
  <path
     style="fill:#fdc9a6;stroke:none"
     d="m 157,47.912 -5,24 h 16 c 0,5.271 -0.833,11.286 2.009,15.996 5.411,8.968 24.437,11.325 33.807,7.401 3.792,-1.589 6.099,-6.445 9.199,-9.068 6.04,-5.113 12.329,-6.324 19.985,-6.329 l -12.124,-19 L 216.272,48.9398 200,47.912 Z"
     id="path16" />
  <path
     style="fill:#fbd699;stroke:none"
     d="m 276.109,72.654 c -5.509,2.369 -5.509,12.147 0,14.516 7.798,3.353 21.458,0.743 29.891,0.742 3.353,0 7.772,0.655 10.772,-1.179 5.189,-3.173 3.957,-12.703 -1.816,-14.387 -8.173,-2.385 -31.026,-3.056 -38.847,0.308 z"
     id="path18" />
  <path
     style="fill:#e08122;stroke:none"
     d="m 232,135.912 c -4.26,-16.423 -19.963,-44.637 0,-55 -11.38,-4.773 -25.668,7.36 -28.442,18 -2.239,8.587 0.479,17.037 3.389,25 1.169,3.2 1.881,8.817 4.755,10.972 4.168,3.126 15.237,1.028 20.298,1.028 z"
     id="path20" />
  <path
     style="fill:#fd9226;stroke:none"
     d="m 264,135.912 c -1.748,-8.445 -4.509,-16.706 -6.86,-25 -1.924,-6.789 -3.042,-14.485 -5.582,-21 -4.867,-12.485 -21.801,-13.182 -28.549,-1.996 -5.71,9.466 2.823,26.358 5.57,35.996 0.867,3.043 1.344,8.945 4.01,10.972 5.749,4.373 24.245,1.028 31.411,1.028 z"
     id="path22" />
  <path
     style="fill:#e08122;stroke:none"
     d="m 252,92.912 c 2.013,13.631 6.832,30.256 12.133,43 2.915,7.007 9.873,11.476 7.214,20 -5.574,17.873 -34.135,12 -48.347,12 l 8.702,22.972 15.298,1.028 h 41 c -3.469,-23.486 -16.258,-48.75 -24.576,-71 -3.19,-8.534 -5.042,-21.402 -11.424,-28 z"
     id="path24" />
  <path
     style="fill:#fbb540;stroke:none"
     d="m 320,167.912 h 144 c 0,-13.885 3.339,-31.43 -8.04,-41.812 -8.381,-7.645 -19.479,-6.188 -29.96,-6.188 h -68 c -11.039,0 -22.392,-1.42 -30.906,7.094 C 316.745,137.355 320,154.568 320,167.912 Z"
     id="path26" />
  <path
     style="fill:#fdc9a6;stroke:none"
     d="m 168,167.912 h 43 28 c 7.175,0 17.43,1.845 23.999,-1.457 11.56,-5.81 11.567,-21.561 1.573,-28.94 -4.957,-3.659 -15.67,-1.603 -21.572,-1.603 h -50 c -7.118,0 -15.271,-1.301 -20.786,4.214 -6.67,6.669 -4.214,19.171 -4.214,27.786 z"
     id="path28" />
  <path
     style="fill:#c3c3c3;stroke:none"
     d="m 132,167.912 4,16 20,-0.637 25,-11.726 21,-2.637 v -1 h -34 v -9 c -13.47,3.88 -21.435,9 -36,9 z"
     id="path30" />
  <path
     style="fill:#6b9777;stroke:none"
     d="m 80,159.912 v 40 h 16 v -40 z"
     id="path32" />
  <path
     style="fill:#5e8569;stroke:none"
     d="m 96,159.912 v 40 c 10.132,0 23.219,2.342 31.96,-3.85 11.77,-8.338 10.375,-28.609 -2.961,-34.733 -7.981,-3.664 -20.355,-1.417 -28.999,-1.417 z"
     id="path34" />
  <path
     style="fill:#da922a;stroke:none"
     d="m 320,167.912 v 88 h 144 v -88 z"
     id="path38" />
  <path
     style="fill:#6b9777;stroke:none"
     d="m 135,185.912 c -3.857,8.105 -12.439,9.959 -16.471,17.044 -7.83,13.762 -13.772,29.44 -20.105,43.956 -5.219,11.963 -11.848,23.657 -26.424,24 v 33 c 6.538,0 17.071,-2.004 22.985,1.028 6.726,3.447 11.977,13.173 16.615,18.972 l 32.8,41 c 4.219,5.274 8.265,13.495 13.774,17.397 7.411,5.249 26.913,1.603 35.826,1.603 h 58 c 8.89,0 19.279,1.484 28,-0.278 7.143,-1.443 20.534,-10.386 24,-16.722 -20.39,-4.843 -31.833,-22.793 -32,-43 -2.782,6.447 -3.047,12.376 -8.185,17.96 -14.515,15.774 -44.477,10.04 -63.815,10.04 -7.762,0 -25.218,3.242 -31.536,-1.603 -6.026,-4.621 -10.552,-13.345 -15.091,-19.397 -5.312,-7.084 -11.015,-14.044 -15.003,-22 -14.254,-28.439 -6.521,-54.652 2.963,-83 5.147,-15.385 15.251,-33.739 -6.333,-40 z"
     id="path40" />
  <path
     style="fill:#00ff00;stroke:none"
     d="m 142,187.912 1,1 z"
     id="path42" />
  <path
     style="fill:#744630;stroke:none"
     d="m 199,319.912 h 33 l -15,-96 h 32 c 8.889,0 22.922,2.636 30.996,-1.457 10.112,-5.125 11.002,-21.303 1.961,-27.89 -6.976,-5.082 -19.757,-2.653 -27.957,-2.653 -23.044,0 -55.655,-6.521 -67.673,19 -5.903,12.538 -2.128,26.106 0.284,39 4.297,22.969 10.548,46.708 12.389,70 z"
     id="path44" />
  <path
     style="fill:#c38325;stroke:none"
     d="m 365.044,192.654 c -6.801,2.772 -5.929,12.861 0.975,14.824 11.342,3.227 27.19,0.434 38.981,0.434 4.558,0 10.73,0.999 14.867,-1.318 6.719,-3.764 3.924,-12.925 -2.871,-14.338 -11.153,-2.319 -24.61,-0.344 -35.996,-0.344 -4.843,0 -11.393,-1.117 -15.956,0.742 z"
     id="path46" />
  <path
     style="fill:#00ff00;stroke:none"
     d="m 148,203.912 1,1 -1,-1 m -5,15 1,1 -1,-1 m -1,3 1,1 z"
     id="path48" />
  <path
     style="fill:#a45e14;stroke:none"
     d="m 224,223.912 v 32 h 64 c 0,-7.455 2.868,-22.531 -1.894,-28.656 -3.76,-4.837 -11.737,-3.344 -17.106,-3.344 z"
     id="path52" />
  <path
     style="fill:#00ff00;stroke:none"
     d="m 141,224.912 1,1 -1,-1 m -1,3 1,1 -1,-1 m -1,3 1,1 -1,-1 m -1,3 1,1 -1,-1 m -1,3 1,1 -1,-1 m -1,3 1,1 -1,-1 m -1,3 1,1 -1,-1 m -1,3 1,1 -1,-1 m -1,3 1,1 z"
     id="path54" />
  <path
     style="fill:#6b9777;stroke:none"
     d="m 224,255.912 c 0,3.665 -0.234,7.438 0.789,11 5.364,18.663 23.803,14.664 36.171,24.681 8.591,6.957 10.823,17.795 11.04,28.319 h 1 c 4.245,-23.887 26.844,-32.101 48,-31.999 37.803,0.182 79.543,19.67 106,46 9.725,9.678 22.882,33.949 37,33.999 -0.706,-15.454 -9.36,-32.011 -17.204,-45 -6.706,-11.105 -14.875,-21.109 -24.811,-29.463 -16.331,-13.73 -32.363,-24.972 -52.985,-31.508 -21.358,-6.77 -42.897,-6.029 -65,-6.029 z"
     id="path56" />
  <path
     style="fill:#a8a8a8;stroke:none"
     d="m 432,255.912 v 8 h 16 v -8 z"
     id="path60" />
  <path
     style="fill:#00ff00;stroke:none"
     d="m 375,263.912 1,1 z"
     id="path62" />
  <path
     style="fill:#c3c3c3;stroke:none"
     d="m 432,263.912 c -10e-4,12.805 -9.075,15.451 -20,20 v 2 c 3.846,2.928 8.153,8.628 13,9.671 3.388,0.73 7.117,-1.983 10,-3.424 14.17,-7.083 13,-13.448 13,-28.247 z"
     id="path64" />
  <path
     style="fill:#00ff00;stroke:none"
     d="m 243,283.912 1,1 z"
     id="path66" />
  <path
     style="fill:#5e8569;stroke:none"
     d="m 456,367.912 c -25.553,-44.858 -78.737,-76.38 -130,-79.91 -11.679,-0.805 -23.584,-0.826 -34,5.084 -21.064,11.95 -26.218,40.778 -11.471,59.825 13.194,17.041 33.33,15.001 52.471,15.001 z"
     id="path68" />
  <path
     style="fill:#00ff00;stroke:none"
     d="m 264,293.912 1,1 -1,-1 m 163,4 1,1 -1,-1 m 1,1 1,1 z"
     id="path70" />
  <path
     style="fill:#5e8569;stroke:none"
     d="m 0,359.912 h 47 l 23,0.318 19,15.079 20,0.603 h 44 c -9.353,-18.321 -26.942,-34.928 -39.8,-51 -4.795,-5.993 -10.343,-16.365 -17.239,-19.972 -6.672,-3.49 -19.538,-1.028 -26.961,-1.028 -8.4489,0 -17.7367,-1.079 -26,0.899 -26.0037,6.223 -43,28.786 -43,55.101 z"
     id="path72" />
  <path
     style="fill:#00ff00;stroke:none"
     d="m 30,308.912 1,1 -1,-1 m -2,1 1,1 -1,-1 m 111,1 1,1 -1,-1 m 300,1 1,1 -1,-1 m -295,7 1,1 z"
     id="path74" />
  <path
     style="fill:#dbdbdb;stroke:none"
     d="m 184,343.912 h 48 v -24 c -12.534,0 -39.744,-5.41 -46.543,8.004 C 183.073,332.62 184,338.8 184,343.912 Z"
     id="path76" />
  <path
     style="fill:#00ff00;stroke:none"
     d="m 14,320.912 1,1 -1,-1 m 433,3 1,1 -1,-1 m -441,8 1,1 -1,-1 m -1,2 1,1 z"
     id="path78" />
  <path
     style="fill:#c3c3c3;stroke:none"
     d="m 184,343.912 v 8 h 48 v -8 z"
     id="path80" />
  <path
     style="fill:#744630;stroke:none"
     d="m 128,375.912 h -25 c 8.987,37.747 -45.1673,55.127 -60.571,19 -1.9562,-4.588 -2.7366,-9.012 -2.3356,-14 0.661,-8.225 5.7522,-14.268 9.9066,-21 -7.0805,0 -22.6085,-2.94 -28.581,1.028 -3.8667,2.569 -5.0166,10.717 -5.3287,14.972 -1.0005,13.636 0.8221,26.067 7.7862,38 15.5132,26.582 51.3001,32.994 77.1235,18.688 8.845,-4.901 16.135,-12.731 20.741,-21.688 5.958,-11.587 6.259,-22.279 6.259,-35 z"
     id="path82" />
  <path
     style="fill:#f9f9f9;stroke:none"
     d="m 103,375.912 c -4.736,0 -10.821,1.035 -15,-1.603 -6.581,-4.155 -10.601,-13.607 -19,-14.338 -5.0792,-0.443 -14.338,-1.516 -18.9066,0.969 -13.998,7.614 -11.296,31.107 -3.9885,41.968 9.6933,14.407 29.8609,16.243 43.8941,7.536 5.199,-3.226 8.739,-7.943 11.121,-13.532 2.909,-6.823 3.214,-13.812 1.88,-21 z"
     id="path84" />
  <path
     style="fill:#a8a8a8;stroke:none"
     d="m 67,368.565 c -19.7752,6.17 -9.6071,36.843 10,30.694 19.916,-6.245 9.547,-36.794 -10,-30.694 z"
     id="path86" />
  <path
     style="fill:#744630;stroke:none"
     d="m 404,367.912 c 2.74,7.102 5.367,14.286 3.39,22 -8.785,34.294 -61.307,33.45 -63.347,-4 -0.356,-6.546 1.642,-12 3.957,-18 -6.099,0 -20.446,-2.668 -25.436,1.028 -5.578,4.131 -2.925,23.184 -1.408,28.972 7.207,27.492 30.611,42.044 57.844,42 25.265,-0.041 47.157,-19.603 52.331,-44 1.171,-5.521 3.279,-23.14 -1.895,-26.972 -4.99,-3.696 -19.337,-1.028 -25.436,-1.028 z"
     id="path88" />
  <path
     style="fill:#f9f9f9;stroke:none"
     d="m 379,367.912 v 1 c 16.597,3.349 16.575,26.883 0,30.605 -19.53,4.385 -23.81,-22.398 -8,-30.605 -19.309,-8.102 -30.575,5.471 -25.51,24 3.093,11.314 11.992,19.884 23.51,22.192 18.343,3.675 35.086,-7.89 38.384,-26.192 0.964,-5.348 1.25,-15.261 -3.087,-19.397 -4.498,-4.288 -19.355,-1.603 -25.297,-1.603 z"
     id="path90" />
  <path
     style="fill:#a8a8a8;stroke:none"
     d="m 371,368.565 c -19.775,6.17 -9.607,36.843 10,30.694 19.923,-6.247 9.636,-36.822 -10,-30.694 z"
     id="path92" />
  <path
     style="fill:#b7a095;stroke:none"
     d="m 40.3333,377.579 0.3334,0.666 z"
     id="path94" />
  <path
     style="fill:#b59e92;stroke:none"
     d="m 103.333,377.579 0.334,0.666 z"
     id="path96" />
  <path
     style="fill:#b7a095;stroke:none"
     d="m 344.333,377.579 0.334,0.666 z"
     id="path98" />
  <path
     style="fill:#b59e92;stroke:none"
     d="m 407.333,377.579 0.334,0.666 z"
     id="path100" />
  <path
     style="fill:#b69f94;stroke:none"
     d="m 40,387.912 v 3 h 1 z"
     id="path102" />
  <path
     style="fill:#b59d92;stroke:none"
     d="m 103,387.912 v 3 h 1 z"
     id="path104" />
  <path
     style="fill:#b69f94;stroke:none"
     d="m 344,387.912 v 3 h 1 z"
     id="path106" />
  <path
     style="fill:#b59d92;stroke:none"
     d="m 407,387.912 v 3 h 1 l -1,-3 m -341.3333,27.333 0.6666,0.334 z"
     id="path108" />
  <path
     style="fill:#9e7f70;stroke:none"
     d="m 77.667,415.245 0.666,0.334 z"
     id="path110" />
  <path
     style="fill:#b59d92;stroke:none"
     d="m 369.667,415.245 0.666,0.334 z"
     id="path112" />
  <path
     style="fill:#9e7f70;stroke:none"
     d="m 381.667,415.245 0.666,0.334 z"
     id="path114" />
</svg>
